ISO-10303-21;
HEADER;
/* Generated by software containing ST-Developer
 * from STEP Tools, Inc. (www.steptools.com) 
 */

FILE_DESCRIPTION(
/* description */ (''),
/* implementation_level */ '2;1');

FILE_NAME(
/* name */ 'Case.step',
/* time_stamp */ '2026-09-01T13:00:46-06:00',
/* author */ (''),
/* organization */ (''),
/* preprocessor_version */ 'ST-DEVELOPER v20.1',
/* originating_system */ 'Autodesk Translation Framework v15.8.0.0',
/* authorisation */ '');

FILE_SCHEMA (('AUTOMOTIVE_DESIGN { 1 0 10303 214 3 1 1 }'));
ENDSEC;

DATA;
#10=MECHANICAL_DESIGN_GEOMETRIC_PRESENTATION_REPRESENTATION('',(#21),#1939);
#11=ITEM_DEFINED_TRANSFORMATION($,$,#1176,#1274);
#12=ITEM_DEFINED_TRANSFORMATION($,$,#1175,#1275);
#13=(
REPRESENTATION_RELATIONSHIP($,$,#1954,#1953)
REPRESENTATION_RELATIONSHIP_WITH_TRANSFORMATION(#11)
SHAPE_REPRESENTATION_RELATIONSHIP()
);
#14=(
REPRESENTATION_RELATIONSHIP($,$,#1953,#1952)
REPRESENTATION_RELATIONSHIP_WITH_TRANSFORMATION(#12)
SHAPE_REPRESENTATION_RELATIONSHIP()
);
#15=CONTEXT_DEPENDENT_SHAPE_REPRESENTATION(#13,#1950);
#16=CONTEXT_DEPENDENT_SHAPE_REPRESENTATION(#14,#1951);
#17=NEXT_ASSEMBLY_USAGE_OCCURRENCE('main:1','main:1','main:1',#1957,#1958,
'main:1');
#18=NEXT_ASSEMBLY_USAGE_OCCURRENCE('holder:1','holder:1','holder:1',#1956,
#1957,'holder:1');
#19=SHAPE_REPRESENTATION_RELATIONSHIP('SRR','None',#1954,#20);
#20=ADVANCED_BREP_SHAPE_REPRESENTATION('',(#22),#1938);
#21=STYLED_ITEM('',(#1971),#22);
#22=MANIFOLD_SOLID_BREP('Body1',#1161);
#23=CYLINDRICAL_SURFACE('',#1186,1.);
#24=CYLINDRICAL_SURFACE('',#1189,1.);
#25=CYLINDRICAL_SURFACE('',#1192,1.);
#26=CYLINDRICAL_SURFACE('',#1200,4.8);
#27=CYLINDRICAL_SURFACE('',#1216,4.8);
#28=CYLINDRICAL_SURFACE('',#1218,4.8);
#29=CYLINDRICAL_SURFACE('',#1221,4.8);
#30=CYLINDRICAL_SURFACE('',#1258,2.8);
#31=CYLINDRICAL_SURFACE('',#1263,2.8);
#32=CYLINDRICAL_SURFACE('',#1272,2.8);
#33=CYLINDRICAL_SURFACE('',#1273,2.8);
#34=FACE_BOUND('',#150,.T.);
#35=FACE_BOUND('',#151,.T.);
#36=FACE_BOUND('',#155,.T.);
#37=FACE_BOUND('',#167,.T.);
#38=FACE_BOUND('',#168,.T.);
#39=FACE_BOUND('',#169,.T.);
#40=FACE_BOUND('',#172,.T.);
#41=FACE_BOUND('',#173,.T.);
#42=FACE_BOUND('',#181,.T.);
#43=FACE_BOUND('',#182,.T.);
#44=FACE_BOUND('',#185,.T.);
#45=FACE_BOUND('',#186,.T.);
#46=FACE_BOUND('',#187,.T.);
#47=FACE_BOUND('',#211,.T.);
#48=FACE_BOUND('',#214,.T.);
#49=FACE_BOUND('',#217,.T.);
#50=FACE_BOUND('',#220,.T.);
#51=CIRCLE('',#1179,2.8);
#52=CIRCLE('',#1180,2.8);
#53=CIRCLE('',#1182,4.8);
#54=CIRCLE('',#1183,4.8);
#55=CIRCLE('',#1187,1.);
#56=CIRCLE('',#1188,1.);
#57=CIRCLE('',#1190,1.);
#58=CIRCLE('',#1191,1.);
#59=CIRCLE('',#1193,1.);
#60=CIRCLE('',#1194,1.);
#61=CIRCLE('',#1198,4.8);
#62=CIRCLE('',#1199,4.8);
#63=CIRCLE('',#1201,4.8);
#64=CIRCLE('',#1202,4.8);
#65=CIRCLE('',#1203,4.8);
#66=CIRCLE('',#1210,2.8);
#67=CIRCLE('',#1211,2.8);
#68=CIRCLE('',#1215,4.8);
#69=CIRCLE('',#1217,4.8);
#70=CIRCLE('',#1219,4.8);
#71=CIRCLE('',#1220,4.8);
#72=CIRCLE('',#1222,4.8);
#73=CIRCLE('',#1224,2.8);
#74=CIRCLE('',#1225,2.8);
#75=CIRCLE('',#1233,2.8);
#76=CIRCLE('',#1236,2.8);
#77=CIRCLE('',#1241,2.8);
#78=CIRCLE('',#1244,2.8);
#79=CIRCLE('',#1249,2.8);
#80=CIRCLE('',#1251,2.8);
#81=CIRCLE('',#1253,2.8);
#82=CIRCLE('',#1257,2.8);
#83=CIRCLE('',#1259,2.8);
#84=CIRCLE('',#1260,2.8);
#85=CIRCLE('',#1261,2.8);
#86=CIRCLE('',#1264,2.8);
#87=CIRCLE('',#1265,2.8);
#88=CIRCLE('',#1266,2.8);
#89=FACE_OUTER_BOUND('',#148,.T.);
#90=FACE_OUTER_BOUND('',#149,.T.);
#91=FACE_OUTER_BOUND('',#152,.T.);
#92=FACE_OUTER_BOUND('',#153,.T.);
#93=FACE_OUTER_BOUND('',#154,.T.);
#94=FACE_OUTER_BOUND('',#156,.T.);
#95=FACE_OUTER_BOUND('',#157,.T.);
#96=FACE_OUTER_BOUND('',#158,.T.);
#97=FACE_OUTER_BOUND('',#159,.T.);
#98=FACE_OUTER_BOUND('',#160,.T.);
#99=FACE_OUTER_BOUND('',#161,.T.);
#100=FACE_OUTER_BOUND('',#162,.T.);
#101=FACE_OUTER_BOUND('',#163,.T.);
#102=FACE_OUTER_BOUND('',#164,.T.);
#103=FACE_OUTER_BOUND('',#165,.T.);
#104=FACE_OUTER_BOUND('',#166,.T.);
#105=FACE_OUTER_BOUND('',#170,.T.);
#106=FACE_OUTER_BOUND('',#171,.T.);
#107=FACE_OUTER_BOUND('',#174,.T.);
#108=FACE_OUTER_BOUND('',#175,.T.);
#109=FACE_OUTER_BOUND('',#176,.T.);
#110=FACE_OUTER_BOUND('',#177,.T.);
#111=FACE_OUTER_BOUND('',#178,.T.);
#112=FACE_OUTER_BOUND('',#179,.T.);
#113=FACE_OUTER_BOUND('',#180,.T.);
#114=FACE_OUTER_BOUND('',#183,.T.);
#115=FACE_OUTER_BOUND('',#184,.T.);
#116=FACE_OUTER_BOUND('',#188,.T.);
#117=FACE_OUTER_BOUND('',#189,.T.);
#118=FACE_OUTER_BOUND('',#190,.T.);
#119=FACE_OUTER_BOUND('',#191,.T.);
#120=FACE_OUTER_BOUND('',#192,.T.);
#121=FACE_OUTER_BOUND('',#193,.T.);
#122=FACE_OUTER_BOUND('',#194,.T.);
#123=FACE_OUTER_BOUND('',#195,.T.);
#124=FACE_OUTER_BOUND('',#196,.T.);
#125=FACE_OUTER_BOUND('',#197,.T.);
#126=FACE_OUTER_BOUND('',#198,.T.);
#127=FACE_OUTER_BOUND('',#199,.T.);
#128=FACE_OUTER_BOUND('',#200,.T.);
#129=FACE_OUTER_BOUND('',#201,.T.);
#130=FACE_OUTER_BOUND('',#202,.T.);
#131=FACE_OUTER_BOUND('',#203,.T.);
#132=FACE_OUTER_BOUND('',#204,.T.);
#133=FACE_OUTER_BOUND('',#205,.T.);
#134=FACE_OUTER_BOUND('',#206,.T.);
#135=FACE_OUTER_BOUND('',#207,.T.);
#136=FACE_OUTER_BOUND('',#208,.T.);
#137=FACE_OUTER_BOUND('',#209,.T.);
#138=FACE_OUTER_BOUND('',#210,.T.);
#139=FACE_OUTER_BOUND('',#212,.T.);
#140=FACE_OUTER_BOUND('',#213,.T.);
#141=FACE_OUTER_BOUND('',#215,.T.);
#142=FACE_OUTER_BOUND('',#216,.T.);
#143=FACE_OUTER_BOUND('',#218,.T.);
#144=FACE_OUTER_BOUND('',#219,.T.);
#145=FACE_OUTER_BOUND('',#221,.T.);
#146=FACE_OUTER_BOUND('',#222,.T.);
#147=FACE_OUTER_BOUND('',#223,.T.);
#148=EDGE_LOOP('',(#734,#735,#736,#737));
#149=EDGE_LOOP('',(#738,#739,#740,#741,#742,#743,#744,#745,#746,#747,#748,
#749));
#150=EDGE_LOOP('',(#750));
#151=EDGE_LOOP('',(#751));
#152=EDGE_LOOP('',(#752,#753,#754,#755,#756,#757,#758,#759));
#153=EDGE_LOOP('',(#760,#761,#762,#763));
#154=EDGE_LOOP('',(#764,#765,#766,#767));
#155=EDGE_LOOP('',(#768,#769,#770,#771));
#156=EDGE_LOOP('',(#772,#773,#774,#775));
#157=EDGE_LOOP('',(#776,#777,#778,#779));
#158=EDGE_LOOP('',(#780,#781,#782,#783));
#159=EDGE_LOOP('',(#784,#785,#786,#787));
#160=EDGE_LOOP('',(#788,#789,#790,#791));
#161=EDGE_LOOP('',(#792,#793,#794,#795));
#162=EDGE_LOOP('',(#796,#797,#798,#799,#800,#801,#802,#803));
#163=EDGE_LOOP('',(#804,#805,#806,#807,#808));
#164=EDGE_LOOP('',(#809,#810,#811,#812,#813));
#165=EDGE_LOOP('',(#814,#815,#816,#817,#818,#819,#820,#821,#822));
#166=EDGE_LOOP('',(#823,#824,#825,#826));
#167=EDGE_LOOP('',(#827));
#168=EDGE_LOOP('',(#828));
#169=EDGE_LOOP('',(#829));
#170=EDGE_LOOP('',(#830,#831,#832,#833));
#171=EDGE_LOOP('',(#834,#835,#836,#837,#838,#839));
#172=EDGE_LOOP('',(#840));
#173=EDGE_LOOP('',(#841));
#174=EDGE_LOOP('',(#842,#843,#844,#845,#846,#847,#848,#849,#850));
#175=EDGE_LOOP('',(#851,#852,#853,#854,#855,#856));
#176=EDGE_LOOP('',(#857,#858,#859,#860,#861,#862));
#177=EDGE_LOOP('',(#863,#864,#865,#866));
#178=EDGE_LOOP('',(#867,#868,#869,#870,#871,#872,#873,#874));
#179=EDGE_LOOP('',(#875,#876,#877,#878));
#180=EDGE_LOOP('',(#879,#880,#881,#882,#883,#884,#885,#886,#887,#888,#889,
#890));
#181=EDGE_LOOP('',(#891));
#182=EDGE_LOOP('',(#892));
#183=EDGE_LOOP('',(#893,#894,#895,#896));
#184=EDGE_LOOP('',(#897,#898,#899,#900,#901,#902,#903,#904,#905,#906,#907,
#908));
#185=EDGE_LOOP('',(#909));
#186=EDGE_LOOP('',(#910));
#187=EDGE_LOOP('',(#911));
#188=EDGE_LOOP('',(#912,#913));
#189=EDGE_LOOP('',(#914,#915));
#190=EDGE_LOOP('',(#916,#917));
#191=EDGE_LOOP('',(#918,#919));
#192=EDGE_LOOP('',(#920,#921));
#193=EDGE_LOOP('',(#922,#923,#924,#925));
#194=EDGE_LOOP('',(#926,#927));
#195=EDGE_LOOP('',(#928,#929,#930,#931));
#196=EDGE_LOOP('',(#932,#933));
#197=EDGE_LOOP('',(#934,#935));
#198=EDGE_LOOP('',(#936,#937));
#199=EDGE_LOOP('',(#938,#939,#940,#941));
#200=EDGE_LOOP('',(#942,#943));
#201=EDGE_LOOP('',(#944,#945,#946,#947));
#202=EDGE_LOOP('',(#948,#949,#950,#951));
#203=EDGE_LOOP('',(#952,#953,#954,#955));
#204=EDGE_LOOP('',(#956,#957,#958,#959));
#205=EDGE_LOOP('',(#960,#961,#962,#963));
#206=EDGE_LOOP('',(#964,#965,#966,#967));
#207=EDGE_LOOP('',(#968,#969,#970,#971));
#208=EDGE_LOOP('',(#972,#973,#974,#975));
#209=EDGE_LOOP('',(#976,#977,#978,#979));
#210=EDGE_LOOP('',(#980,#981,#982,#983,#984,#985,#986,#987,#988,#989,#990,
#991));
#211=EDGE_LOOP('',(#992,#993,#994,#995));
#212=EDGE_LOOP('',(#996,#997,#998,#999,#1000));
#213=EDGE_LOOP('',(#1001,#1002,#1003,#1004,#1005,#1006,#1007,#1008,#1009,
#1010,#1011,#1012));
#214=EDGE_LOOP('',(#1013,#1014,#1015,#1016));
#215=EDGE_LOOP('',(#1017,#1018,#1019,#1020,#1021));
#216=EDGE_LOOP('',(#1022,#1023,#1024,#1025));
#217=EDGE_LOOP('',(#1026,#1027,#1028,#1029));
#218=EDGE_LOOP('',(#1030,#1031,#1032,#1033));
#219=EDGE_LOOP('',(#1034,#1035,#1036,#1037));
#220=EDGE_LOOP('',(#1038,#1039,#1040,#1041));
#221=EDGE_LOOP('',(#1042,#1043,#1044,#1045));
#222=EDGE_LOOP('',(#1046,#1047,#1048,#1049));
#223=EDGE_LOOP('',(#1050,#1051,#1052,#1053));
#224=LINE('',#1608,#346);
#225=LINE('',#1610,#347);
#226=LINE('',#1612,#348);
#227=LINE('',#1613,#349);
#228=LINE('',#1616,#350);
#229=LINE('',#1618,#351);
#230=LINE('',#1620,#352);
#231=LINE('',#1622,#353);
#232=LINE('',#1624,#354);
#233=LINE('',#1626,#355);
#234=LINE('',#1628,#356);
#235=LINE('',#1630,#357);
#236=LINE('',#1632,#358);
#237=LINE('',#1634,#359);
#238=LINE('',#1635,#360);
#239=LINE('',#1642,#361);
#240=LINE('',#1644,#362);
#241=LINE('',#1645,#363);
#242=LINE('',#1651,#364);
#243=LINE('',#1653,#365);
#244=LINE('',#1655,#366);
#245=LINE('',#1656,#367);
#246=LINE('',#1658,#368);
#247=LINE('',#1659,#369);
#248=LINE('',#1662,#370);
#249=LINE('',#1664,#371);
#250=LINE('',#1666,#372);
#251=LINE('',#1667,#373);
#252=LINE('',#1672,#374);
#253=LINE('',#1678,#375);
#254=LINE('',#1684,#376);
#255=LINE('',#1689,#377);
#256=LINE('',#1691,#378);
#257=LINE('',#1693,#379);
#258=LINE('',#1694,#380);
#259=LINE('',#1698,#381);
#260=LINE('',#1700,#382);
#261=LINE('',#1702,#383);
#262=LINE('',#1703,#384);
#263=LINE('',#1709,#385);
#264=LINE('',#1712,#386);
#265=LINE('',#1718,#387);
#266=LINE('',#1721,#388);
#267=LINE('',#1723,#389);
#268=LINE('',#1726,#390);
#269=LINE('',#1729,#391);
#270=LINE('',#1731,#392);
#271=LINE('',#1733,#393);
#272=LINE('',#1734,#394);
#273=LINE('',#1738,#395);
#274=LINE('',#1740,#396);
#275=LINE('',#1742,#397);
#276=LINE('',#1744,#398);
#277=LINE('',#1745,#399);
#278=LINE('',#1747,#400);
#279=LINE('',#1749,#401);
#280=LINE('',#1750,#402);
#281=LINE('',#1752,#403);
#282=LINE('',#1753,#404);
#283=LINE('',#1756,#405);
#284=LINE('',#1758,#406);
#285=LINE('',#1759,#407);
#286=LINE('',#1761,#408);
#287=LINE('',#1768,#409);
#288=LINE('',#1769,#410);
#289=LINE('',#1771,#411);
#290=LINE('',#1772,#412);
#291=LINE('',#1775,#413);
#292=LINE('',#1777,#414);
#293=LINE('',#1783,#415);
#294=LINE('',#1786,#416);
#295=LINE('',#1788,#417);
#296=LINE('',#1791,#418);
#297=LINE('',#1795,#419);
#298=LINE('',#1796,#420);
#299=LINE('',#1802,#421);
#300=LINE('',#1804,#422);
#301=LINE('',#1805,#423);
#302=LINE('',#1814,#424);
#303=LINE('',#1817,#425);
#304=LINE('',#1819,#426);
#305=LINE('',#1820,#427);
#306=LINE('',#1825,#428);
#307=LINE('',#1828,#429);
#308=LINE('',#1830,#430);
#309=LINE('',#1831,#431);
#310=LINE('',#1838,#432);
#311=LINE('',#1841,#433);
#312=LINE('',#1843,#434);
#313=LINE('',#1844,#435);
#314=LINE('',#1849,#436);
#315=LINE('',#1852,#437);
#316=LINE('',#1854,#438);
#317=LINE('',#1855,#439);
#318=LINE('',#1859,#440);
#319=LINE('',#1861,#441);
#320=LINE('',#1863,#442);
#321=LINE('',#1864,#443);
#322=LINE('',#1868,#444);
#323=LINE('',#1870,#445);
#324=LINE('',#1872,#446);
#325=LINE('',#1873,#447);
#326=LINE('',#1878,#448);
#327=LINE('',#1879,#449);
#328=LINE('',#1884,#450);
#329=LINE('',#1885,#451);
#330=LINE('',#1890,#452);
#331=LINE('',#1891,#453);
#332=LINE('',#1893,#454);
#333=LINE('',#1894,#455);
#334=LINE('',#1897,#456);
#335=LINE('',#1899,#457);
#336=LINE('',#1900,#458);
#337=LINE('',#1903,#459);
#338=LINE('',#1907,#460);
#339=LINE('',#1914,#461);
#340=LINE('',#1919,#462);
#341=LINE('',#1920,#463);
#342=LINE('',#1922,#464);
#343=LINE('',#1924,#465);
#344=LINE('',#1927,#466);
#345=LINE('',#1929,#467);
#346=VECTOR('',#1284,10.);
#347=VECTOR('',#1285,10.);
#348=VECTOR('',#1286,10.);
#349=VECTOR('',#1287,10.);
#350=VECTOR('',#1290,10.);
#351=VECTOR('',#1291,10.);
#352=VECTOR('',#1292,10.);
#353=VECTOR('',#1293,10.);
#354=VECTOR('',#1294,10.);
#355=VECTOR('',#1295,10.);
#356=VECTOR('',#1296,10.);
#357=VECTOR('',#1297,10.);
#358=VECTOR('',#1298,10.);
#359=VECTOR('',#1299,10.);
#360=VECTOR('',#1300,10.);
#361=VECTOR('',#1307,10.);
#362=VECTOR('',#1308,10.);
#363=VECTOR('',#1309,10.);
#364=VECTOR('',#1316,10.);
#365=VECTOR('',#1317,10.);
#366=VECTOR('',#1318,10.);
#367=VECTOR('',#1319,10.);
#368=VECTOR('',#1322,10.);
#369=VECTOR('',#1323,10.);
#370=VECTOR('',#1324,10.);
#371=VECTOR('',#1325,10.);
#372=VECTOR('',#1326,10.);
#373=VECTOR('',#1327,10.);
#374=VECTOR('',#1332,1.);
#375=VECTOR('',#1339,1.);
#376=VECTOR('',#1346,1.);
#377=VECTOR('',#1351,10.);
#378=VECTOR('',#1352,10.);
#379=VECTOR('',#1353,10.);
#380=VECTOR('',#1354,10.);
#381=VECTOR('',#1357,10.);
#382=VECTOR('',#1358,10.);
#383=VECTOR('',#1359,10.);
#384=VECTOR('',#1360,10.);
#385=VECTOR('',#1365,10.);
#386=VECTOR('',#1368,10.);
#387=VECTOR('',#1373,10.);
#388=VECTOR('',#1376,10.);
#389=VECTOR('',#1377,10.);
#390=VECTOR('',#1380,10.);
#391=VECTOR('',#1383,10.);
#392=VECTOR('',#1384,10.);
#393=VECTOR('',#1385,10.);
#394=VECTOR('',#1386,10.);
#395=VECTOR('',#1389,10.);
#396=VECTOR('',#1390,10.);
#397=VECTOR('',#1391,10.);
#398=VECTOR('',#1392,10.);
#399=VECTOR('',#1393,10.);
#400=VECTOR('',#1396,10.);
#401=VECTOR('',#1397,10.);
#402=VECTOR('',#1398,10.);
#403=VECTOR('',#1401,10.);
#404=VECTOR('',#1402,10.);
#405=VECTOR('',#1405,10.);
#406=VECTOR('',#1406,10.);
#407=VECTOR('',#1407,10.);
#408=VECTOR('',#1410,10.);
#409=VECTOR('',#1417,10.);
#410=VECTOR('',#1418,10.);
#411=VECTOR('',#1421,10.);
#412=VECTOR('',#1422,10.);
#413=VECTOR('',#1425,10.);
#414=VECTOR('',#1426,10.);
#415=VECTOR('',#1435,10.);
#416=VECTOR('',#1438,10.);
#417=VECTOR('',#1439,10.);
#418=VECTOR('',#1442,10.);
#419=VECTOR('',#1449,10.);
#420=VECTOR('',#1450,10.);
#421=VECTOR('',#1457,10.);
#422=VECTOR('',#1460,10.);
#423=VECTOR('',#1461,10.);
#424=VECTOR('',#1474,10.);
#425=VECTOR('',#1477,10.);
#426=VECTOR('',#1478,10.);
#427=VECTOR('',#1479,10.);
#428=VECTOR('',#1484,10.);
#429=VECTOR('',#1487,10.);
#430=VECTOR('',#1488,10.);
#431=VECTOR('',#1489,10.);
#432=VECTOR('',#1498,10.);
#433=VECTOR('',#1501,10.);
#434=VECTOR('',#1502,10.);
#435=VECTOR('',#1503,10.);
#436=VECTOR('',#1508,10.);
#437=VECTOR('',#1511,10.);
#438=VECTOR('',#1512,10.);
#439=VECTOR('',#1513,10.);
#440=VECTOR('',#1516,10.);
#441=VECTOR('',#1517,10.);
#442=VECTOR('',#1518,10.);
#443=VECTOR('',#1519,10.);
#444=VECTOR('',#1522,10.);
#445=VECTOR('',#1523,10.);
#446=VECTOR('',#1524,10.);
#447=VECTOR('',#1525,10.);
#448=VECTOR('',#1530,10.);
#449=VECTOR('',#1531,10.);
#450=VECTOR('',#1536,10.);
#451=VECTOR('',#1537,10.);
#452=VECTOR('',#1542,10.);
#453=VECTOR('',#1543,10.);
#454=VECTOR('',#1546,10.);
#455=VECTOR('',#1547,10.);
#456=VECTOR('',#1550,10.);
#457=VECTOR('',#1551,10.);
#458=VECTOR('',#1552,10.);
#459=VECTOR('',#1557,10.);
#460=VECTOR('',#1562,2.8);
#461=VECTOR('',#1573,2.8);
#462=VECTOR('',#1582,10.);
#463=VECTOR('',#1583,10.);
#464=VECTOR('',#1586,10.);
#465=VECTOR('',#1589,10.);
#466=VECTOR('',#1594,2.8);
#467=VECTOR('',#1597,2.8);
#468=VERTEX_POINT('',#1606);
#469=VERTEX_POINT('',#1607);
#470=VERTEX_POINT('',#1609);
#471=VERTEX_POINT('',#1611);
#472=VERTEX_POINT('',#1615);
#473=VERTEX_POINT('',#1617);
#474=VERTEX_POINT('',#1619);
#475=VERTEX_POINT('',#1621);
#476=VERTEX_POINT('',#1623);
#477=VERTEX_POINT('',#1625);
#478=VERTEX_POINT('',#1627);
#479=VERTEX_POINT('',#1629);
#480=VERTEX_POINT('',#1631);
#481=VERTEX_POINT('',#1633);
#482=VERTEX_POINT('',#1636);
#483=VERTEX_POINT('',#1638);
#484=VERTEX_POINT('',#1641);
#485=VERTEX_POINT('',#1643);
#486=VERTEX_POINT('',#1649);
#487=VERTEX_POINT('',#1650);
#488=VERTEX_POINT('',#1652);
#489=VERTEX_POINT('',#1654);
#490=VERTEX_POINT('',#1660);
#491=VERTEX_POINT('',#1661);
#492=VERTEX_POINT('',#1663);
#493=VERTEX_POINT('',#1665);
#494=VERTEX_POINT('',#1669);
#495=VERTEX_POINT('',#1671);
#496=VERTEX_POINT('',#1675);
#497=VERTEX_POINT('',#1677);
#498=VERTEX_POINT('',#1681);
#499=VERTEX_POINT('',#1683);
#500=VERTEX_POINT('',#1687);
#501=VERTEX_POINT('',#1688);
#502=VERTEX_POINT('',#1690);
#503=VERTEX_POINT('',#1692);
#504=VERTEX_POINT('',#1696);
#505=VERTEX_POINT('',#1697);
#506=VERTEX_POINT('',#1699);
#507=VERTEX_POINT('',#1701);
#508=VERTEX_POINT('',#1705);
#509=VERTEX_POINT('',#1706);
#510=VERTEX_POINT('',#1708);
#511=VERTEX_POINT('',#1710);
#512=VERTEX_POINT('',#1714);
#513=VERTEX_POINT('',#1715);
#514=VERTEX_POINT('',#1717);
#515=VERTEX_POINT('',#1719);
#516=VERTEX_POINT('',#1722);
#517=VERTEX_POINT('',#1724);
#518=VERTEX_POINT('',#1728);
#519=VERTEX_POINT('',#1730);
#520=VERTEX_POINT('',#1732);
#521=VERTEX_POINT('',#1736);
#522=VERTEX_POINT('',#1737);
#523=VERTEX_POINT('',#1739);
#524=VERTEX_POINT('',#1741);
#525=VERTEX_POINT('',#1743);
#526=VERTEX_POINT('',#1748);
#527=VERTEX_POINT('',#1755);
#528=VERTEX_POINT('',#1757);
#529=VERTEX_POINT('',#1762);
#530=VERTEX_POINT('',#1764);
#531=VERTEX_POINT('',#1767);
#532=VERTEX_POINT('',#1774);
#533=VERTEX_POINT('',#1776);
#534=VERTEX_POINT('',#1782);
#535=VERTEX_POINT('',#1784);
#536=VERTEX_POINT('',#1787);
#537=VERTEX_POINT('',#1789);
#538=VERTEX_POINT('',#1797);
#539=VERTEX_POINT('',#1799);
#540=VERTEX_POINT('',#1811);
#541=VERTEX_POINT('',#1812);
#542=VERTEX_POINT('',#1816);
#543=VERTEX_POINT('',#1818);
#544=VERTEX_POINT('',#1822);
#545=VERTEX_POINT('',#1823);
#546=VERTEX_POINT('',#1827);
#547=VERTEX_POINT('',#1829);
#548=VERTEX_POINT('',#1835);
#549=VERTEX_POINT('',#1836);
#550=VERTEX_POINT('',#1840);
#551=VERTEX_POINT('',#1842);
#552=VERTEX_POINT('',#1846);
#553=VERTEX_POINT('',#1847);
#554=VERTEX_POINT('',#1851);
#555=VERTEX_POINT('',#1853);
#556=VERTEX_POINT('',#1857);
#557=VERTEX_POINT('',#1858);
#558=VERTEX_POINT('',#1860);
#559=VERTEX_POINT('',#1862);
#560=VERTEX_POINT('',#1866);
#561=VERTEX_POINT('',#1867);
#562=VERTEX_POINT('',#1869);
#563=VERTEX_POINT('',#1871);
#564=VERTEX_POINT('',#1875);
#565=VERTEX_POINT('',#1877);
#566=VERTEX_POINT('',#1881);
#567=VERTEX_POINT('',#1883);
#568=VERTEX_POINT('',#1887);
#569=VERTEX_POINT('',#1889);
#570=VERTEX_POINT('',#1896);
#571=VERTEX_POINT('',#1898);
#572=VERTEX_POINT('',#1905);
#573=VERTEX_POINT('',#1912);
#574=EDGE_CURVE('',#468,#469,#224,.T.);
#575=EDGE_CURVE('',#470,#469,#225,.T.);
#576=EDGE_CURVE('',#470,#471,#226,.T.);
#577=EDGE_CURVE('',#468,#471,#227,.T.);
#578=EDGE_CURVE('',#469,#472,#228,.T.);
#579=EDGE_CURVE('',#473,#472,#229,.T.);
#580=EDGE_CURVE('',#473,#474,#230,.T.);
#581=EDGE_CURVE('',#474,#475,#231,.T.);
#582=EDGE_CURVE('',#476,#475,#232,.T.);
#583=EDGE_CURVE('',#476,#477,#233,.T.);
#584=EDGE_CURVE('',#477,#478,#234,.T.);
#585=EDGE_CURVE('',#478,#479,#235,.T.);
#586=EDGE_CURVE('',#479,#480,#236,.T.);
#587=EDGE_CURVE('',#480,#481,#237,.T.);
#588=EDGE_CURVE('',#481,#470,#238,.T.);
#589=EDGE_CURVE('',#482,#482,#51,.T.);
#590=EDGE_CURVE('',#483,#483,#52,.T.);
#591=EDGE_CURVE('',#472,#484,#239,.T.);
#592=EDGE_CURVE('',#485,#484,#240,.T.);
#593=EDGE_CURVE('',#481,#485,#241,.T.);
#594=EDGE_CURVE('',#477,#480,#53,.T.);
#595=EDGE_CURVE('',#473,#476,#54,.T.);
#596=EDGE_CURVE('',#486,#487,#242,.T.);
#597=EDGE_CURVE('',#486,#488,#243,.T.);
#598=EDGE_CURVE('',#489,#488,#244,.T.);
#599=EDGE_CURVE('',#487,#489,#245,.T.);
#600=EDGE_CURVE('',#488,#485,#246,.T.);
#601=EDGE_CURVE('',#484,#489,#247,.T.);
#602=EDGE_CURVE('',#490,#491,#248,.T.);
#603=EDGE_CURVE('',#491,#492,#249,.T.);
#604=EDGE_CURVE('',#492,#493,#250,.T.);
#605=EDGE_CURVE('',#493,#490,#251,.T.);
#606=EDGE_CURVE('',#494,#494,#55,.T.);
#607=EDGE_CURVE('',#494,#495,#252,.T.);
#608=EDGE_CURVE('',#495,#495,#56,.T.);
#609=EDGE_CURVE('',#496,#496,#57,.T.);
#610=EDGE_CURVE('',#496,#497,#253,.T.);
#611=EDGE_CURVE('',#497,#497,#58,.T.);
#612=EDGE_CURVE('',#498,#498,#59,.T.);
#613=EDGE_CURVE('',#498,#499,#254,.T.);
#614=EDGE_CURVE('',#499,#499,#60,.T.);
#615=EDGE_CURVE('',#500,#501,#255,.T.);
#616=EDGE_CURVE('',#502,#501,#256,.T.);
#617=EDGE_CURVE('',#502,#503,#257,.T.);
#618=EDGE_CURVE('',#500,#503,#258,.T.);
#619=EDGE_CURVE('',#504,#505,#259,.T.);
#620=EDGE_CURVE('',#505,#506,#260,.T.);
#621=EDGE_CURVE('',#506,#507,#261,.T.);
#622=EDGE_CURVE('',#507,#504,#262,.T.);
#623=EDGE_CURVE('',#508,#509,#61,.T.);
#624=EDGE_CURVE('',#508,#510,#263,.T.);
#625=EDGE_CURVE('',#511,#510,#62,.T.);
#626=EDGE_CURVE('',#509,#511,#264,.T.);
#627=EDGE_CURVE('',#512,#513,#63,.T.);
#628=EDGE_CURVE('',#514,#513,#265,.T.);
#629=EDGE_CURVE('',#514,#515,#64,.T.);
#630=EDGE_CURVE('',#511,#515,#266,.T.);
#631=EDGE_CURVE('',#510,#516,#267,.T.);
#632=EDGE_CURVE('',#517,#516,#65,.T.);
#633=EDGE_CURVE('',#517,#512,#268,.T.);
#634=EDGE_CURVE('',#518,#501,#269,.T.);
#635=EDGE_CURVE('',#519,#500,#270,.T.);
#636=EDGE_CURVE('',#520,#519,#271,.T.);
#637=EDGE_CURVE('',#520,#518,#272,.T.);
#638=EDGE_CURVE('',#521,#522,#273,.T.);
#639=EDGE_CURVE('',#521,#523,#274,.T.);
#640=EDGE_CURVE('',#523,#524,#275,.T.);
#641=EDGE_CURVE('',#524,#525,#276,.T.);
#642=EDGE_CURVE('',#522,#525,#277,.T.);
#643=EDGE_CURVE('',#502,#487,#278,.T.);
#644=EDGE_CURVE('',#526,#468,#279,.T.);
#645=EDGE_CURVE('',#503,#526,#280,.T.);
#646=EDGE_CURVE('',#501,#521,#281,.T.);
#647=EDGE_CURVE('',#523,#518,#282,.T.);
#648=EDGE_CURVE('',#527,#522,#283,.T.);
#649=EDGE_CURVE('',#528,#527,#284,.T.);
#650=EDGE_CURVE('',#521,#528,#285,.T.);
#651=EDGE_CURVE('',#486,#528,#286,.T.);
#652=EDGE_CURVE('',#529,#529,#66,.T.);
#653=EDGE_CURVE('',#530,#530,#67,.T.);
#654=EDGE_CURVE('',#531,#527,#287,.T.);
#655=EDGE_CURVE('',#471,#531,#288,.T.);
#656=EDGE_CURVE('',#513,#526,#289,.T.);
#657=EDGE_CURVE('',#512,#519,#290,.T.);
#658=EDGE_CURVE('',#531,#532,#291,.T.);
#659=EDGE_CURVE('',#525,#533,#292,.T.);
#660=EDGE_CURVE('',#532,#533,#68,.T.);
#661=EDGE_CURVE('',#475,#474,#69,.T.);
#662=EDGE_CURVE('',#533,#534,#293,.T.);
#663=EDGE_CURVE('',#535,#534,#70,.T.);
#664=EDGE_CURVE('',#535,#508,#294,.T.);
#665=EDGE_CURVE('',#509,#536,#295,.T.);
#666=EDGE_CURVE('',#536,#537,#71,.T.);
#667=EDGE_CURVE('',#532,#537,#296,.T.);
#668=EDGE_CURVE('',#479,#478,#72,.T.);
#669=EDGE_CURVE('',#537,#536,#297,.T.);
#670=EDGE_CURVE('',#515,#514,#298,.T.);
#671=EDGE_CURVE('',#538,#538,#73,.T.);
#672=EDGE_CURVE('',#539,#539,#74,.T.);
#673=EDGE_CURVE('',#520,#524,#299,.T.);
#674=EDGE_CURVE('',#516,#517,#300,.T.);
#675=EDGE_CURVE('',#534,#535,#301,.T.);
#676=EDGE_CURVE('',#540,#541,#75,.T.);
#677=EDGE_CURVE('',#540,#541,#302,.T.);
#678=EDGE_CURVE('',#541,#542,#303,.T.);
#679=EDGE_CURVE('',#543,#542,#304,.T.);
#680=EDGE_CURVE('',#543,#540,#305,.T.);
#681=EDGE_CURVE('',#544,#545,#76,.T.);
#682=EDGE_CURVE('',#544,#545,#306,.T.);
#683=EDGE_CURVE('',#545,#546,#307,.T.);
#684=EDGE_CURVE('',#547,#546,#308,.T.);
#685=EDGE_CURVE('',#547,#544,#309,.T.);
#686=EDGE_CURVE('',#548,#549,#77,.T.);
#687=EDGE_CURVE('',#548,#549,#310,.T.);
#688=EDGE_CURVE('',#549,#550,#311,.T.);
#689=EDGE_CURVE('',#551,#550,#312,.T.);
#690=EDGE_CURVE('',#551,#548,#313,.T.);
#691=EDGE_CURVE('',#552,#553,#78,.T.);
#692=EDGE_CURVE('',#552,#553,#314,.T.);
#693=EDGE_CURVE('',#553,#554,#315,.T.);
#694=EDGE_CURVE('',#555,#554,#316,.T.);
#695=EDGE_CURVE('',#555,#552,#317,.T.);
#696=EDGE_CURVE('',#556,#557,#318,.T.);
#697=EDGE_CURVE('',#556,#558,#319,.T.);
#698=EDGE_CURVE('',#559,#558,#320,.T.);
#699=EDGE_CURVE('',#559,#557,#321,.T.);
#700=EDGE_CURVE('',#560,#561,#322,.T.);
#701=EDGE_CURVE('',#560,#562,#323,.T.);
#702=EDGE_CURVE('',#563,#562,#324,.T.);
#703=EDGE_CURVE('',#563,#561,#325,.T.);
#704=EDGE_CURVE('',#564,#556,#79,.T.);
#705=EDGE_CURVE('',#565,#564,#326,.T.);
#706=EDGE_CURVE('',#558,#565,#327,.T.);
#707=EDGE_CURVE('',#561,#566,#80,.T.);
#708=EDGE_CURVE('',#567,#563,#328,.T.);
#709=EDGE_CURVE('',#566,#567,#329,.T.);
#710=EDGE_CURVE('',#557,#568,#81,.T.);
#711=EDGE_CURVE('',#569,#559,#330,.T.);
#712=EDGE_CURVE('',#569,#568,#331,.T.);
#713=EDGE_CURVE('',#568,#564,#332,.T.);
#714=EDGE_CURVE('',#565,#569,#333,.T.);
#715=EDGE_CURVE('',#566,#570,#334,.T.);
#716=EDGE_CURVE('',#571,#567,#335,.T.);
#717=EDGE_CURVE('',#570,#571,#336,.T.);
#718=EDGE_CURVE('',#570,#560,#82,.T.);
#719=EDGE_CURVE('',#562,#571,#337,.T.);
#720=EDGE_CURVE('',#572,#547,#83,.T.);
#721=EDGE_CURVE('',#572,#529,#338,.T.);
#722=EDGE_CURVE('',#554,#572,#84,.T.);
#723=EDGE_CURVE('',#546,#555,#85,.T.);
#724=EDGE_CURVE('',#573,#543,#86,.T.);
#725=EDGE_CURVE('',#573,#530,#339,.T.);
#726=EDGE_CURVE('',#550,#573,#87,.T.);
#727=EDGE_CURVE('',#542,#551,#88,.T.);
#728=EDGE_CURVE('',#505,#493,#340,.T.);
#729=EDGE_CURVE('',#504,#490,#341,.T.);
#730=EDGE_CURVE('',#507,#491,#342,.T.);
#731=EDGE_CURVE('',#506,#492,#343,.T.);
#732=EDGE_CURVE('',#483,#538,#344,.T.);
#733=EDGE_CURVE('',#482,#539,#345,.T.);
#734=ORIENTED_EDGE('',*,*,#574,.T.);
#735=ORIENTED_EDGE('',*,*,#575,.F.);
#736=ORIENTED_EDGE('',*,*,#576,.T.);
#737=ORIENTED_EDGE('',*,*,#577,.F.);
#738=ORIENTED_EDGE('',*,*,#578,.T.);
#739=ORIENTED_EDGE('',*,*,#579,.F.);
#740=ORIENTED_EDGE('',*,*,#580,.T.);
#741=ORIENTED_EDGE('',*,*,#581,.T.);
#742=ORIENTED_EDGE('',*,*,#582,.F.);
#743=ORIENTED_EDGE('',*,*,#583,.T.);
#744=ORIENTED_EDGE('',*,*,#584,.T.);
#745=ORIENTED_EDGE('',*,*,#585,.T.);
#746=ORIENTED_EDGE('',*,*,#586,.T.);
#747=ORIENTED_EDGE('',*,*,#587,.T.);
#748=ORIENTED_EDGE('',*,*,#588,.T.);
#749=ORIENTED_EDGE('',*,*,#575,.T.);
#750=ORIENTED_EDGE('',*,*,#589,.T.);
#751=ORIENTED_EDGE('',*,*,#590,.T.);
#752=ORIENTED_EDGE('',*,*,#579,.T.);
#753=ORIENTED_EDGE('',*,*,#591,.T.);
#754=ORIENTED_EDGE('',*,*,#592,.F.);
#755=ORIENTED_EDGE('',*,*,#593,.F.);
#756=ORIENTED_EDGE('',*,*,#587,.F.);
#757=ORIENTED_EDGE('',*,*,#594,.F.);
#758=ORIENTED_EDGE('',*,*,#583,.F.);
#759=ORIENTED_EDGE('',*,*,#595,.F.);
#760=ORIENTED_EDGE('',*,*,#596,.F.);
#761=ORIENTED_EDGE('',*,*,#597,.T.);
#762=ORIENTED_EDGE('',*,*,#598,.F.);
#763=ORIENTED_EDGE('',*,*,#599,.F.);
#764=ORIENTED_EDGE('',*,*,#598,.T.);
#765=ORIENTED_EDGE('',*,*,#600,.T.);
#766=ORIENTED_EDGE('',*,*,#592,.T.);
#767=ORIENTED_EDGE('',*,*,#601,.T.);
#768=ORIENTED_EDGE('',*,*,#602,.T.);
#769=ORIENTED_EDGE('',*,*,#603,.T.);
#770=ORIENTED_EDGE('',*,*,#604,.T.);
#771=ORIENTED_EDGE('',*,*,#605,.T.);
#772=ORIENTED_EDGE('',*,*,#606,.F.);
#773=ORIENTED_EDGE('',*,*,#607,.T.);
#774=ORIENTED_EDGE('',*,*,#608,.F.);
#775=ORIENTED_EDGE('',*,*,#607,.F.);
#776=ORIENTED_EDGE('',*,*,#609,.F.);
#777=ORIENTED_EDGE('',*,*,#610,.T.);
#778=ORIENTED_EDGE('',*,*,#611,.F.);
#779=ORIENTED_EDGE('',*,*,#610,.F.);
#780=ORIENTED_EDGE('',*,*,#612,.F.);
#781=ORIENTED_EDGE('',*,*,#613,.T.);
#782=ORIENTED_EDGE('',*,*,#614,.F.);
#783=ORIENTED_EDGE('',*,*,#613,.F.);
#784=ORIENTED_EDGE('',*,*,#615,.T.);
#785=ORIENTED_EDGE('',*,*,#616,.F.);
#786=ORIENTED_EDGE('',*,*,#617,.T.);
#787=ORIENTED_EDGE('',*,*,#618,.F.);
#788=ORIENTED_EDGE('',*,*,#619,.T.);
#789=ORIENTED_EDGE('',*,*,#620,.T.);
#790=ORIENTED_EDGE('',*,*,#621,.T.);
#791=ORIENTED_EDGE('',*,*,#622,.T.);
#792=ORIENTED_EDGE('',*,*,#623,.F.);
#793=ORIENTED_EDGE('',*,*,#624,.T.);
#794=ORIENTED_EDGE('',*,*,#625,.F.);
#795=ORIENTED_EDGE('',*,*,#626,.F.);
#796=ORIENTED_EDGE('',*,*,#627,.T.);
#797=ORIENTED_EDGE('',*,*,#628,.F.);
#798=ORIENTED_EDGE('',*,*,#629,.T.);
#799=ORIENTED_EDGE('',*,*,#630,.F.);
#800=ORIENTED_EDGE('',*,*,#625,.T.);
#801=ORIENTED_EDGE('',*,*,#631,.T.);
#802=ORIENTED_EDGE('',*,*,#632,.F.);
#803=ORIENTED_EDGE('',*,*,#633,.T.);
#804=ORIENTED_EDGE('',*,*,#634,.T.);
#805=ORIENTED_EDGE('',*,*,#615,.F.);
#806=ORIENTED_EDGE('',*,*,#635,.F.);
#807=ORIENTED_EDGE('',*,*,#636,.F.);
#808=ORIENTED_EDGE('',*,*,#637,.T.);
#809=ORIENTED_EDGE('',*,*,#638,.F.);
#810=ORIENTED_EDGE('',*,*,#639,.T.);
#811=ORIENTED_EDGE('',*,*,#640,.T.);
#812=ORIENTED_EDGE('',*,*,#641,.T.);
#813=ORIENTED_EDGE('',*,*,#642,.F.);
#814=ORIENTED_EDGE('',*,*,#643,.T.);
#815=ORIENTED_EDGE('',*,*,#599,.T.);
#816=ORIENTED_EDGE('',*,*,#601,.F.);
#817=ORIENTED_EDGE('',*,*,#591,.F.);
#818=ORIENTED_EDGE('',*,*,#578,.F.);
#819=ORIENTED_EDGE('',*,*,#574,.F.);
#820=ORIENTED_EDGE('',*,*,#644,.F.);
#821=ORIENTED_EDGE('',*,*,#645,.F.);
#822=ORIENTED_EDGE('',*,*,#617,.F.);
#823=ORIENTED_EDGE('',*,*,#646,.F.);
#824=ORIENTED_EDGE('',*,*,#634,.F.);
#825=ORIENTED_EDGE('',*,*,#647,.F.);
#826=ORIENTED_EDGE('',*,*,#639,.F.);
#827=ORIENTED_EDGE('',*,*,#606,.T.);
#828=ORIENTED_EDGE('',*,*,#609,.T.);
#829=ORIENTED_EDGE('',*,*,#612,.T.);
#830=ORIENTED_EDGE('',*,*,#638,.T.);
#831=ORIENTED_EDGE('',*,*,#648,.F.);
#832=ORIENTED_EDGE('',*,*,#649,.F.);
#833=ORIENTED_EDGE('',*,*,#650,.F.);
#834=ORIENTED_EDGE('',*,*,#643,.F.);
#835=ORIENTED_EDGE('',*,*,#616,.T.);
#836=ORIENTED_EDGE('',*,*,#646,.T.);
#837=ORIENTED_EDGE('',*,*,#650,.T.);
#838=ORIENTED_EDGE('',*,*,#651,.F.);
#839=ORIENTED_EDGE('',*,*,#596,.T.);
#840=ORIENTED_EDGE('',*,*,#652,.T.);
#841=ORIENTED_EDGE('',*,*,#653,.T.);
#842=ORIENTED_EDGE('',*,*,#651,.T.);
#843=ORIENTED_EDGE('',*,*,#649,.T.);
#844=ORIENTED_EDGE('',*,*,#654,.F.);
#845=ORIENTED_EDGE('',*,*,#655,.F.);
#846=ORIENTED_EDGE('',*,*,#576,.F.);
#847=ORIENTED_EDGE('',*,*,#588,.F.);
#848=ORIENTED_EDGE('',*,*,#593,.T.);
#849=ORIENTED_EDGE('',*,*,#600,.F.);
#850=ORIENTED_EDGE('',*,*,#597,.F.);
#851=ORIENTED_EDGE('',*,*,#656,.F.);
#852=ORIENTED_EDGE('',*,*,#627,.F.);
#853=ORIENTED_EDGE('',*,*,#657,.T.);
#854=ORIENTED_EDGE('',*,*,#635,.T.);
#855=ORIENTED_EDGE('',*,*,#618,.T.);
#856=ORIENTED_EDGE('',*,*,#645,.T.);
#857=ORIENTED_EDGE('',*,*,#658,.F.);
#858=ORIENTED_EDGE('',*,*,#654,.T.);
#859=ORIENTED_EDGE('',*,*,#648,.T.);
#860=ORIENTED_EDGE('',*,*,#642,.T.);
#861=ORIENTED_EDGE('',*,*,#659,.T.);
#862=ORIENTED_EDGE('',*,*,#660,.F.);
#863=ORIENTED_EDGE('',*,*,#595,.T.);
#864=ORIENTED_EDGE('',*,*,#582,.T.);
#865=ORIENTED_EDGE('',*,*,#661,.T.);
#866=ORIENTED_EDGE('',*,*,#580,.F.);
#867=ORIENTED_EDGE('',*,*,#662,.T.);
#868=ORIENTED_EDGE('',*,*,#663,.F.);
#869=ORIENTED_EDGE('',*,*,#664,.T.);
#870=ORIENTED_EDGE('',*,*,#623,.T.);
#871=ORIENTED_EDGE('',*,*,#665,.T.);
#872=ORIENTED_EDGE('',*,*,#666,.T.);
#873=ORIENTED_EDGE('',*,*,#667,.F.);
#874=ORIENTED_EDGE('',*,*,#660,.T.);
#875=ORIENTED_EDGE('',*,*,#594,.T.);
#876=ORIENTED_EDGE('',*,*,#586,.F.);
#877=ORIENTED_EDGE('',*,*,#668,.T.);
#878=ORIENTED_EDGE('',*,*,#584,.F.);
#879=ORIENTED_EDGE('',*,*,#644,.T.);
#880=ORIENTED_EDGE('',*,*,#577,.T.);
#881=ORIENTED_EDGE('',*,*,#655,.T.);
#882=ORIENTED_EDGE('',*,*,#658,.T.);
#883=ORIENTED_EDGE('',*,*,#667,.T.);
#884=ORIENTED_EDGE('',*,*,#669,.T.);
#885=ORIENTED_EDGE('',*,*,#665,.F.);
#886=ORIENTED_EDGE('',*,*,#626,.T.);
#887=ORIENTED_EDGE('',*,*,#630,.T.);
#888=ORIENTED_EDGE('',*,*,#670,.T.);
#889=ORIENTED_EDGE('',*,*,#628,.T.);
#890=ORIENTED_EDGE('',*,*,#656,.T.);
#891=ORIENTED_EDGE('',*,*,#671,.F.);
#892=ORIENTED_EDGE('',*,*,#672,.F.);
#893=ORIENTED_EDGE('',*,*,#647,.T.);
#894=ORIENTED_EDGE('',*,*,#637,.F.);
#895=ORIENTED_EDGE('',*,*,#673,.T.);
#896=ORIENTED_EDGE('',*,*,#640,.F.);
#897=ORIENTED_EDGE('',*,*,#633,.F.);
#898=ORIENTED_EDGE('',*,*,#674,.F.);
#899=ORIENTED_EDGE('',*,*,#631,.F.);
#900=ORIENTED_EDGE('',*,*,#624,.F.);
#901=ORIENTED_EDGE('',*,*,#664,.F.);
#902=ORIENTED_EDGE('',*,*,#675,.F.);
#903=ORIENTED_EDGE('',*,*,#662,.F.);
#904=ORIENTED_EDGE('',*,*,#659,.F.);
#905=ORIENTED_EDGE('',*,*,#641,.F.);
#906=ORIENTED_EDGE('',*,*,#673,.F.);
#907=ORIENTED_EDGE('',*,*,#636,.T.);
#908=ORIENTED_EDGE('',*,*,#657,.F.);
#909=ORIENTED_EDGE('',*,*,#608,.T.);
#910=ORIENTED_EDGE('',*,*,#611,.T.);
#911=ORIENTED_EDGE('',*,*,#614,.T.);
#912=ORIENTED_EDGE('',*,*,#674,.T.);
#913=ORIENTED_EDGE('',*,*,#632,.T.);
#914=ORIENTED_EDGE('',*,*,#675,.T.);
#915=ORIENTED_EDGE('',*,*,#663,.T.);
#916=ORIENTED_EDGE('',*,*,#629,.F.);
#917=ORIENTED_EDGE('',*,*,#670,.F.);
#918=ORIENTED_EDGE('',*,*,#666,.F.);
#919=ORIENTED_EDGE('',*,*,#669,.F.);
#920=ORIENTED_EDGE('',*,*,#676,.T.);
#921=ORIENTED_EDGE('',*,*,#677,.F.);
#922=ORIENTED_EDGE('',*,*,#677,.T.);
#923=ORIENTED_EDGE('',*,*,#678,.T.);
#924=ORIENTED_EDGE('',*,*,#679,.F.);
#925=ORIENTED_EDGE('',*,*,#680,.T.);
#926=ORIENTED_EDGE('',*,*,#681,.T.);
#927=ORIENTED_EDGE('',*,*,#682,.F.);
#928=ORIENTED_EDGE('',*,*,#682,.T.);
#929=ORIENTED_EDGE('',*,*,#683,.T.);
#930=ORIENTED_EDGE('',*,*,#684,.F.);
#931=ORIENTED_EDGE('',*,*,#685,.T.);
#932=ORIENTED_EDGE('',*,*,#661,.F.);
#933=ORIENTED_EDGE('',*,*,#581,.F.);
#934=ORIENTED_EDGE('',*,*,#668,.F.);
#935=ORIENTED_EDGE('',*,*,#585,.F.);
#936=ORIENTED_EDGE('',*,*,#686,.T.);
#937=ORIENTED_EDGE('',*,*,#687,.F.);
#938=ORIENTED_EDGE('',*,*,#687,.T.);
#939=ORIENTED_EDGE('',*,*,#688,.T.);
#940=ORIENTED_EDGE('',*,*,#689,.F.);
#941=ORIENTED_EDGE('',*,*,#690,.T.);
#942=ORIENTED_EDGE('',*,*,#691,.T.);
#943=ORIENTED_EDGE('',*,*,#692,.F.);
#944=ORIENTED_EDGE('',*,*,#692,.T.);
#945=ORIENTED_EDGE('',*,*,#693,.T.);
#946=ORIENTED_EDGE('',*,*,#694,.F.);
#947=ORIENTED_EDGE('',*,*,#695,.T.);
#948=ORIENTED_EDGE('',*,*,#696,.F.);
#949=ORIENTED_EDGE('',*,*,#697,.T.);
#950=ORIENTED_EDGE('',*,*,#698,.F.);
#951=ORIENTED_EDGE('',*,*,#699,.T.);
#952=ORIENTED_EDGE('',*,*,#700,.F.);
#953=ORIENTED_EDGE('',*,*,#701,.T.);
#954=ORIENTED_EDGE('',*,*,#702,.F.);
#955=ORIENTED_EDGE('',*,*,#703,.T.);
#956=ORIENTED_EDGE('',*,*,#704,.F.);
#957=ORIENTED_EDGE('',*,*,#705,.F.);
#958=ORIENTED_EDGE('',*,*,#706,.F.);
#959=ORIENTED_EDGE('',*,*,#697,.F.);
#960=ORIENTED_EDGE('',*,*,#707,.F.);
#961=ORIENTED_EDGE('',*,*,#703,.F.);
#962=ORIENTED_EDGE('',*,*,#708,.F.);
#963=ORIENTED_EDGE('',*,*,#709,.F.);
#964=ORIENTED_EDGE('',*,*,#710,.F.);
#965=ORIENTED_EDGE('',*,*,#699,.F.);
#966=ORIENTED_EDGE('',*,*,#711,.F.);
#967=ORIENTED_EDGE('',*,*,#712,.T.);
#968=ORIENTED_EDGE('',*,*,#713,.F.);
#969=ORIENTED_EDGE('',*,*,#712,.F.);
#970=ORIENTED_EDGE('',*,*,#714,.F.);
#971=ORIENTED_EDGE('',*,*,#705,.T.);
#972=ORIENTED_EDGE('',*,*,#715,.F.);
#973=ORIENTED_EDGE('',*,*,#709,.T.);
#974=ORIENTED_EDGE('',*,*,#716,.F.);
#975=ORIENTED_EDGE('',*,*,#717,.F.);
#976=ORIENTED_EDGE('',*,*,#718,.F.);
#977=ORIENTED_EDGE('',*,*,#717,.T.);
#978=ORIENTED_EDGE('',*,*,#719,.F.);
#979=ORIENTED_EDGE('',*,*,#701,.F.);
#980=ORIENTED_EDGE('',*,*,#683,.F.);
#981=ORIENTED_EDGE('',*,*,#681,.F.);
#982=ORIENTED_EDGE('',*,*,#685,.F.);
#983=ORIENTED_EDGE('',*,*,#720,.F.);
#984=ORIENTED_EDGE('',*,*,#721,.T.);
#985=ORIENTED_EDGE('',*,*,#652,.F.);
#986=ORIENTED_EDGE('',*,*,#721,.F.);
#987=ORIENTED_EDGE('',*,*,#722,.F.);
#988=ORIENTED_EDGE('',*,*,#693,.F.);
#989=ORIENTED_EDGE('',*,*,#691,.F.);
#990=ORIENTED_EDGE('',*,*,#695,.F.);
#991=ORIENTED_EDGE('',*,*,#723,.F.);
#992=ORIENTED_EDGE('',*,*,#715,.T.);
#993=ORIENTED_EDGE('',*,*,#718,.T.);
#994=ORIENTED_EDGE('',*,*,#700,.T.);
#995=ORIENTED_EDGE('',*,*,#707,.T.);
#996=ORIENTED_EDGE('',*,*,#723,.T.);
#997=ORIENTED_EDGE('',*,*,#694,.T.);
#998=ORIENTED_EDGE('',*,*,#722,.T.);
#999=ORIENTED_EDGE('',*,*,#720,.T.);
#1000=ORIENTED_EDGE('',*,*,#684,.T.);
#1001=ORIENTED_EDGE('',*,*,#678,.F.);
#1002=ORIENTED_EDGE('',*,*,#676,.F.);
#1003=ORIENTED_EDGE('',*,*,#680,.F.);
#1004=ORIENTED_EDGE('',*,*,#724,.F.);
#1005=ORIENTED_EDGE('',*,*,#725,.T.);
#1006=ORIENTED_EDGE('',*,*,#653,.F.);
#1007=ORIENTED_EDGE('',*,*,#725,.F.);
#1008=ORIENTED_EDGE('',*,*,#726,.F.);
#1009=ORIENTED_EDGE('',*,*,#688,.F.);
#1010=ORIENTED_EDGE('',*,*,#686,.F.);
#1011=ORIENTED_EDGE('',*,*,#690,.F.);
#1012=ORIENTED_EDGE('',*,*,#727,.F.);
#1013=ORIENTED_EDGE('',*,*,#713,.T.);
#1014=ORIENTED_EDGE('',*,*,#704,.T.);
#1015=ORIENTED_EDGE('',*,*,#696,.T.);
#1016=ORIENTED_EDGE('',*,*,#710,.T.);
#1017=ORIENTED_EDGE('',*,*,#727,.T.);
#1018=ORIENTED_EDGE('',*,*,#689,.T.);
#1019=ORIENTED_EDGE('',*,*,#726,.T.);
#1020=ORIENTED_EDGE('',*,*,#724,.T.);
#1021=ORIENTED_EDGE('',*,*,#679,.T.);
#1022=ORIENTED_EDGE('',*,*,#728,.F.);
#1023=ORIENTED_EDGE('',*,*,#619,.F.);
#1024=ORIENTED_EDGE('',*,*,#729,.T.);
#1025=ORIENTED_EDGE('',*,*,#605,.F.);
#1026=ORIENTED_EDGE('',*,*,#714,.T.);
#1027=ORIENTED_EDGE('',*,*,#711,.T.);
#1028=ORIENTED_EDGE('',*,*,#698,.T.);
#1029=ORIENTED_EDGE('',*,*,#706,.T.);
#1030=ORIENTED_EDGE('',*,*,#729,.F.);
#1031=ORIENTED_EDGE('',*,*,#622,.F.);
#1032=ORIENTED_EDGE('',*,*,#730,.T.);
#1033=ORIENTED_EDGE('',*,*,#602,.F.);
#1034=ORIENTED_EDGE('',*,*,#730,.F.);
#1035=ORIENTED_EDGE('',*,*,#621,.F.);
#1036=ORIENTED_EDGE('',*,*,#731,.T.);
#1037=ORIENTED_EDGE('',*,*,#603,.F.);
#1038=ORIENTED_EDGE('',*,*,#716,.T.);
#1039=ORIENTED_EDGE('',*,*,#708,.T.);
#1040=ORIENTED_EDGE('',*,*,#702,.T.);
#1041=ORIENTED_EDGE('',*,*,#719,.T.);
#1042=ORIENTED_EDGE('',*,*,#731,.F.);
#1043=ORIENTED_EDGE('',*,*,#620,.F.);
#1044=ORIENTED_EDGE('',*,*,#728,.T.);
#1045=ORIENTED_EDGE('',*,*,#604,.F.);
#1046=ORIENTED_EDGE('',*,*,#590,.F.);
#1047=ORIENTED_EDGE('',*,*,#732,.T.);
#1048=ORIENTED_EDGE('',*,*,#671,.T.);
#1049=ORIENTED_EDGE('',*,*,#732,.F.);
#1050=ORIENTED_EDGE('',*,*,#589,.F.);
#1051=ORIENTED_EDGE('',*,*,#733,.T.);
#1052=ORIENTED_EDGE('',*,*,#672,.T.);
#1053=ORIENTED_EDGE('',*,*,#733,.F.);
#1054=PLANE('',#1177);
#1055=PLANE('',#1178);
#1056=PLANE('',#1181);
#1057=PLANE('',#1184);
#1058=PLANE('',#1185);
#1059=PLANE('',#1195);
#1060=PLANE('',#1196);
#1061=PLANE('',#1197);
#1062=PLANE('',#1204);
#1063=PLANE('',#1205);
#1064=PLANE('',#1206);
#1065=PLANE('',#1207);
#1066=PLANE('',#1208);
#1067=PLANE('',#1209);
#1068=PLANE('',#1212);
#1069=PLANE('',#1213);
#1070=PLANE('',#1214);
#1071=PLANE('',#1223);
#1072=PLANE('',#1226);
#1073=PLANE('',#1227);
#1074=PLANE('',#1228);
#1075=PLANE('',#1229);
#1076=PLANE('',#1230);
#1077=PLANE('',#1231);
#1078=PLANE('',#1232);
#1079=PLANE('',#1234);
#1080=PLANE('',#1235);
#1081=PLANE('',#1237);
#1082=PLANE('',#1238);
#1083=PLANE('',#1239);
#1084=PLANE('',#1240);
#1085=PLANE('',#1242);
#1086=PLANE('',#1243);
#1087=PLANE('',#1245);
#1088=PLANE('',#1246);
#1089=PLANE('',#1247);
#1090=PLANE('',#1248);
#1091=PLANE('',#1250);
#1092=PLANE('',#1252);
#1093=PLANE('',#1254);
#1094=PLANE('',#1255);
#1095=PLANE('',#1256);
#1096=PLANE('',#1262);
#1097=PLANE('',#1267);
#1098=PLANE('',#1268);
#1099=PLANE('',#1269);
#1100=PLANE('',#1270);
#1101=PLANE('',#1271);
#1102=ADVANCED_FACE('',(#89),#1054,.T.);
#1103=ADVANCED_FACE('',(#90,#34,#35),#1055,.T.);
#1104=ADVANCED_FACE('',(#91),#1056,.F.);
#1105=ADVANCED_FACE('',(#92),#1057,.T.);
#1106=ADVANCED_FACE('',(#93,#36),#1058,.T.);
#1107=ADVANCED_FACE('',(#94),#23,.F.);
#1108=ADVANCED_FACE('',(#95),#24,.F.);
#1109=ADVANCED_FACE('',(#96),#25,.F.);
#1110=ADVANCED_FACE('',(#97),#1059,.T.);
#1111=ADVANCED_FACE('',(#98),#1060,.T.);
#1112=ADVANCED_FACE('',(#99),#1061,.T.);
#1113=ADVANCED_FACE('',(#100),#26,.T.);
#1114=ADVANCED_FACE('',(#101),#1062,.T.);
#1115=ADVANCED_FACE('',(#102),#1063,.T.);
#1116=ADVANCED_FACE('',(#103),#1064,.T.);
#1117=ADVANCED_FACE('',(#104,#37,#38,#39),#1065,.F.);
#1118=ADVANCED_FACE('',(#105),#1066,.T.);
#1119=ADVANCED_FACE('',(#106,#40,#41),#1067,.T.);
#1120=ADVANCED_FACE('',(#107),#1068,.T.);
#1121=ADVANCED_FACE('',(#108),#1069,.F.);
#1122=ADVANCED_FACE('',(#109),#1070,.F.);
#1123=ADVANCED_FACE('',(#110),#27,.T.);
#1124=ADVANCED_FACE('',(#111),#28,.T.);
#1125=ADVANCED_FACE('',(#112),#29,.T.);
#1126=ADVANCED_FACE('',(#113,#42,#43),#1071,.F.);
#1127=ADVANCED_FACE('',(#114),#1072,.T.);
#1128=ADVANCED_FACE('',(#115,#44,#45,#46),#1073,.T.);
#1129=ADVANCED_FACE('',(#116),#1074,.T.);
#1130=ADVANCED_FACE('',(#117),#1075,.T.);
#1131=ADVANCED_FACE('',(#118),#1076,.T.);
#1132=ADVANCED_FACE('',(#119),#1077,.T.);
#1133=ADVANCED_FACE('',(#120),#1078,.F.);
#1134=ADVANCED_FACE('',(#121),#1079,.F.);
#1135=ADVANCED_FACE('',(#122),#1080,.F.);
#1136=ADVANCED_FACE('',(#123),#1081,.F.);
#1137=ADVANCED_FACE('',(#124),#1082,.T.);
#1138=ADVANCED_FACE('',(#125),#1083,.T.);
#1139=ADVANCED_FACE('',(#126),#1084,.F.);
#1140=ADVANCED_FACE('',(#127),#1085,.T.);
#1141=ADVANCED_FACE('',(#128),#1086,.F.);
#1142=ADVANCED_FACE('',(#129),#1087,.T.);
#1143=ADVANCED_FACE('',(#130),#1088,.F.);
#1144=ADVANCED_FACE('',(#131),#1089,.F.);
#1145=ADVANCED_FACE('',(#132),#1090,.F.);
#1146=ADVANCED_FACE('',(#133),#1091,.F.);
#1147=ADVANCED_FACE('',(#134),#1092,.F.);
#1148=ADVANCED_FACE('',(#135),#1093,.F.);
#1149=ADVANCED_FACE('',(#136),#1094,.F.);
#1150=ADVANCED_FACE('',(#137),#1095,.F.);
#1151=ADVANCED_FACE('',(#138,#47),#30,.F.);
#1152=ADVANCED_FACE('',(#139),#1096,.T.);
#1153=ADVANCED_FACE('',(#140,#48),#31,.F.);
#1154=ADVANCED_FACE('',(#141),#1097,.T.);
#1155=ADVANCED_FACE('',(#142,#49),#1098,.T.);
#1156=ADVANCED_FACE('',(#143),#1099,.T.);
#1157=ADVANCED_FACE('',(#144,#50),#1100,.T.);
#1158=ADVANCED_FACE('',(#145),#1101,.T.);
#1159=ADVANCED_FACE('',(#146),#32,.F.);
#1160=ADVANCED_FACE('',(#147),#33,.F.);
#1161=CLOSED_SHELL('',(#1102,#1103,#1104,#1105,#1106,#1107,#1108,#1109,
#1110,#1111,#1112,#1113,#1114,#1115,#1116,#1117,#1118,#1119,#1120,#1121,
#1122,#1123,#1124,#1125,#1126,#1127,#1128,#1129,#1130,#1131,#1132,#1133,
#1134,#1135,#1136,#1137,#1138,#1139,#1140,#1141,#1142,#1143,#1144,#1145,
#1146,#1147,#1148,#1149,#1150,#1151,#1152,#1153,#1154,#1155,#1156,#1157,
#1158,#1159,#1160));
#1162=DERIVED_UNIT_ELEMENT(#1164,1.);
#1163=DERIVED_UNIT_ELEMENT(#1941,-3.);
#1164=(
MASS_UNIT()
NAMED_UNIT(*)
SI_UNIT(.KILO.,.GRAM.)
);
#1165=DERIVED_UNIT((#1162,#1163));
#1166=MEASURE_REPRESENTATION_ITEM('density measure',
POSITIVE_RATIO_MEASURE(7850.),#1165);
#1167=PROPERTY_DEFINITION_REPRESENTATION(#1172,#1169);
#1168=PROPERTY_DEFINITION_REPRESENTATION(#1173,#1170);
#1169=REPRESENTATION('material name',(#1171),#1938);
#1170=REPRESENTATION('density',(#1166),#1938);
#1171=DESCRIPTIVE_REPRESENTATION_ITEM('Steel','Steel');
#1172=PROPERTY_DEFINITION('material property','material name',#1958);
#1173=PROPERTY_DEFINITION('material property','density of part',#1958);
#1174=AXIS2_PLACEMENT_3D('',#1602,#1276,#1277);
#1175=AXIS2_PLACEMENT_3D('',#1603,#1278,#1279);
#1176=AXIS2_PLACEMENT_3D('',#1604,#1280,#1281);
#1177=AXIS2_PLACEMENT_3D('',#1605,#1282,#1283);
#1178=AXIS2_PLACEMENT_3D('',#1614,#1288,#1289);
#1179=AXIS2_PLACEMENT_3D('',#1637,#1301,#1302);
#1180=AXIS2_PLACEMENT_3D('',#1639,#1303,#1304);
#1181=AXIS2_PLACEMENT_3D('',#1640,#1305,#1306);
#1182=AXIS2_PLACEMENT_3D('',#1646,#1310,#1311);
#1183=AXIS2_PLACEMENT_3D('',#1647,#1312,#1313);
#1184=AXIS2_PLACEMENT_3D('',#1648,#1314,#1315);
#1185=AXIS2_PLACEMENT_3D('',#1657,#1320,#1321);
#1186=AXIS2_PLACEMENT_3D('',#1668,#1328,#1329);
#1187=AXIS2_PLACEMENT_3D('',#1670,#1330,#1331);
#1188=AXIS2_PLACEMENT_3D('',#1673,#1333,#1334);
#1189=AXIS2_PLACEMENT_3D('',#1674,#1335,#1336);
#1190=AXIS2_PLACEMENT_3D('',#1676,#1337,#1338);
#1191=AXIS2_PLACEMENT_3D('',#1679,#1340,#1341);
#1192=AXIS2_PLACEMENT_3D('',#1680,#1342,#1343);
#1193=AXIS2_PLACEMENT_3D('',#1682,#1344,#1345);
#1194=AXIS2_PLACEMENT_3D('',#1685,#1347,#1348);
#1195=AXIS2_PLACEMENT_3D('',#1686,#1349,#1350);
#1196=AXIS2_PLACEMENT_3D('',#1695,#1355,#1356);
#1197=AXIS2_PLACEMENT_3D('',#1704,#1361,#1362);
#1198=AXIS2_PLACEMENT_3D('',#1707,#1363,#1364);
#1199=AXIS2_PLACEMENT_3D('',#1711,#1366,#1367);
#1200=AXIS2_PLACEMENT_3D('',#1713,#1369,#1370);
#1201=AXIS2_PLACEMENT_3D('',#1716,#1371,#1372);
#1202=AXIS2_PLACEMENT_3D('',#1720,#1374,#1375);
#1203=AXIS2_PLACEMENT_3D('',#1725,#1378,#1379);
#1204=AXIS2_PLACEMENT_3D('',#1727,#1381,#1382);
#1205=AXIS2_PLACEMENT_3D('',#1735,#1387,#1388);
#1206=AXIS2_PLACEMENT_3D('',#1746,#1394,#1395);
#1207=AXIS2_PLACEMENT_3D('',#1751,#1399,#1400);
#1208=AXIS2_PLACEMENT_3D('',#1754,#1403,#1404);
#1209=AXIS2_PLACEMENT_3D('',#1760,#1408,#1409);
#1210=AXIS2_PLACEMENT_3D('',#1763,#1411,#1412);
#1211=AXIS2_PLACEMENT_3D('',#1765,#1413,#1414);
#1212=AXIS2_PLACEMENT_3D('',#1766,#1415,#1416);
#1213=AXIS2_PLACEMENT_3D('',#1770,#1419,#1420);
#1214=AXIS2_PLACEMENT_3D('',#1773,#1423,#1424);
#1215=AXIS2_PLACEMENT_3D('',#1778,#1427,#1428);
#1216=AXIS2_PLACEMENT_3D('',#1779,#1429,#1430);
#1217=AXIS2_PLACEMENT_3D('',#1780,#1431,#1432);
#1218=AXIS2_PLACEMENT_3D('',#1781,#1433,#1434);
#1219=AXIS2_PLACEMENT_3D('',#1785,#1436,#1437);
#1220=AXIS2_PLACEMENT_3D('',#1790,#1440,#1441);
#1221=AXIS2_PLACEMENT_3D('',#1792,#1443,#1444);
#1222=AXIS2_PLACEMENT_3D('',#1793,#1445,#1446);
#1223=AXIS2_PLACEMENT_3D('',#1794,#1447,#1448);
#1224=AXIS2_PLACEMENT_3D('',#1798,#1451,#1452);
#1225=AXIS2_PLACEMENT_3D('',#1800,#1453,#1454);
#1226=AXIS2_PLACEMENT_3D('',#1801,#1455,#1456);
#1227=AXIS2_PLACEMENT_3D('',#1803,#1458,#1459);
#1228=AXIS2_PLACEMENT_3D('',#1806,#1462,#1463);
#1229=AXIS2_PLACEMENT_3D('',#1807,#1464,#1465);
#1230=AXIS2_PLACEMENT_3D('',#1808,#1466,#1467);
#1231=AXIS2_PLACEMENT_3D('',#1809,#1468,#1469);
#1232=AXIS2_PLACEMENT_3D('',#1810,#1470,#1471);
#1233=AXIS2_PLACEMENT_3D('',#1813,#1472,#1473);
#1234=AXIS2_PLACEMENT_3D('',#1815,#1475,#1476);
#1235=AXIS2_PLACEMENT_3D('',#1821,#1480,#1481);
#1236=AXIS2_PLACEMENT_3D('',#1824,#1482,#1483);
#1237=AXIS2_PLACEMENT_3D('',#1826,#1485,#1486);
#1238=AXIS2_PLACEMENT_3D('',#1832,#1490,#1491);
#1239=AXIS2_PLACEMENT_3D('',#1833,#1492,#1493);
#1240=AXIS2_PLACEMENT_3D('',#1834,#1494,#1495);
#1241=AXIS2_PLACEMENT_3D('',#1837,#1496,#1497);
#1242=AXIS2_PLACEMENT_3D('',#1839,#1499,#1500);
#1243=AXIS2_PLACEMENT_3D('',#1845,#1504,#1505);
#1244=AXIS2_PLACEMENT_3D('',#1848,#1506,#1507);
#1245=AXIS2_PLACEMENT_3D('',#1850,#1509,#1510);
#1246=AXIS2_PLACEMENT_3D('',#1856,#1514,#1515);
#1247=AXIS2_PLACEMENT_3D('',#1865,#1520,#1521);
#1248=AXIS2_PLACEMENT_3D('',#1874,#1526,#1527);
#1249=AXIS2_PLACEMENT_3D('',#1876,#1528,#1529);
#1250=AXIS2_PLACEMENT_3D('',#1880,#1532,#1533);
#1251=AXIS2_PLACEMENT_3D('',#1882,#1534,#1535);
#1252=AXIS2_PLACEMENT_3D('',#1886,#1538,#1539);
#1253=AXIS2_PLACEMENT_3D('',#1888,#1540,#1541);
#1254=AXIS2_PLACEMENT_3D('',#1892,#1544,#1545);
#1255=AXIS2_PLACEMENT_3D('',#1895,#1548,#1549);
#1256=AXIS2_PLACEMENT_3D('',#1901,#1553,#1554);
#1257=AXIS2_PLACEMENT_3D('',#1902,#1555,#1556);
#1258=AXIS2_PLACEMENT_3D('',#1904,#1558,#1559);
#1259=AXIS2_PLACEMENT_3D('',#1906,#1560,#1561);
#1260=AXIS2_PLACEMENT_3D('',#1908,#1563,#1564);
#1261=AXIS2_PLACEMENT_3D('',#1909,#1565,#1566);
#1262=AXIS2_PLACEMENT_3D('',#1910,#1567,#1568);
#1263=AXIS2_PLACEMENT_3D('',#1911,#1569,#1570);
#1264=AXIS2_PLACEMENT_3D('',#1913,#1571,#1572);
#1265=AXIS2_PLACEMENT_3D('',#1915,#1574,#1575);
#1266=AXIS2_PLACEMENT_3D('',#1916,#1576,#1577);
#1267=AXIS2_PLACEMENT_3D('',#1917,#1578,#1579);
#1268=AXIS2_PLACEMENT_3D('',#1918,#1580,#1581);
#1269=AXIS2_PLACEMENT_3D('',#1921,#1584,#1585);
#1270=AXIS2_PLACEMENT_3D('',#1923,#1587,#1588);
#1271=AXIS2_PLACEMENT_3D('',#1925,#1590,#1591);
#1272=AXIS2_PLACEMENT_3D('',#1926,#1592,#1593);
#1273=AXIS2_PLACEMENT_3D('',#1928,#1595,#1596);
#1274=AXIS2_PLACEMENT_3D('',#1930,#1598,#1599);
#1275=AXIS2_PLACEMENT_3D('',#1931,#1600,#1601);
#1276=DIRECTION('axis',(0.,0.,1.));
#1277=DIRECTION('refdir',(1.,0.,0.));
#1278=DIRECTION('axis',(0.,0.,1.));
#1279=DIRECTION('refdir',(1.,0.,0.));
#1280=DIRECTION('axis',(0.,0.,1.));
#1281=DIRECTION('refdir',(1.,0.,0.));
#1282=DIRECTION('center_axis',(0.,1.,0.));
#1283=DIRECTION('ref_axis',(-1.,0.,0.));
#1284=DIRECTION('',(1.61825358702547E-15,0.,1.));
#1285=DIRECTION('',(-1.,0.,0.));
#1286=DIRECTION('',(0.,0.,-1.));
#1287=DIRECTION('',(1.,0.,0.));
#1288=DIRECTION('center_axis',(0.,0.,1.));
#1289=DIRECTION('ref_axis',(1.,0.,0.));
#1290=DIRECTION('',(-1.54853907474717E-11,-1.,0.));
#1291=DIRECTION('',(-1.,3.40367057321126E-16,1.07449998762328E-27));
#1292=DIRECTION('',(5.6824995240285E-11,1.,-6.93881330595071E-17));
#1293=DIRECTION('',(1.,0.,0.));
#1294=DIRECTION('',(-5.68240580233214E-11,1.,-6.57637142888968E-17));
#1295=DIRECTION('',(1.,1.11022302463988E-16,0.));
#1296=DIRECTION('',(5.68249952402851E-11,1.,-6.93881330595072E-17));
#1297=DIRECTION('',(1.,0.,0.));
#1298=DIRECTION('',(5.68242666648879E-11,-1.,6.93881330595072E-17));
#1299=DIRECTION('',(1.,1.11022302463988E-16,0.));
#1300=DIRECTION('',(-5.97879514393883E-17,1.,0.));
#1301=DIRECTION('center_axis',(0.,0.,-1.));
#1302=DIRECTION('ref_axis',(1.,0.,0.));
#1303=DIRECTION('center_axis',(0.,0.,-1.));
#1304=DIRECTION('ref_axis',(1.,0.,0.));
#1305=DIRECTION('center_axis',(-3.40367057321126E-16,-1.,-9.18826143095437E-17));
#1306=DIRECTION('ref_axis',(1.,-3.40367057321126E-16,-1.61825358702129E-15));
#1307=DIRECTION('',(1.61825358702129E-15,-2.6999180136135E-16,1.));
#1308=DIRECTION('',(-1.,-1.90257713351536E-16,1.61825358702129E-15));
#1309=DIRECTION('',(0.,0.,1.));
#1310=DIRECTION('center_axis',(-1.11022302463988E-16,1.,-9.30958847300295E-18));
#1311=DIRECTION('ref_axis',(1.,1.11022302463988E-16,-1.65844290755278E-25));
#1312=DIRECTION('center_axis',(3.40367057321126E-16,1.,9.18826143095437E-17));
#1313=DIRECTION('ref_axis',(1.,-3.40367057321126E-16,-5.14268185525802E-26));
#1314=DIRECTION('center_axis',(-4.21474719704915E-16,-1.,0.));
#1315=DIRECTION('ref_axis',(1.,-4.21474719704915E-16,-1.61825358702129E-15));
#1316=DIRECTION('',(-1.,4.21474719704915E-16,1.61825358702129E-15));
#1317=DIRECTION('',(0.,0.,1.));
#1318=DIRECTION('',(1.,-4.21474719704915E-16,-1.61825358702129E-15));
#1319=DIRECTION('',(0.,0.,1.));
#1320=DIRECTION('center_axis',(0.,0.,1.));
#1321=DIRECTION('ref_axis',(1.,0.,0.));
#1322=DIRECTION('',(-1.31527428577794E-16,1.,0.));
#1323=DIRECTION('',(0.,-1.,0.));
#1324=DIRECTION('',(1.,2.77555756156289E-16,-1.61825358702129E-15));
#1325=DIRECTION('',(1.11022302462516E-15,-1.,-1.79662239199328E-30));
#1326=DIRECTION('',(-1.,0.,1.61825358702129E-15));
#1327=DIRECTION('',(0.,1.,0.));
#1328=DIRECTION('center_axis',(0.,0.,-1.));
#1329=DIRECTION('ref_axis',(-1.,-2.2204460494347E-16,0.));
#1330=DIRECTION('center_axis',(0.,0.,-1.));
#1331=DIRECTION('ref_axis',(-1.,-2.2204460494347E-16,0.));
#1332=DIRECTION('',(0.,0.,-1.));
#1333=DIRECTION('center_axis',(0.,0.,1.));
#1334=DIRECTION('ref_axis',(-1.,-2.2204460494347E-16,0.));
#1335=DIRECTION('center_axis',(0.,0.,-1.));
#1336=DIRECTION('ref_axis',(-1.,-2.2204460494347E-16,0.));
#1337=DIRECTION('center_axis',(0.,0.,-1.));
#1338=DIRECTION('ref_axis',(-1.,-2.2204460494347E-16,0.));
#1339=DIRECTION('',(0.,0.,-1.));
#1340=DIRECTION('center_axis',(0.,0.,1.));
#1341=DIRECTION('ref_axis',(-1.,-2.2204460494347E-16,0.));
#1342=DIRECTION('center_axis',(0.,0.,-1.));
#1343=DIRECTION('ref_axis',(-1.,-2.2204460494347E-16,0.));
#1344=DIRECTION('center_axis',(0.,0.,-1.));
#1345=DIRECTION('ref_axis',(-1.,-2.2204460494347E-16,0.));
#1346=DIRECTION('',(0.,0.,-1.));
#1347=DIRECTION('center_axis',(0.,0.,1.));
#1348=DIRECTION('ref_axis',(-1.,-2.2204460494347E-16,0.));
#1349=DIRECTION('center_axis',(-1.63063411996982E-15,-1.64409285722242E-17,
-1.));
#1350=DIRECTION('ref_axis',(-1.,-1.11022302480952E-16,1.63063411996982E-15));
#1351=DIRECTION('',(0.,-1.,1.64409285722242E-17));
#1352=DIRECTION('',(1.,-4.21474719708053E-16,-1.63063411996982E-15));
#1353=DIRECTION('',(0.,1.,-1.64409285722242E-17));
#1354=DIRECTION('',(-1.,-1.11022302480952E-16,1.63063411996982E-15));
#1355=DIRECTION('center_axis',(0.,0.,1.));
#1356=DIRECTION('ref_axis',(1.,4.20657147835617E-16,0.));
#1357=DIRECTION('',(0.,-1.,0.));
#1358=DIRECTION('',(1.,0.,0.));
#1359=DIRECTION('',(-1.11022302462516E-15,1.,0.));
#1360=DIRECTION('',(-1.,-2.77555756156289E-16,0.));
#1361=DIRECTION('center_axis',(-2.2204460494347E-16,1.,0.));
#1362=DIRECTION('ref_axis',(1.,2.2204460494347E-16,7.27420601018367E-17));
#1363=DIRECTION('center_axis',(-2.2204460494347E-16,1.,0.));
#1364=DIRECTION('ref_axis',(1.,2.2204460494347E-16,-1.939860512067E-25));
#1365=DIRECTION('',(-1.,-2.2204460494347E-16,-7.27420601018367E-17));
#1366=DIRECTION('center_axis',(-2.2204460494347E-16,1.,0.));
#1367=DIRECTION('ref_axis',(1.,2.2204460494347E-16,-1.93986053033876E-25));
#1368=DIRECTION('',(-1.,-2.2204460494347E-16,0.));
#1369=DIRECTION('center_axis',(5.26109714311175E-16,1.,-2.53478446565758E-10));
#1370=DIRECTION('ref_axis',(1.,-5.26109714311175E-16,-4.34505839774624E-27));
#1371=DIRECTION('center_axis',(-2.2204460494347E-16,1.,0.));
#1372=DIRECTION('ref_axis',(1.,2.2204460494347E-16,-1.93986053033876E-25));
#1373=DIRECTION('',(1.50454011360397E-10,-1.,2.30105261161577E-17));
#1374=DIRECTION('center_axis',(0.,-1.,0.));
#1375=DIRECTION('ref_axis',(1.,0.,-1.37702531504498E-25));
#1376=DIRECTION('',(1.50455121570526E-10,1.,-2.30105261242356E-17));
#1377=DIRECTION('',(-9.89994752842439E-10,-1.,0.));
#1378=DIRECTION('center_axis',(-4.21474719294722E-16,-1.,2.53478446565758E-10));
#1379=DIRECTION('ref_axis',(1.,-4.21474719294723E-16,-3.08677743909324E-26));
#1380=DIRECTION('',(-9.89994752842444E-10,1.,0.));
#1381=DIRECTION('center_axis',(-1.,0.,0.));
#1382=DIRECTION('ref_axis',(0.,0.,1.));
#1383=DIRECTION('',(0.,1.,0.));
#1384=DIRECTION('',(0.,0.,1.));
#1385=DIRECTION('',(0.,1.,0.));
#1386=DIRECTION('',(0.,0.,1.));
#1387=DIRECTION('center_axis',(1.,0.,0.));
#1388=DIRECTION('ref_axis',(0.,0.,-1.));
#1389=DIRECTION('',(-2.23805205877938E-16,1.,2.04089570368302E-31));
#1390=DIRECTION('',(2.70068400239623E-16,-1.,0.));
#1391=DIRECTION('',(0.,0.,-1.));
#1392=DIRECTION('',(0.,1.,0.));
#1393=DIRECTION('',(0.,0.,-1.));
#1394=DIRECTION('center_axis',(-1.,2.66055916359626E-32,1.61825358702129E-15));
#1395=DIRECTION('ref_axis',(1.61825358702129E-15,-2.6999180136135E-16,1.));
#1396=DIRECTION('',(1.61825358702129E-15,-2.6999180136135E-16,1.));
#1397=DIRECTION('',(1.54853907474717E-11,1.,0.));
#1398=DIRECTION('',(1.61825358702129E-15,-2.6999180136135E-16,1.));
#1399=DIRECTION('center_axis',(0.,0.,-1.));
#1400=DIRECTION('ref_axis',(-1.,0.,0.));
#1401=DIRECTION('',(1.,-4.21474719708053E-16,-1.63063411996982E-15));
#1402=DIRECTION('',(-1.,0.,0.));
#1403=DIRECTION('center_axis',(-1.63063411996982E-15,-1.60854834563133E-31,
-1.));
#1404=DIRECTION('ref_axis',(-1.,-1.11022302480952E-16,1.63063411996982E-15));
#1405=DIRECTION('',(-1.,-1.11022302480952E-16,1.63063411996982E-15));
#1406=DIRECTION('',(-9.86455714333453E-17,1.,0.));
#1407=DIRECTION('',(1.,-4.21474719708053E-16,-1.63063411996982E-15));
#1408=DIRECTION('center_axis',(-4.21474719294722E-16,-1.,2.53478446565758E-10));
#1409=DIRECTION('ref_axis',(1.,-4.21474719294722E-16,-3.08677743909324E-26));
#1410=DIRECTION('',(-1.61825358702129E-15,-9.30958847300295E-18,-1.));
#1411=DIRECTION('center_axis',(4.21474719294722E-16,1.,-2.53478446565758E-10));
#1412=DIRECTION('ref_axis',(1.,-4.21474719294722E-16,-3.08677743909324E-26));
#1413=DIRECTION('center_axis',(4.21474719294722E-16,1.,-2.53478446565758E-10));
#1414=DIRECTION('ref_axis',(1.,-4.21474719294722E-16,-3.08677743909324E-26));
#1415=DIRECTION('center_axis',(1.,9.86455714333453E-17,-1.61825358702129E-15));
#1416=DIRECTION('ref_axis',(-1.61825358702129E-15,-9.30958847300295E-18,
-1.));
#1417=DIRECTION('',(-1.61825358702129E-15,-9.30958847300295E-18,-1.));
#1418=DIRECTION('',(5.97879514393883E-17,-1.,0.));
#1419=DIRECTION('center_axis',(-3.40367057321126E-16,-1.,-9.18826143095437E-17));
#1420=DIRECTION('ref_axis',(1.,-3.40367057321126E-16,-1.61825358702129E-15));
#1421=DIRECTION('',(-1.,3.40367057321126E-16,0.));
#1422=DIRECTION('',(-1.,-2.2204460494347E-16,-7.27420601018367E-17));
#1423=DIRECTION('center_axis',(1.11022302463988E-16,-1.,9.30958847300295E-18));
#1424=DIRECTION('ref_axis',(1.,1.11022302463988E-16,-1.61825358702129E-15));
#1425=DIRECTION('',(-1.,-1.11022302463988E-16,0.));
#1426=DIRECTION('',(-1.,0.,0.));
#1427=DIRECTION('center_axis',(-2.2204460494347E-16,1.,0.));
#1428=DIRECTION('ref_axis',(1.,2.2204460494347E-16,-1.939860512067E-25));
#1429=DIRECTION('center_axis',(5.26109714311175E-16,1.,-2.53478446565758E-10));
#1430=DIRECTION('ref_axis',(1.,-5.26109714311175E-16,-4.34505839774624E-27));
#1431=DIRECTION('center_axis',(0.,-1.,0.));
#1432=DIRECTION('ref_axis',(1.,0.,-1.37702531504498E-25));
#1433=DIRECTION('center_axis',(3.94582285733381E-16,1.,-2.5347844372641E-10));
#1434=DIRECTION('ref_axis',(1.,-3.94582285733381E-16,-3.76844265980771E-26));
#1435=DIRECTION('',(-9.89994752842448E-10,-1.,0.));
#1436=DIRECTION('center_axis',(-4.21474719294722E-16,-1.,2.53478446565758E-10));
#1437=DIRECTION('ref_axis',(1.,-4.21474719294723E-16,-3.08677743909324E-26));
#1438=DIRECTION('',(-9.89994752842444E-10,1.,0.));
#1439=DIRECTION('',(-1.50453962495281E-10,1.,-2.11636891159404E-25));
#1440=DIRECTION('center_axis',(0.,-1.,0.));
#1441=DIRECTION('ref_axis',(1.,0.,-1.37702530307784E-25));
#1442=DIRECTION('',(1.50454531771395E-10,1.,-2.01711774437314E-17));
#1443=DIRECTION('center_axis',(3.94582285733381E-16,1.,-2.5347844372641E-10));
#1444=DIRECTION('ref_axis',(1.,-3.94582285733381E-16,-3.76844265980771E-26));
#1445=DIRECTION('center_axis',(0.,-1.,0.));
#1446=DIRECTION('ref_axis',(1.,0.,-1.37702530307784E-25));
#1447=DIRECTION('center_axis',(0.,0.,1.));
#1448=DIRECTION('ref_axis',(1.,0.,0.));
#1449=DIRECTION('',(-1.,0.,0.));
#1450=DIRECTION('',(-1.,0.,0.));
#1451=DIRECTION('center_axis',(0.,0.,-1.));
#1452=DIRECTION('ref_axis',(1.,0.,0.));
#1453=DIRECTION('center_axis',(0.,0.,-1.));
#1454=DIRECTION('ref_axis',(1.,0.,0.));
#1455=DIRECTION('center_axis',(2.2204460494347E-16,-1.,0.));
#1456=DIRECTION('ref_axis',(-1.,-2.2204460494347E-16,-7.27420601018367E-17));
#1457=DIRECTION('',(1.,0.,0.));
#1458=DIRECTION('center_axis',(0.,0.,-1.));
#1459=DIRECTION('ref_axis',(-1.,0.,0.));
#1460=DIRECTION('',(-1.,4.21474719294722E-16,0.));
#1461=DIRECTION('',(-1.,4.21474719294722E-16,0.));
#1462=DIRECTION('center_axis',(-4.21474719294722E-16,-1.,2.53478446565758E-10));
#1463=DIRECTION('ref_axis',(1.,-4.21474719294722E-16,-3.08677743909324E-26));
#1464=DIRECTION('center_axis',(-4.21474719294722E-16,-1.,2.53478446565758E-10));
#1465=DIRECTION('ref_axis',(1.,-4.21474719294722E-16,-3.08677743909324E-26));
#1466=DIRECTION('center_axis',(0.,1.,0.));
#1467=DIRECTION('ref_axis',(-1.,0.,0.));
#1468=DIRECTION('center_axis',(0.,1.,0.));
#1469=DIRECTION('ref_axis',(-1.,0.,0.));
#1470=DIRECTION('center_axis',(0.,1.,0.));
#1471=DIRECTION('ref_axis',(-1.,0.,0.));
#1472=DIRECTION('center_axis',(-4.21474719294722E-16,-1.,2.53478446565758E-10));
#1473=DIRECTION('ref_axis',(1.,-4.21474719294722E-16,-3.08677743909324E-26));
#1474=DIRECTION('',(1.,0.,0.));
#1475=DIRECTION('center_axis',(0.,0.,1.));
#1476=DIRECTION('ref_axis',(1.,0.,0.));
#1477=DIRECTION('',(-5.26109714311175E-16,-1.,2.53478446565758E-10));
#1478=DIRECTION('',(1.,0.,0.));
#1479=DIRECTION('',(5.26109714311175E-16,1.,-2.53478446565758E-10));
#1480=DIRECTION('center_axis',(0.,1.,0.));
#1481=DIRECTION('ref_axis',(-1.,0.,0.));
#1482=DIRECTION('center_axis',(-4.21474719294722E-16,-1.,2.53478446565758E-10));
#1483=DIRECTION('ref_axis',(1.,-4.21474719294722E-16,-3.08677743909324E-26));
#1484=DIRECTION('',(1.,0.,0.));
#1485=DIRECTION('center_axis',(0.,0.,1.));
#1486=DIRECTION('ref_axis',(1.,0.,0.));
#1487=DIRECTION('',(-3.94582285733381E-16,-1.,2.5347844372641E-10));
#1488=DIRECTION('',(1.,0.,0.));
#1489=DIRECTION('',(3.94582285733381E-16,1.,-2.5347844372641E-10));
#1490=DIRECTION('center_axis',(0.,1.,0.));
#1491=DIRECTION('ref_axis',(-1.,0.,0.));
#1492=DIRECTION('center_axis',(0.,1.,0.));
#1493=DIRECTION('ref_axis',(-1.,0.,0.));
#1494=DIRECTION('center_axis',(0.,1.,0.));
#1495=DIRECTION('ref_axis',(-1.,0.,0.));
#1496=DIRECTION('center_axis',(-4.21474719294722E-16,-1.,2.53478446565758E-10));
#1497=DIRECTION('ref_axis',(1.,-4.21474719294722E-16,-3.08677743909324E-26));
#1498=DIRECTION('',(-1.,0.,0.));
#1499=DIRECTION('center_axis',(0.,0.,1.));
#1500=DIRECTION('ref_axis',(1.,0.,0.));
#1501=DIRECTION('',(-5.26109714311175E-16,-1.,2.53478446565758E-10));
#1502=DIRECTION('',(-1.,0.,0.));
#1503=DIRECTION('',(5.26109714311175E-16,1.,-2.53478446565758E-10));
#1504=DIRECTION('center_axis',(0.,1.,0.));
#1505=DIRECTION('ref_axis',(-1.,0.,0.));
#1506=DIRECTION('center_axis',(-4.21474719294722E-16,-1.,2.53478446565758E-10));
#1507=DIRECTION('ref_axis',(1.,-4.21474719294722E-16,-3.08677743909324E-26));
#1508=DIRECTION('',(-1.,0.,0.));
#1509=DIRECTION('center_axis',(0.,0.,1.));
#1510=DIRECTION('ref_axis',(1.,0.,0.));
#1511=DIRECTION('',(-3.94582285733381E-16,-1.,2.5347844372641E-10));
#1512=DIRECTION('',(-1.,0.,0.));
#1513=DIRECTION('',(3.94582285733381E-16,1.,-2.5347844372641E-10));
#1514=DIRECTION('center_axis',(0.,-1.38777878078144E-16,-1.));
#1515=DIRECTION('ref_axis',(0.,1.,-1.38777878078144E-16));
#1516=DIRECTION('',(5.26109714311175E-16,1.,-2.53478446565758E-10));
#1517=DIRECTION('',(1.,0.,0.));
#1518=DIRECTION('',(0.,-1.,1.38777878078144E-16));
#1519=DIRECTION('',(-1.,0.,0.));
#1520=DIRECTION('center_axis',(0.,-1.38777878078144E-16,-1.));
#1521=DIRECTION('ref_axis',(0.,1.,-1.38777878078144E-16));
#1522=DIRECTION('',(-3.94582285733381E-16,-1.,2.5347844372641E-10));
#1523=DIRECTION('',(-1.,0.,0.));
#1524=DIRECTION('',(-1.11022302462516E-15,1.,-1.38777878078144E-16));
#1525=DIRECTION('',(1.,0.,0.));
#1526=DIRECTION('center_axis',(0.,-1.,0.));
#1527=DIRECTION('ref_axis',(0.,0.,-1.));
#1528=DIRECTION('center_axis',(0.,1.,0.));
#1529=DIRECTION('ref_axis',(1.,0.,-1.37702531504498E-25));
#1530=DIRECTION('',(-1.,0.,0.));
#1531=DIRECTION('',(0.,0.,1.));
#1532=DIRECTION('center_axis',(0.,-1.,0.));
#1533=DIRECTION('ref_axis',(0.,0.,-1.));
#1534=DIRECTION('center_axis',(0.,1.,0.));
#1535=DIRECTION('ref_axis',(1.,0.,-1.37702530307784E-25));
#1536=DIRECTION('',(0.,0.,-1.));
#1537=DIRECTION('',(-1.,0.,0.));
#1538=DIRECTION('center_axis',(0.,1.,0.));
#1539=DIRECTION('ref_axis',(0.,0.,1.));
#1540=DIRECTION('center_axis',(0.,-1.,0.));
#1541=DIRECTION('ref_axis',(1.,0.,-1.37702531504498E-25));
#1542=DIRECTION('',(0.,0.,-1.));
#1543=DIRECTION('',(-1.,0.,0.));
#1544=DIRECTION('center_axis',(0.,0.,1.));
#1545=DIRECTION('ref_axis',(0.,-1.,0.));
#1546=DIRECTION('',(-5.26109714311175E-16,-1.,2.53478446565758E-10));
#1547=DIRECTION('',(0.,1.,0.));
#1548=DIRECTION('center_axis',(0.,0.,1.));
#1549=DIRECTION('ref_axis',(0.,-1.,0.));
#1550=DIRECTION('',(3.94582285733381E-16,1.,-2.5347844372641E-10));
#1551=DIRECTION('',(1.11022302462516E-15,-1.,0.));
#1552=DIRECTION('',(-1.,0.,0.));
#1553=DIRECTION('center_axis',(0.,1.,0.));
#1554=DIRECTION('ref_axis',(0.,0.,1.));
#1555=DIRECTION('center_axis',(0.,-1.,0.));
#1556=DIRECTION('ref_axis',(1.,0.,-1.37702530307784E-25));
#1557=DIRECTION('',(0.,0.,1.));
#1558=DIRECTION('center_axis',(3.94582285733381E-16,1.,-2.5347844372641E-10));
#1559=DIRECTION('ref_axis',(1.,-3.94582285733381E-16,-3.76844265980771E-26));
#1560=DIRECTION('center_axis',(0.,-1.,0.));
#1561=DIRECTION('ref_axis',(1.,0.,-1.37702530307784E-25));
#1562=DIRECTION('',(-3.94582285733381E-16,-1.,2.5347844372641E-10));
#1563=DIRECTION('center_axis',(0.,-1.,0.));
#1564=DIRECTION('ref_axis',(1.,0.,-1.37702530307784E-25));
#1565=DIRECTION('center_axis',(0.,-1.,0.));
#1566=DIRECTION('ref_axis',(1.,0.,-1.37702530307784E-25));
#1567=DIRECTION('center_axis',(0.,-1.,0.));
#1568=DIRECTION('ref_axis',(0.,0.,-1.));
#1569=DIRECTION('center_axis',(5.26109714311175E-16,1.,-2.53478446565758E-10));
#1570=DIRECTION('ref_axis',(1.,-5.26109714311175E-16,-4.34505839774623E-27));
#1571=DIRECTION('center_axis',(0.,-1.,0.));
#1572=DIRECTION('ref_axis',(1.,0.,-1.37702531504498E-25));
#1573=DIRECTION('',(-5.26109714311175E-16,-1.,2.53478446565758E-10));
#1574=DIRECTION('center_axis',(0.,-1.,0.));
#1575=DIRECTION('ref_axis',(1.,0.,-1.37702531504498E-25));
#1576=DIRECTION('center_axis',(0.,-1.,0.));
#1577=DIRECTION('ref_axis',(1.,0.,-1.37702531504498E-25));
#1578=DIRECTION('center_axis',(0.,-1.,0.));
#1579=DIRECTION('ref_axis',(0.,0.,-1.));
#1580=DIRECTION('center_axis',(1.,0.,0.));
#1581=DIRECTION('ref_axis',(0.,-1.,0.));
#1582=DIRECTION('',(0.,0.,1.));
#1583=DIRECTION('',(-5.9211894646675E-16,0.,1.));
#1584=DIRECTION('center_axis',(2.77555756156289E-16,-1.,0.));
#1585=DIRECTION('ref_axis',(-1.,-2.77555756156289E-16,0.));
#1586=DIRECTION('',(0.,0.,1.));
#1587=DIRECTION('center_axis',(-1.,-1.11022302462516E-15,0.));
#1588=DIRECTION('ref_axis',(-1.11022302462516E-15,1.,0.));
#1589=DIRECTION('',(0.,0.,1.));
#1590=DIRECTION('center_axis',(0.,1.,0.));
#1591=DIRECTION('ref_axis',(1.,0.,0.));
#1592=DIRECTION('center_axis',(0.,0.,1.));
#1593=DIRECTION('ref_axis',(1.,0.,0.));
#1594=DIRECTION('',(0.,0.,-1.));
#1595=DIRECTION('center_axis',(0.,0.,1.));
#1596=DIRECTION('ref_axis',(1.,0.,0.));
#1597=DIRECTION('',(0.,0.,-1.));
#1598=DIRECTION('',(-2.8142218363307E-26,2.53479866668314E-10,1.));
#1599=DIRECTION('',(1.,2.22044604925034E-16,-3.94430452610506E-31));
#1600=DIRECTION('',(-1.69099564715126E-15,-2.53479866668314E-10,1.));
#1601=DIRECTION('',(1.,-2.22044604925034E-16,1.61825363607017E-15));
#1602=CARTESIAN_POINT('',(0.,0.,0.));
#1603=CARTESIAN_POINT('',(0.,0.,0.));
#1604=CARTESIAN_POINT('',(0.,0.,0.));
#1605=CARTESIAN_POINT('Origin',(4.45517541180452,10.0178221418226,0.));
#1606=CARTESIAN_POINT('',(-29.556527340726,10.0178221418226,1.68493384851263E-16));
#1607=CARTESIAN_POINT('',(-29.556527340726,10.0178221418226,3.5));
#1608=CARTESIAN_POINT('',(-29.556527340726,10.0178221418226,1.75000000000003));
#1609=CARTESIAN_POINT('',(-1.53312183526237,10.0178221418226,3.5));
#1610=CARTESIAN_POINT('',(-35.5448245881955,10.0178221418226,3.5));
#1611=CARTESIAN_POINT('',(-1.53312183526237,10.0178221418226,-1.11022302462516E-15));
#1612=CARTESIAN_POINT('',(-1.53312183526237,10.0178221418226,1.75));
#1613=CARTESIAN_POINT('',(-35.5448245881955,10.0178221418226,0.));
#1614=CARTESIAN_POINT('Origin',(-15.5448245881955,-0.482177858177391,3.5));
#1615=CARTESIAN_POINT('',(-29.5565273411286,-15.9820849358479,3.5));
#1616=CARTESIAN_POINT('',(-29.5565273410086,-8.23213139690507,3.5));
#1617=CARTESIAN_POINT('',(-29.4402758399274,-15.9820849358497,3.5));
#1618=CARTESIAN_POINT('',(-29.2038538253619,-15.9820849358497,3.5));
#1619=CARTESIAN_POINT('',(-29.4402758394477,-13.9820849358185,3.5));
#1620=CARTESIAN_POINT('',(-29.440275839675,-19.9821313960791,3.5));
#1621=CARTESIAN_POINT('',(-20.0727788428095,-13.9820849358185,3.5));
#1622=CARTESIAN_POINT('',(-20.150675964662,-13.9820849358185,3.5));
#1623=CARTESIAN_POINT('',(-20.0727788423298,-15.9820849358497,3.5));
#1624=CARTESIAN_POINT('',(-20.0727788425696,-20.2025849358185,3.5));
#1625=CARTESIAN_POINT('',(-11.0168703340612,-15.9820849358497,3.50000000000001));
#1626=CARTESIAN_POINT('',(-15.5448246540112,-15.9820849358497,3.5));
#1627=CARTESIAN_POINT('',(-11.0168703335815,-13.9820849358185,3.5));
#1628=CARTESIAN_POINT('',(-11.0168703338088,-19.9821313960791,3.5));
#1629=CARTESIAN_POINT('',(-1.64937333694323,-13.9820849358185,3.5));
#1630=CARTESIAN_POINT('',(-10.9389732117289,-13.9820849358185,3.5));
#1631=CARTESIAN_POINT('',(-1.64937333646357,-15.9820849358497,3.5));
#1632=CARTESIAN_POINT('',(-1.64937333671593,-19.9821313960791,3.5));
#1633=CARTESIAN_POINT('',(-1.53312183526237,-15.9820849358497,3.5));
#1634=CARTESIAN_POINT('',(-9.73897327754465,-15.9820849358497,3.5));
#1635=CARTESIAN_POINT('',(-1.53312183526237,-8.23217785817738,3.5));
#1636=CARTESIAN_POINT('',(-7.79482458819548,-0.482177858177393,3.5));
#1637=CARTESIAN_POINT('Origin',(-4.99482458819548,-0.482177858177392,3.5));
#1638=CARTESIAN_POINT('',(-28.8948245881955,-0.482177858177393,3.5));
#1639=CARTESIAN_POINT('Origin',(-26.0948245881955,-0.482177858177392,3.5));
#1640=CARTESIAN_POINT('Origin',(-28.967431811276,-15.9820849358497,0.875000000153266));
#1641=CARTESIAN_POINT('',(-29.5565273411286,-15.9820849358497,7.30000000000001));
#1642=CARTESIAN_POINT('',(-29.5565273411286,-15.9820849358497,-0.699999999999952));
#1643=CARTESIAN_POINT('',(-1.53312183526236,-15.9820849358497,7.29999999999996));
#1644=CARTESIAN_POINT('',(-29.5565273411286,-15.9820849358497,7.30000000000001));
#1645=CARTESIAN_POINT('',(-1.53312183526236,-15.9820849358497,7.24999999999996));
#1646=CARTESIAN_POINT('Origin',(-6.33312183526237,-15.9820849358497,2.44999999786039));
#1647=CARTESIAN_POINT('Origin',(-24.7565273411286,-15.9820849358497,2.44999999786039));
#1648=CARTESIAN_POINT('Origin',(-29.5565273411286,-24.4230849339807,7.25000000000001));
#1649=CARTESIAN_POINT('',(-1.53312183526236,-24.4230849358497,7.24999999999996));
#1650=CARTESIAN_POINT('',(-29.5565273411286,-24.4230849358497,7.25000000000001));
#1651=CARTESIAN_POINT('',(-17.9448245881955,-24.4230849339807,7.24999999999999));
#1652=CARTESIAN_POINT('',(-1.53312183526236,-24.4230849358497,7.29999999999996));
#1653=CARTESIAN_POINT('',(-1.53312183526236,-24.4230849358497,7.24999999999996));
#1654=CARTESIAN_POINT('',(-29.5565273411286,-24.4230849358497,7.30000000000001));
#1655=CARTESIAN_POINT('',(-17.9448245881955,-24.4230849339807,7.29999999999999));
#1656=CARTESIAN_POINT('',(-29.5565273411286,-24.4230849358497,7.25000000000001));
#1657=CARTESIAN_POINT('Origin',(-29.5565273411286,-24.4230849358497,7.29999999999996));
#1658=CARTESIAN_POINT('',(-1.53312183526236,-24.4230849358497,7.29999999999996));
#1659=CARTESIAN_POINT('',(-29.5565273411286,-24.4230849358497,7.30000000000001));
#1660=CARTESIAN_POINT('',(-16.5448245881955,-18.9821778581774,7.3));
#1661=CARTESIAN_POINT('',(-14.5448245881955,-18.9821778581774,7.3));
#1662=CARTESIAN_POINT('',(-22.050675964662,-18.9821778581774,7.29999999999999));
#1663=CARTESIAN_POINT('',(-14.5448245881955,-20.9821778581774,7.3));
#1664=CARTESIAN_POINT('',(-14.5448245881955,-22.7026313970136,7.29999999999998));
#1665=CARTESIAN_POINT('',(-16.5448245881955,-20.9821778581774,7.3));
#1666=CARTESIAN_POINT('',(-23.050675964662,-20.9821778581774,7.3));
#1667=CARTESIAN_POINT('',(-16.5448245881955,-21.7026313970136,7.29999999999999));
#1668=CARTESIAN_POINT('Origin',(-21.5448245881955,-33.9821778581609,-0.7));
#1669=CARTESIAN_POINT('',(-20.5448245881955,-33.9821778581609,-0.7));
#1670=CARTESIAN_POINT('Origin',(-21.5448245881955,-33.9821778581609,-0.7));
#1671=CARTESIAN_POINT('',(-20.5448245881955,-33.9821778581609,-2.2));
#1672=CARTESIAN_POINT('',(-20.5448245881955,-33.9821778581609,-0.7));
#1673=CARTESIAN_POINT('Origin',(-21.5448245881955,-33.9821778581609,-2.2));
#1674=CARTESIAN_POINT('Origin',(-15.5448245881954,-33.9821778581792,-0.7));
#1675=CARTESIAN_POINT('',(-14.5448245881954,-33.9821778581792,-0.7));
#1676=CARTESIAN_POINT('Origin',(-15.5448245881954,-33.9821778581792,-0.7));
#1677=CARTESIAN_POINT('',(-14.5448245881954,-33.9821778581792,-2.2));
#1678=CARTESIAN_POINT('',(-14.5448245881954,-33.9821778581792,-0.7));
#1679=CARTESIAN_POINT('Origin',(-15.5448245881954,-33.9821778581792,-2.2));
#1680=CARTESIAN_POINT('Origin',(-9.54482458819545,-33.982177858185,-0.699999999999999));
#1681=CARTESIAN_POINT('',(-8.54482458819545,-33.9821778581849,-0.699999999999999));
#1682=CARTESIAN_POINT('Origin',(-9.54482458819545,-33.982177858185,-0.7));
#1683=CARTESIAN_POINT('',(-8.54482458819545,-33.9821778581849,-2.2));
#1684=CARTESIAN_POINT('',(-8.54482458819545,-33.982177858185,-0.699999999999999));
#1685=CARTESIAN_POINT('Origin',(-9.54482458819545,-33.982177858185,-2.2));
#1686=CARTESIAN_POINT('Origin',(-28.3783362814235,-24.4230849358497,-0.699999999999953));
#1687=CARTESIAN_POINT('',(-29.5562758394477,-15.9820849358185,-0.7));
#1688=CARTESIAN_POINT('',(-29.5562758394477,-24.4230849359959,-0.7));
#1689=CARTESIAN_POINT('',(-29.5562758394477,-23.9230849358341,-0.699999999999952));
#1690=CARTESIAN_POINT('',(-29.5565273411286,-24.4230849358497,-0.699999999999952));
#1691=CARTESIAN_POINT('',(-17.3557290583429,-24.4230849359959,-0.699999999999972));
#1692=CARTESIAN_POINT('',(-29.5565273411286,-15.9820849358497,-0.699999999999952));
#1693=CARTESIAN_POINT('',(-29.5565273411286,-24.4230849358497,-0.699999999999952));
#1694=CARTESIAN_POINT('',(-1.53312183526238,-15.9820849358497,-0.699999999999997));
#1695=CARTESIAN_POINT('Origin',(-20.6288766774651,-23.4230849358184,0.));
#1696=CARTESIAN_POINT('',(-16.5448245881955,-18.9821778581774,0.));
#1697=CARTESIAN_POINT('',(-16.5448245881955,-20.9821778581774,0.));
#1698=CARTESIAN_POINT('',(-16.5448245881955,-20.9821778581774,0.));
#1699=CARTESIAN_POINT('',(-14.5448245881955,-20.9821778581774,0.));
#1700=CARTESIAN_POINT('',(-19.5448245881955,-20.9821778581774,0.));
#1701=CARTESIAN_POINT('',(-14.5448245881955,-18.9821778581774,0.));
#1702=CARTESIAN_POINT('',(-14.5448245881955,-18.9821778581774,0.));
#1703=CARTESIAN_POINT('',(-19.5448245881955,-18.9821778581774,0.));
#1704=CARTESIAN_POINT('Origin',(-29.4402758394477,-15.9820849358185,3.5));
#1705=CARTESIAN_POINT('',(-7.52370992524144,-15.9820849358185,-2.2));
#1706=CARTESIAN_POINT('',(-10.4607724989259,-15.9820849358184,0.));
#1707=CARTESIAN_POINT('Origin',(-6.33312183526237,-15.9820849358185,2.44999999786039));
#1708=CARTESIAN_POINT('',(-23.5659392511495,-15.9820849358185,-2.2));
#1709=CARTESIAN_POINT('',(-1.64937333694322,-15.9820849358185,-2.2));
#1710=CARTESIAN_POINT('',(-20.6288766774651,-15.9820849358184,2.77555756156289E-16));
#1711=CARTESIAN_POINT('Origin',(-24.7565273411286,-15.9820849358185,2.44999999786039));
#1712=CARTESIAN_POINT('',(-22.4925502138216,-15.9820849358185,0.));
#1713=CARTESIAN_POINT('Origin',(-24.7565273411286,-24.4230849351974,2.45));
#1714=CARTESIAN_POINT('',(-25.9471154311077,-15.9820849358185,-2.2));
#1715=CARTESIAN_POINT('',(-28.8841780046417,-15.9820849358497,0.));
#1716=CARTESIAN_POINT('Origin',(-24.7565273411286,-15.9820849358185,2.44999999786039));
#1717=CARTESIAN_POINT('',(-28.8841780059117,-14.9820849358185,3.45351007668186E-19));
#1718=CARTESIAN_POINT('',(-28.8841780053098,-19.9821313960791,6.76104099907098E-17));
#1719=CARTESIAN_POINT('',(-20.6288766763455,-14.9820849358185,1.6656798879454E-15));
#1720=CARTESIAN_POINT('Origin',(-24.7565273411286,-14.9820849358185,2.44999999760691));
#1721=CARTESIAN_POINT('',(-20.6288766769473,-19.9821313960791,6.76104110569973E-17));
#1722=CARTESIAN_POINT('',(-23.5659392511495,-24.4230849358185,-2.2));
#1723=CARTESIAN_POINT('',(-23.5659392506545,-23.9230849358185,-2.2));
#1724=CARTESIAN_POINT('',(-25.9471154311077,-24.4230849358185,-2.2));
#1725=CARTESIAN_POINT('Origin',(-24.7565273411286,-24.4230849351974,2.45));
#1726=CARTESIAN_POINT('',(-25.9471154316027,-23.9230849358185,-2.2));
#1727=CARTESIAN_POINT('Origin',(-29.5562758394477,-35.9821778581774,3.5));
#1728=CARTESIAN_POINT('',(-29.5562758394477,-35.9821778581774,-0.699999999999999));
#1729=CARTESIAN_POINT('',(-29.5562758394477,-24.4230849358185,-0.7));
#1730=CARTESIAN_POINT('',(-29.5562758394477,-15.9820849358185,-2.2));
#1731=CARTESIAN_POINT('',(-29.5562758394477,-15.9820849358185,3.5));
#1732=CARTESIAN_POINT('',(-29.5562758394477,-35.9821778581774,-2.2));
#1733=CARTESIAN_POINT('',(-29.5562758394477,-23.4230849358185,-2.2));
#1734=CARTESIAN_POINT('',(-29.5562758394477,-35.9821778581774,3.5));
#1735=CARTESIAN_POINT('Origin',(-1.53337333694322,-24.4230849358185,3.5));
#1736=CARTESIAN_POINT('',(-1.53337333694322,-24.4230849359959,-0.7));
#1737=CARTESIAN_POINT('',(-1.53337333694322,-15.9820849358185,-0.699999999999998));
#1738=CARTESIAN_POINT('',(-1.53337333694322,-23.9230849358341,-0.699999999999997));
#1739=CARTESIAN_POINT('',(-1.53337333694321,-35.9821778581774,-0.699999999999997));
#1740=CARTESIAN_POINT('',(-1.53337333694322,-27.3128581664082,-0.7));
#1741=CARTESIAN_POINT('',(-1.53337333694321,-35.9821778581774,-2.2));
#1742=CARTESIAN_POINT('',(-1.53337333694321,-35.9821778581774,3.5));
#1743=CARTESIAN_POINT('',(-1.53337333694322,-15.9820849358185,-2.2));
#1744=CARTESIAN_POINT('',(-1.53337333694322,-24.4230849358185,-2.2));
#1745=CARTESIAN_POINT('',(-1.53337333694322,-15.9820849358185,3.5));
#1746=CARTESIAN_POINT('Origin',(-29.5565273411286,-24.4230849358497,-0.699999999999952));
#1747=CARTESIAN_POINT('',(-29.5565273411286,-24.4230849358497,-0.699999999999952));
#1748=CARTESIAN_POINT('',(-29.5565273411286,-15.9820849358479,-2.22044604925031E-15));
#1749=CARTESIAN_POINT('',(-29.5565273410086,-8.23213139690507,0.));
#1750=CARTESIAN_POINT('',(-29.5565273411286,-15.9820849358497,-0.699999999999952));
#1751=CARTESIAN_POINT('Origin',(-15.5448245881955,-30.2026313969979,-0.7));
#1752=CARTESIAN_POINT('',(-17.3557290583429,-24.4230849359959,-0.699999999999972));
#1753=CARTESIAN_POINT('',(-29.4402758394477,-35.9821778581774,-0.699999999999999));
#1754=CARTESIAN_POINT('Origin',(-1.53312183526238,-24.4230849358497,-0.699999999999997));
#1755=CARTESIAN_POINT('',(-1.53312183526238,-15.9820849358497,-0.699999999999997));
#1756=CARTESIAN_POINT('',(-1.53312183526238,-15.9820849358497,-0.699999999999997));
#1757=CARTESIAN_POINT('',(-1.53312183526238,-24.4230849358497,-0.699999999999997));
#1758=CARTESIAN_POINT('',(-1.53312183526238,-24.4230849358497,-0.699999999999997));
#1759=CARTESIAN_POINT('',(-3.93312183526238,-24.4230849359959,-0.699999999999993));
#1760=CARTESIAN_POINT('Origin',(-6.33312183526237,-24.4230849351975,2.45));
#1761=CARTESIAN_POINT('',(-1.53312183526236,-24.4230849358497,7.24999999999996));
#1762=CARTESIAN_POINT('',(-9.13312183526237,-24.4230849351974,2.45));
#1763=CARTESIAN_POINT('Origin',(-6.33312183526237,-24.4230849351975,2.45));
#1764=CARTESIAN_POINT('',(-27.5565273411286,-24.4230849351974,2.45));
#1765=CARTESIAN_POINT('Origin',(-24.7565273411286,-24.4230849351974,2.45));
#1766=CARTESIAN_POINT('Origin',(-1.53312183526237,-24.4230849358497,2.45000000000025));
#1767=CARTESIAN_POINT('',(-1.53312183526238,-15.9820849358497,0.));
#1768=CARTESIAN_POINT('',(-1.53312183526236,-15.9820849358497,7.24999999999996));
#1769=CARTESIAN_POINT('',(-1.53312183526237,-8.23217785817738,0.));
#1770=CARTESIAN_POINT('Origin',(-28.967431811276,-15.9820849358497,0.875000000153266));
#1771=CARTESIAN_POINT('',(-22.2561281997358,-15.9820849358497,0.));
#1772=CARTESIAN_POINT('',(-1.64937333694322,-15.9820849358185,-2.2));
#1773=CARTESIAN_POINT('Origin',(-2.12221736511493,-15.9820849358497,0.875000000000125));
#1774=CARTESIAN_POINT('',(-2.20547117174929,-15.9820849358497,0.));
#1775=CARTESIAN_POINT('',(-8.8335209766552,-15.9820849358497,0.));
#1776=CARTESIAN_POINT('',(-5.1425337452833,-15.9820849358185,-2.2));
#1777=CARTESIAN_POINT('',(-1.64937333694322,-15.9820849358185,-2.2));
#1778=CARTESIAN_POINT('Origin',(-6.33312183526237,-15.9820849358185,2.44999999786039));
#1779=CARTESIAN_POINT('Origin',(-24.7565273411286,-24.4230849351974,2.45));
#1780=CARTESIAN_POINT('Origin',(-24.7565273411286,-13.9820849358185,2.44999999735343));
#1781=CARTESIAN_POINT('Origin',(-6.33312183526237,-24.4230849351975,2.45));
#1782=CARTESIAN_POINT('',(-5.1425337452833,-24.4230849358185,-2.2));
#1783=CARTESIAN_POINT('',(-5.1425337447883,-23.9230849358185,-2.2));
#1784=CARTESIAN_POINT('',(-7.52370992524144,-24.4230849358185,-2.2));
#1785=CARTESIAN_POINT('Origin',(-6.33312183526237,-24.4230849351975,2.45));
#1786=CARTESIAN_POINT('',(-7.52370992573644,-23.9230849358185,-2.2));
#1787=CARTESIAN_POINT('',(-10.4607725000454,-14.9820849358185,5.22512079366935E-16));
#1788=CARTESIAN_POINT('',(-10.4607724994104,-20.2025849358185,1.15170744056109E-24));
#1789=CARTESIAN_POINT('',(-2.2054711704793,-14.9820849358185,6.94360059578867E-16));
#1790=CARTESIAN_POINT('Origin',(-6.33312183526237,-14.9820849358185,2.44999999760691));
#1791=CARTESIAN_POINT('',(-2.20547117108113,-19.9821313960791,8.02198240856049E-17));
#1792=CARTESIAN_POINT('Origin',(-6.33312183526237,-24.4230849351975,2.45));
#1793=CARTESIAN_POINT('Origin',(-6.33312183526237,-13.9820849358185,2.44999999735343));
#1794=CARTESIAN_POINT('Origin',(-15.5448245881955,-0.482177858177391,0.));
#1795=CARTESIAN_POINT('',(-10.9389732117289,-14.9820849358185,0.));
#1796=CARTESIAN_POINT('',(-20.150675964662,-14.9820849358185,0.));
#1797=CARTESIAN_POINT('',(-28.8948245881955,-0.482177858177393,0.));
#1798=CARTESIAN_POINT('Origin',(-26.0948245881955,-0.482177858177392,0.));
#1799=CARTESIAN_POINT('',(-7.79482458819548,-0.482177858177393,0.));
#1800=CARTESIAN_POINT('Origin',(-4.99482458819548,-0.482177858177392,0.));
#1801=CARTESIAN_POINT('Origin',(-1.64937333694322,-35.9821778581774,3.5));
#1802=CARTESIAN_POINT('',(-1.64937333694321,-35.9821778581774,-2.2));
#1803=CARTESIAN_POINT('Origin',(-15.5448245881955,-30.2026313969979,-2.2));
#1804=CARTESIAN_POINT('',(-10.9389732117289,-24.4230849363761,-2.2));
#1805=CARTESIAN_POINT('',(-10.9389732117289,-24.4230849363761,-2.2));
#1806=CARTESIAN_POINT('Origin',(-6.33312183526237,-24.4230849351975,2.45));
#1807=CARTESIAN_POINT('Origin',(-6.33312183526237,-24.4230849351975,2.45));
#1808=CARTESIAN_POINT('Origin',(-24.7565273411286,-14.9820849358185,-1.1750000010698));
#1809=CARTESIAN_POINT('Origin',(-6.33312183526237,-14.9820849358185,-1.17500000106981));
#1810=CARTESIAN_POINT('Origin',(-24.7565273411286,-15.9820849358185,-1.1750000010698));
#1811=CARTESIAN_POINT('',(-26.1120715161683,-15.9820849358185,0.));
#1812=CARTESIAN_POINT('',(-23.400983169956,-15.9820849358185,-2.13961281646247E-9));
#1813=CARTESIAN_POINT('Origin',(-24.7565273411286,-15.9820849351974,2.44999999786039));
#1814=CARTESIAN_POINT('',(-20.150675964662,-15.9820849358185,0.));
#1815=CARTESIAN_POINT('Origin',(-15.5448245881955,-0.482177858177391,0.));
#1816=CARTESIAN_POINT('',(-23.4009831660889,-15.9821778581774,-6.23910215591588E-17));
#1817=CARTESIAN_POINT('',(-23.400983169956,-24.4230849358185,0.));
#1818=CARTESIAN_POINT('',(-26.1120715161683,-15.9821778581774,-6.23910220761466E-17));
#1819=CARTESIAN_POINT('',(4.45517541180452,-15.9821778581774,0.));
#1820=CARTESIAN_POINT('',(-26.1120715123012,-24.4230849358185,0.));
#1821=CARTESIAN_POINT('Origin',(-6.33312183526237,-15.9820849358185,-1.17500000106981));
#1822=CARTESIAN_POINT('',(-7.68866601030208,-15.9820849358185,0.));
#1823=CARTESIAN_POINT('',(-4.97757766022266,-15.9820849358185,0.));
#1824=CARTESIAN_POINT('Origin',(-6.33312183526237,-15.9820849351975,2.44999999786039));
#1825=CARTESIAN_POINT('',(-10.9389732117289,-15.9820849358185,0.));
#1826=CARTESIAN_POINT('Origin',(-15.5448245881955,-0.482177858177391,0.));
#1827=CARTESIAN_POINT('',(-4.9775776602227,-15.9821778581774,-3.84243489106781E-17));
#1828=CARTESIAN_POINT('',(-4.97757766408978,-24.4230849358185,0.));
#1829=CARTESIAN_POINT('',(-7.68866601030203,-15.9821778581774,-3.8424349427666E-17));
#1830=CARTESIAN_POINT('',(4.45517541180452,-15.9821778581774,0.));
#1831=CARTESIAN_POINT('',(-7.68866600643496,-24.4230849358185,0.));
#1832=CARTESIAN_POINT('Origin',(-24.7565273411286,-13.9820849358185,5.3749999989302));
#1833=CARTESIAN_POINT('Origin',(-6.33312183526237,-13.9820849358185,5.37499999893019));
#1834=CARTESIAN_POINT('Origin',(-24.7565273411286,-15.9820849358185,5.3749999989302));
#1835=CARTESIAN_POINT('',(-22.1608578715106,-15.9820849349313,3.5));
#1836=CARTESIAN_POINT('',(-27.3521968107466,-15.9820849349313,3.5));
#1837=CARTESIAN_POINT('Origin',(-24.7565273411286,-15.9820849351974,2.44999999786039));
#1838=CARTESIAN_POINT('',(-20.150675964662,-15.9820849358185,3.5));
#1839=CARTESIAN_POINT('Origin',(-15.5448245881955,-0.482177858177391,3.5));
#1840=CARTESIAN_POINT('',(-27.3521968107466,-15.9821778581774,3.5));
#1841=CARTESIAN_POINT('',(-27.3521968116121,-24.4230849349313,3.5));
#1842=CARTESIAN_POINT('',(-22.1608578715106,-15.9821778581774,3.5));
#1843=CARTESIAN_POINT('',(4.45517541180452,-15.9821778581774,3.5));
#1844=CARTESIAN_POINT('',(-22.1608578706451,-24.4230849349313,3.5));
#1845=CARTESIAN_POINT('Origin',(-6.33312183526237,-15.9820849358185,5.37499999893019));
#1846=CARTESIAN_POINT('',(-3.7374523656444,-15.9820849349313,3.5));
#1847=CARTESIAN_POINT('',(-8.92879130488033,-15.9820849349313,3.5));
#1848=CARTESIAN_POINT('Origin',(-6.33312183526237,-15.9820849351975,2.44999999786039));
#1849=CARTESIAN_POINT('',(-10.9389732117289,-15.9820849358185,3.5));
#1850=CARTESIAN_POINT('Origin',(-15.5448245881955,-0.482177858177391,3.5));
#1851=CARTESIAN_POINT('',(-8.92879130488034,-15.9821778581774,3.5));
#1852=CARTESIAN_POINT('',(-8.92879130574585,-24.4230849349313,3.5));
#1853=CARTESIAN_POINT('',(-3.73745236564439,-15.9821778581774,3.5));
#1854=CARTESIAN_POINT('',(4.45517541180452,-15.9821778581774,3.5));
#1855=CARTESIAN_POINT('',(-3.73745236477889,-24.4230849349313,3.5));
#1856=CARTESIAN_POINT('Origin',(-14.5448245881955,-20.4821778581774,1.15));
#1857=CARTESIAN_POINT('',(-22.2766079870775,-20.4821778581774,1.15));
#1858=CARTESIAN_POINT('',(-22.2766079869446,-19.4821778581774,1.15));
#1859=CARTESIAN_POINT('',(-22.2766079876011,-24.423084935527,1.15));
#1860=CARTESIAN_POINT('',(-16.5448245881955,-20.4821778581774,1.15));
#1861=CARTESIAN_POINT('',(-14.5448245881955,-20.4821778581774,1.15));
#1862=CARTESIAN_POINT('',(-16.5448245881955,-19.4821778581774,1.15));
#1863=CARTESIAN_POINT('',(-16.5448245881955,-19.7321778581774,1.15));
#1864=CARTESIAN_POINT('',(-14.5448245881955,-19.4821778581774,1.15));
#1865=CARTESIAN_POINT('Origin',(-14.5448245881955,-20.4821778581774,1.15));
#1866=CARTESIAN_POINT('',(-8.81304118944634,-19.4821778581774,1.15));
#1867=CARTESIAN_POINT('',(-8.81304118931347,-20.4821778581774,1.15));
#1868=CARTESIAN_POINT('',(-8.81304118878982,-24.423084935527,1.15));
#1869=CARTESIAN_POINT('',(-14.5448245881955,-19.4821778581774,1.15));
#1870=CARTESIAN_POINT('',(-14.5448245881955,-19.4821778581774,1.15));
#1871=CARTESIAN_POINT('',(-14.5448245881955,-20.4821778581774,1.15));
#1872=CARTESIAN_POINT('',(-14.5448245881955,-20.7321778581774,1.15));
#1873=CARTESIAN_POINT('',(-14.5448245881955,-20.4821778581774,1.15));
#1874=CARTESIAN_POINT('Origin',(-14.5448245881955,-20.4821778581774,2.35));
#1875=CARTESIAN_POINT('',(-21.9583136251663,-20.4821778581774,2.35));
#1876=CARTESIAN_POINT('Origin',(-24.7565273411286,-20.4821778581774,2.44999999900106));
#1877=CARTESIAN_POINT('',(-16.5448245881955,-20.4821778581774,2.35));
#1878=CARTESIAN_POINT('',(-14.5448245881955,-20.4821778581774,2.35));
#1879=CARTESIAN_POINT('',(-16.5448245881955,-20.4821778581774,2.925));
#1880=CARTESIAN_POINT('Origin',(-14.5448245881955,-20.4821778581774,2.35));
#1881=CARTESIAN_POINT('',(-9.13133555122471,-20.4821778581774,2.35));
#1882=CARTESIAN_POINT('Origin',(-6.33312183526237,-20.4821778581774,2.44999999900106));
#1883=CARTESIAN_POINT('',(-14.5448245881955,-20.4821778581774,2.35));
#1884=CARTESIAN_POINT('',(-14.5448245881955,-20.4821778581774,2.925));
#1885=CARTESIAN_POINT('',(-14.5448245881955,-20.4821778581774,2.35));
#1886=CARTESIAN_POINT('Origin',(-14.5448245881955,-19.4821778581774,1.15));
#1887=CARTESIAN_POINT('',(-21.9583136251572,-19.4821778581774,2.35));
#1888=CARTESIAN_POINT('Origin',(-24.7565273411286,-19.4821778581774,2.44999999874758));
#1889=CARTESIAN_POINT('',(-16.5448245881955,-19.4821778581774,2.35));
#1890=CARTESIAN_POINT('',(-16.5448245881955,-19.4821778581774,2.325));
#1891=CARTESIAN_POINT('',(-14.5448245881955,-19.4821778581774,2.35));
#1892=CARTESIAN_POINT('Origin',(-14.5448245881955,-19.4821778581774,2.35));
#1893=CARTESIAN_POINT('',(-21.958313625202,-24.4230849352228,2.35));
#1894=CARTESIAN_POINT('',(-16.5448245881955,-19.2321778581774,2.35));
#1895=CARTESIAN_POINT('Origin',(-14.5448245881955,-19.4821778581774,2.35));
#1896=CARTESIAN_POINT('',(-9.13133555123377,-19.4821778581774,2.35));
#1897=CARTESIAN_POINT('',(-9.13133555118901,-24.4230849352228,2.35));
#1898=CARTESIAN_POINT('',(-14.5448245881955,-19.4821778581774,2.35));
#1899=CARTESIAN_POINT('',(-14.5448245881955,-20.2321778581774,2.35));
#1900=CARTESIAN_POINT('',(-14.5448245881955,-19.4821778581774,2.35));
#1901=CARTESIAN_POINT('Origin',(-14.5448245881955,-19.4821778581774,1.15));
#1902=CARTESIAN_POINT('Origin',(-6.33312183526237,-19.4821778581774,2.44999999874758));
#1903=CARTESIAN_POINT('',(-14.5448245881955,-19.4821778581774,2.325));
#1904=CARTESIAN_POINT('Origin',(-6.33312183526237,-24.4230849351975,2.45));
#1905=CARTESIAN_POINT('',(-9.13312183526236,-15.9821778581774,2.44999999786041));
#1906=CARTESIAN_POINT('Origin',(-6.33312183526237,-15.9821778581774,2.44999999786041));
#1907=CARTESIAN_POINT('',(-9.13312183526237,-24.4230849351975,2.45));
#1908=CARTESIAN_POINT('Origin',(-6.33312183526237,-15.9821778581774,2.44999999786041));
#1909=CARTESIAN_POINT('Origin',(-6.33312183526237,-15.9821778581774,2.44999999786041));
#1910=CARTESIAN_POINT('Origin',(-35.5448245881955,-15.9821778581774,0.));
#1911=CARTESIAN_POINT('Origin',(-24.7565273411286,-24.4230849351974,2.45));
#1912=CARTESIAN_POINT('',(-27.5565273411286,-15.9821778581774,2.44999999786041));
#1913=CARTESIAN_POINT('Origin',(-24.7565273411286,-15.9821778581774,2.44999999786041));
#1914=CARTESIAN_POINT('',(-27.5565273411286,-24.4230849351974,2.45));
#1915=CARTESIAN_POINT('Origin',(-24.7565273411286,-15.9821778581774,2.44999999786041));
#1916=CARTESIAN_POINT('Origin',(-24.7565273411286,-15.9821778581774,2.44999999786041));
#1917=CARTESIAN_POINT('Origin',(-35.5448245881955,-15.9821778581774,0.));
#1918=CARTESIAN_POINT('Origin',(-16.5448245881955,-18.9821778581774,3.5));
#1919=CARTESIAN_POINT('',(-16.5448245881955,-20.9821778581774,7.25));
#1920=CARTESIAN_POINT('',(-16.5448245881955,-18.9821778581774,3.5));
#1921=CARTESIAN_POINT('Origin',(-14.5448245881955,-18.9821778581774,3.5));
#1922=CARTESIAN_POINT('',(-14.5448245881955,-18.9821778581774,7.25));
#1923=CARTESIAN_POINT('Origin',(-14.5448245881955,-20.9821778581774,3.5));
#1924=CARTESIAN_POINT('',(-14.5448245881955,-20.9821778581774,7.25));
#1925=CARTESIAN_POINT('Origin',(-16.5448245881955,-20.9821778581774,3.5));
#1926=CARTESIAN_POINT('Origin',(-26.0948245881955,-0.482177858177392,0.));
#1927=CARTESIAN_POINT('',(-28.8948245881955,-0.482177858177393,0.));
#1928=CARTESIAN_POINT('Origin',(-4.99482458819548,-0.482177858177392,0.));
#1929=CARTESIAN_POINT('',(-7.79482458819548,-0.482177858177393,0.));
#1930=CARTESIAN_POINT('',(1.32267678704594,-4.65803733362179,-3.62339689545606));
#1931=CARTESIAN_POINT('',(-1.32267678704595,4.65803733270333,0.123396896636834));
#1932=UNCERTAINTY_MEASURE_WITH_UNIT(LENGTH_MEASURE(0.01),#1940,
'DISTANCE_ACCURACY_VALUE',
'Maximum model space distance between geometric entities at asserted c
onnectivities');
#1933=UNCERTAINTY_MEASURE_WITH_UNIT(LENGTH_MEASURE(0.01),#1940,
'DISTANCE_ACCURACY_VALUE',
'Maximum model space distance between geometric entities at asserted c
onnectivities');
#1934=UNCERTAINTY_MEASURE_WITH_UNIT(LENGTH_MEASURE(0.01),#1940,
'DISTANCE_ACCURACY_VALUE',
'Maximum model space distance between geometric entities at asserted c
onnectivities');
#1935=UNCERTAINTY_MEASURE_WITH_UNIT(LENGTH_MEASURE(0.01),#1940,
'DISTANCE_ACCURACY_VALUE',
'Maximum model space distance between geometric entities at asserted c
onnectivities');
#1936=(
GEOMETRIC_REPRESENTATION_CONTEXT(3)
GLOBAL_UNCERTAINTY_ASSIGNED_CONTEXT((#1932))
GLOBAL_UNIT_ASSIGNED_CONTEXT((#1940,#1942,#1943))
REPRESENTATION_CONTEXT('','3D')
);
#1937=(
GEOMETRIC_REPRESENTATION_CONTEXT(3)
GLOBAL_UNCERTAINTY_ASSIGNED_CONTEXT((#1933))
GLOBAL_UNIT_ASSIGNED_CONTEXT((#1940,#1942,#1943))
REPRESENTATION_CONTEXT('','3D')
);
#1938=(
GEOMETRIC_REPRESENTATION_CONTEXT(3)
GLOBAL_UNCERTAINTY_ASSIGNED_CONTEXT((#1934))
GLOBAL_UNIT_ASSIGNED_CONTEXT((#1940,#1942,#1943))
REPRESENTATION_CONTEXT('','3D')
);
#1939=(
GEOMETRIC_REPRESENTATION_CONTEXT(3)
GLOBAL_UNCERTAINTY_ASSIGNED_CONTEXT((#1935))
GLOBAL_UNIT_ASSIGNED_CONTEXT((#1940,#1942,#1943))
REPRESENTATION_CONTEXT('','3D')
);
#1940=(
LENGTH_UNIT()
NAMED_UNIT(*)
SI_UNIT(.MILLI.,.METRE.)
);
#1941=(
LENGTH_UNIT()
NAMED_UNIT(*)
SI_UNIT($,.METRE.)
);
#1942=(
NAMED_UNIT(*)
PLANE_ANGLE_UNIT()
SI_UNIT($,.RADIAN.)
);
#1943=(
NAMED_UNIT(*)
SI_UNIT($,.STERADIAN.)
SOLID_ANGLE_UNIT()
);
#1944=SHAPE_DEFINITION_REPRESENTATION(#1947,#1952);
#1945=SHAPE_DEFINITION_REPRESENTATION(#1948,#1953);
#1946=SHAPE_DEFINITION_REPRESENTATION(#1949,#1954);
#1947=PRODUCT_DEFINITION_SHAPE('',$,#1956);
#1948=PRODUCT_DEFINITION_SHAPE('',$,#1957);
#1949=PRODUCT_DEFINITION_SHAPE('',$,#1958);
#1950=PRODUCT_DEFINITION_SHAPE($,$,#17);
#1951=PRODUCT_DEFINITION_SHAPE($,$,#18);
#1952=SHAPE_REPRESENTATION('',(#1174,#1275),#1936);
#1953=SHAPE_REPRESENTATION('',(#1175,#1274),#1937);
#1954=SHAPE_REPRESENTATION('',(#1176),#1938);
#1955=PRODUCT_DEFINITION_CONTEXT('part definition',#1966,'design');
#1956=PRODUCT_DEFINITION('filament cut-out sensor',
'filament cut-out sensor v3',#1959,#1955);
#1957=PRODUCT_DEFINITION('holder','holder',#1960,#1955);
#1958=PRODUCT_DEFINITION('main','main',#1961,#1955);
#1959=PRODUCT_DEFINITION_FORMATION('',$,#1968);
#1960=PRODUCT_DEFINITION_FORMATION('',$,#1969);
#1961=PRODUCT_DEFINITION_FORMATION('',$,#1970);
#1962=PRODUCT_RELATED_PRODUCT_CATEGORY('filament cut-out sensor v3',
'filament cut-out sensor v3',(#1968));
#1963=PRODUCT_RELATED_PRODUCT_CATEGORY('holder','holder',(#1969));
#1964=PRODUCT_RELATED_PRODUCT_CATEGORY('main','main',(#1970));
#1965=APPLICATION_PROTOCOL_DEFINITION('international standard',
'automotive_design',2009,#1966);
#1966=APPLICATION_CONTEXT(
'Core Data for Automotive Mechanical Design Process');
#1967=PRODUCT_CONTEXT('part definition',#1966,'mechanical');
#1968=PRODUCT('filament cut-out sensor','filament cut-out sensor v3',$,
(#1967));
#1969=PRODUCT('holder','holder',$,(#1967));
#1970=PRODUCT('main','main',$,(#1967));
#1971=PRESENTATION_STYLE_ASSIGNMENT((#1972));
#1972=SURFACE_STYLE_USAGE(.BOTH.,#1973);
#1973=SURFACE_SIDE_STYLE('',(#1974));
#1974=SURFACE_STYLE_FILL_AREA(#1975);
#1975=FILL_AREA_STYLE('Steel - Satin',(#1976));
#1976=FILL_AREA_STYLE_COLOUR('Steel - Satin',#1977);
#1977=COLOUR_RGB('Steel - Satin',0.627450980392157,0.627450980392157,0.627450980392157);
ENDSEC;
END-ISO-10303-21;
