ISO-10303-21;
HEADER;
/* Generated by software containing ST-Developer
 * from STEP Tools, Inc. (www.steptools.com) 
 */

FILE_DESCRIPTION(
/* description */ (''),
/* implementation_level */ '2;1');

FILE_NAME(
/* name */ 'lid.step',
/* time_stamp */ '2026-08-31T22:01:06-06:00',
/* author */ (''),
/* organization */ (''),
/* preprocessor_version */ 'ST-DEVELOPER v20.1',
/* originating_system */ 'Autodesk Translation Framework v15.8.0.0',
/* authorisation */ '');

FILE_SCHEMA (('AUTOMOTIVE_DESIGN { 1 0 10303 214 3 1 1 }'));
ENDSEC;

DATA;
#10=MECHANICAL_DESIGN_GEOMETRIC_PRESENTATION_REPRESENTATION('',(#21),#343);
#11=ITEM_DEFINED_TRANSFORMATION($,$,#214,#225);
#12=ITEM_DEFINED_TRANSFORMATION($,$,#213,#226);
#13=(
REPRESENTATION_RELATIONSHIP($,$,#358,#357)
REPRESENTATION_RELATIONSHIP_WITH_TRANSFORMATION(#11)
SHAPE_REPRESENTATION_RELATIONSHIP()
);
#14=(
REPRESENTATION_RELATIONSHIP($,$,#357,#356)
REPRESENTATION_RELATIONSHIP_WITH_TRANSFORMATION(#12)
SHAPE_REPRESENTATION_RELATIONSHIP()
);
#15=CONTEXT_DEPENDENT_SHAPE_REPRESENTATION(#13,#354);
#16=CONTEXT_DEPENDENT_SHAPE_REPRESENTATION(#14,#355);
#17=NEXT_ASSEMBLY_USAGE_OCCURRENCE('lid:1','lid:1','lid:1',#361,#362,
'lid:1');
#18=NEXT_ASSEMBLY_USAGE_OCCURRENCE('holder:1','holder:1','holder:1',#360,
#361,'holder:1');
#19=SHAPE_REPRESENTATION_RELATIONSHIP('SRR','None',#358,#20);
#20=ADVANCED_BREP_SHAPE_REPRESENTATION('',(#22),#342);
#21=STYLED_ITEM('',(#375),#22);
#22=MANIFOLD_SOLID_BREP('Body1',#199);
#23=FACE_OUTER_BOUND('',#33,.T.);
#24=FACE_OUTER_BOUND('',#34,.T.);
#25=FACE_OUTER_BOUND('',#35,.T.);
#26=FACE_OUTER_BOUND('',#36,.T.);
#27=FACE_OUTER_BOUND('',#37,.T.);
#28=FACE_OUTER_BOUND('',#38,.T.);
#29=FACE_OUTER_BOUND('',#39,.T.);
#30=FACE_OUTER_BOUND('',#40,.T.);
#31=FACE_OUTER_BOUND('',#41,.T.);
#32=FACE_OUTER_BOUND('',#42,.T.);
#33=EDGE_LOOP('',(#131,#132,#133,#134));
#34=EDGE_LOOP('',(#135,#136,#137,#138));
#35=EDGE_LOOP('',(#139,#140,#141,#142));
#36=EDGE_LOOP('',(#143,#144,#145,#146));
#37=EDGE_LOOP('',(#147,#148,#149,#150));
#38=EDGE_LOOP('',(#151,#152,#153,#154));
#39=EDGE_LOOP('',(#155,#156,#157,#158,#159,#160,#161,#162));
#40=EDGE_LOOP('',(#163,#164,#165,#166));
#41=EDGE_LOOP('',(#167,#168,#169,#170));
#42=EDGE_LOOP('',(#171,#172,#173,#174,#175,#176,#177,#178));
#43=LINE('',#287,#67);
#44=LINE('',#289,#68);
#45=LINE('',#291,#69);
#46=LINE('',#292,#70);
#47=LINE('',#296,#71);
#48=LINE('',#298,#72);
#49=LINE('',#300,#73);
#50=LINE('',#301,#74);
#51=LINE('',#305,#75);
#52=LINE('',#307,#76);
#53=LINE('',#309,#77);
#54=LINE('',#310,#78);
#55=LINE('',#312,#79);
#56=LINE('',#313,#80);
#57=LINE('',#317,#81);
#58=LINE('',#318,#82);
#59=LINE('',#319,#83);
#60=LINE('',#322,#84);
#61=LINE('',#323,#85);
#62=LINE('',#325,#86);
#63=LINE('',#327,#87);
#64=LINE('',#328,#88);
#65=LINE('',#330,#89);
#66=LINE('',#332,#90);
#67=VECTOR('',#235,10.);
#68=VECTOR('',#236,10.);
#69=VECTOR('',#237,10.);
#70=VECTOR('',#238,10.);
#71=VECTOR('',#241,10.);
#72=VECTOR('',#242,10.);
#73=VECTOR('',#243,10.);
#74=VECTOR('',#244,10.);
#75=VECTOR('',#247,10.);
#76=VECTOR('',#248,10.);
#77=VECTOR('',#249,10.);
#78=VECTOR('',#250,10.);
#79=VECTOR('',#253,10.);
#80=VECTOR('',#254,10.);
#81=VECTOR('',#257,10.);
#82=VECTOR('',#258,10.);
#83=VECTOR('',#259,10.);
#84=VECTOR('',#262,10.);
#85=VECTOR('',#263,10.);
#86=VECTOR('',#266,10.);
#87=VECTOR('',#267,10.);
#88=VECTOR('',#268,10.);
#89=VECTOR('',#271,10.);
#90=VECTOR('',#274,10.);
#91=VERTEX_POINT('',#285);
#92=VERTEX_POINT('',#286);
#93=VERTEX_POINT('',#288);
#94=VERTEX_POINT('',#290);
#95=VERTEX_POINT('',#294);
#96=VERTEX_POINT('',#295);
#97=VERTEX_POINT('',#297);
#98=VERTEX_POINT('',#299);
#99=VERTEX_POINT('',#303);
#100=VERTEX_POINT('',#304);
#101=VERTEX_POINT('',#306);
#102=VERTEX_POINT('',#308);
#103=VERTEX_POINT('',#315);
#104=VERTEX_POINT('',#316);
#105=VERTEX_POINT('',#321);
#106=VERTEX_POINT('',#326);
#107=EDGE_CURVE('',#91,#92,#43,.T.);
#108=EDGE_CURVE('',#92,#93,#44,.T.);
#109=EDGE_CURVE('',#93,#94,#45,.T.);
#110=EDGE_CURVE('',#94,#91,#46,.T.);
#111=EDGE_CURVE('',#95,#96,#47,.T.);
#112=EDGE_CURVE('',#96,#97,#48,.T.);
#113=EDGE_CURVE('',#97,#98,#49,.T.);
#114=EDGE_CURVE('',#98,#95,#50,.T.);
#115=EDGE_CURVE('',#99,#100,#51,.T.);
#116=EDGE_CURVE('',#100,#101,#52,.T.);
#117=EDGE_CURVE('',#101,#102,#53,.T.);
#118=EDGE_CURVE('',#99,#102,#54,.T.);
#119=EDGE_CURVE('',#98,#93,#55,.T.);
#120=EDGE_CURVE('',#94,#97,#56,.T.);
#121=EDGE_CURVE('',#103,#104,#57,.T.);
#122=EDGE_CURVE('',#103,#101,#58,.T.);
#123=EDGE_CURVE('',#104,#100,#59,.T.);
#124=EDGE_CURVE('',#104,#105,#60,.T.);
#125=EDGE_CURVE('',#105,#99,#61,.T.);
#126=EDGE_CURVE('',#105,#96,#62,.T.);
#127=EDGE_CURVE('',#106,#102,#63,.T.);
#128=EDGE_CURVE('',#106,#91,#64,.T.);
#129=EDGE_CURVE('',#95,#92,#65,.T.);
#130=EDGE_CURVE('',#103,#106,#66,.T.);
#131=ORIENTED_EDGE('',*,*,#107,.T.);
#132=ORIENTED_EDGE('',*,*,#108,.T.);
#133=ORIENTED_EDGE('',*,*,#109,.T.);
#134=ORIENTED_EDGE('',*,*,#110,.T.);
#135=ORIENTED_EDGE('',*,*,#111,.T.);
#136=ORIENTED_EDGE('',*,*,#112,.T.);
#137=ORIENTED_EDGE('',*,*,#113,.T.);
#138=ORIENTED_EDGE('',*,*,#114,.T.);
#139=ORIENTED_EDGE('',*,*,#115,.T.);
#140=ORIENTED_EDGE('',*,*,#116,.T.);
#141=ORIENTED_EDGE('',*,*,#117,.T.);
#142=ORIENTED_EDGE('',*,*,#118,.F.);
#143=ORIENTED_EDGE('',*,*,#119,.F.);
#144=ORIENTED_EDGE('',*,*,#113,.F.);
#145=ORIENTED_EDGE('',*,*,#120,.F.);
#146=ORIENTED_EDGE('',*,*,#109,.F.);
#147=ORIENTED_EDGE('',*,*,#121,.F.);
#148=ORIENTED_EDGE('',*,*,#122,.T.);
#149=ORIENTED_EDGE('',*,*,#116,.F.);
#150=ORIENTED_EDGE('',*,*,#123,.F.);
#151=ORIENTED_EDGE('',*,*,#124,.F.);
#152=ORIENTED_EDGE('',*,*,#123,.T.);
#153=ORIENTED_EDGE('',*,*,#115,.F.);
#154=ORIENTED_EDGE('',*,*,#125,.F.);
#155=ORIENTED_EDGE('',*,*,#126,.F.);
#156=ORIENTED_EDGE('',*,*,#125,.T.);
#157=ORIENTED_EDGE('',*,*,#118,.T.);
#158=ORIENTED_EDGE('',*,*,#127,.F.);
#159=ORIENTED_EDGE('',*,*,#128,.T.);
#160=ORIENTED_EDGE('',*,*,#110,.F.);
#161=ORIENTED_EDGE('',*,*,#120,.T.);
#162=ORIENTED_EDGE('',*,*,#112,.F.);
#163=ORIENTED_EDGE('',*,*,#129,.F.);
#164=ORIENTED_EDGE('',*,*,#114,.F.);
#165=ORIENTED_EDGE('',*,*,#119,.T.);
#166=ORIENTED_EDGE('',*,*,#108,.F.);
#167=ORIENTED_EDGE('',*,*,#130,.T.);
#168=ORIENTED_EDGE('',*,*,#127,.T.);
#169=ORIENTED_EDGE('',*,*,#117,.F.);
#170=ORIENTED_EDGE('',*,*,#122,.F.);
#171=ORIENTED_EDGE('',*,*,#130,.F.);
#172=ORIENTED_EDGE('',*,*,#121,.T.);
#173=ORIENTED_EDGE('',*,*,#124,.T.);
#174=ORIENTED_EDGE('',*,*,#126,.T.);
#175=ORIENTED_EDGE('',*,*,#111,.F.);
#176=ORIENTED_EDGE('',*,*,#129,.T.);
#177=ORIENTED_EDGE('',*,*,#107,.F.);
#178=ORIENTED_EDGE('',*,*,#128,.F.);
#179=PLANE('',#215);
#180=PLANE('',#216);
#181=PLANE('',#217);
#182=PLANE('',#218);
#183=PLANE('',#219);
#184=PLANE('',#220);
#185=PLANE('',#221);
#186=PLANE('',#222);
#187=PLANE('',#223);
#188=PLANE('',#224);
#189=ADVANCED_FACE('',(#23),#179,.T.);
#190=ADVANCED_FACE('',(#24),#180,.T.);
#191=ADVANCED_FACE('',(#25),#181,.F.);
#192=ADVANCED_FACE('',(#26),#182,.T.);
#193=ADVANCED_FACE('',(#27),#183,.T.);
#194=ADVANCED_FACE('',(#28),#184,.T.);
#195=ADVANCED_FACE('',(#29),#185,.T.);
#196=ADVANCED_FACE('',(#30),#186,.T.);
#197=ADVANCED_FACE('',(#31),#187,.T.);
#198=ADVANCED_FACE('',(#32),#188,.F.);
#199=CLOSED_SHELL('',(#189,#190,#191,#192,#193,#194,#195,#196,#197,#198));
#200=DERIVED_UNIT_ELEMENT(#202,1.);
#201=DERIVED_UNIT_ELEMENT(#345,-3.);
#202=(
MASS_UNIT()
NAMED_UNIT(*)
SI_UNIT(.KILO.,.GRAM.)
);
#203=DERIVED_UNIT((#200,#201));
#204=MEASURE_REPRESENTATION_ITEM('density measure',
POSITIVE_RATIO_MEASURE(7850.),#203);
#205=PROPERTY_DEFINITION_REPRESENTATION(#210,#207);
#206=PROPERTY_DEFINITION_REPRESENTATION(#211,#208);
#207=REPRESENTATION('material name',(#209),#342);
#208=REPRESENTATION('density',(#204),#342);
#209=DESCRIPTIVE_REPRESENTATION_ITEM('Steel','Steel');
#210=PROPERTY_DEFINITION('material property','material name',#362);
#211=PROPERTY_DEFINITION('material property','density of part',#362);
#212=AXIS2_PLACEMENT_3D('',#281,#227,#228);
#213=AXIS2_PLACEMENT_3D('',#282,#229,#230);
#214=AXIS2_PLACEMENT_3D('',#283,#231,#232);
#215=AXIS2_PLACEMENT_3D('',#284,#233,#234);
#216=AXIS2_PLACEMENT_3D('',#293,#239,#240);
#217=AXIS2_PLACEMENT_3D('',#302,#245,#246);
#218=AXIS2_PLACEMENT_3D('',#311,#251,#252);
#219=AXIS2_PLACEMENT_3D('',#314,#255,#256);
#220=AXIS2_PLACEMENT_3D('',#320,#260,#261);
#221=AXIS2_PLACEMENT_3D('',#324,#264,#265);
#222=AXIS2_PLACEMENT_3D('',#329,#269,#270);
#223=AXIS2_PLACEMENT_3D('',#331,#272,#273);
#224=AXIS2_PLACEMENT_3D('',#333,#275,#276);
#225=AXIS2_PLACEMENT_3D('',#334,#277,#278);
#226=AXIS2_PLACEMENT_3D('',#335,#279,#280);
#227=DIRECTION('axis',(0.,0.,1.));
#228=DIRECTION('refdir',(1.,0.,0.));
#229=DIRECTION('axis',(0.,0.,1.));
#230=DIRECTION('refdir',(1.,0.,0.));
#231=DIRECTION('axis',(0.,0.,1.));
#232=DIRECTION('refdir',(1.,0.,0.));
#233=DIRECTION('center_axis',(-1.,0.,0.));
#234=DIRECTION('ref_axis',(0.,0.,1.));
#235=DIRECTION('',(2.2204460494347E-16,-1.,3.70651640886319E-17));
#236=DIRECTION('',(0.,0.,1.));
#237=DIRECTION('',(-2.22044604943472E-16,1.,-2.31873765393114E-17));
#238=DIRECTION('',(0.,0.,-1.));
#239=DIRECTION('center_axis',(1.,0.,0.));
#240=DIRECTION('ref_axis',(0.,0.,-1.));
#241=DIRECTION('',(-2.2204460494347E-16,1.,-3.70651640886319E-17));
#242=DIRECTION('',(0.,0.,1.));
#243=DIRECTION('',(3.66115990831932E-16,-1.,2.31873765393114E-17));
#244=DIRECTION('',(0.,0.,-1.));
#245=DIRECTION('center_axis',(-7.2742011024806E-17,2.31873765393114E-17,
1.));
#246=DIRECTION('ref_axis',(-1.,-2.22044604943472E-16,-7.2742011024806E-17));
#247=DIRECTION('',(2.2204460494347E-16,-1.,3.70651640886319E-17));
#248=DIRECTION('',(-1.,-2.2204460494347E-16,-7.27420601018369E-17));
#249=DIRECTION('',(-2.2204460494347E-16,1.,-3.70651640886319E-17));
#250=DIRECTION('',(-1.,-2.22044604943472E-16,-7.27420110248056E-17));
#251=DIRECTION('center_axis',(0.,0.,1.));
#252=DIRECTION('ref_axis',(1.,0.,0.));
#253=DIRECTION('',(-1.,0.,0.));
#254=DIRECTION('',(1.,0.,0.));
#255=DIRECTION('center_axis',(-2.2204460494347E-16,1.,0.));
#256=DIRECTION('ref_axis',(-1.,-2.2204460494347E-16,-7.27420601018369E-17));
#257=DIRECTION('',(1.,2.2204460494347E-16,7.27420601018369E-17));
#258=DIRECTION('',(0.,0.,1.));
#259=DIRECTION('',(0.,0.,1.));
#260=DIRECTION('center_axis',(-1.,-2.2204460494347E-16,0.));
#261=DIRECTION('ref_axis',(2.2204460494347E-16,-1.,3.70651640886319E-17));
#262=DIRECTION('',(-2.2204460494347E-16,1.,-3.70651640886319E-17));
#263=DIRECTION('',(0.,0.,1.));
#264=DIRECTION('center_axis',(-2.2204460494347E-16,1.,0.));
#265=DIRECTION('ref_axis',(-1.,-2.2204460494347E-16,-7.27420601018367E-17));
#266=DIRECTION('',(1.,0.,0.));
#267=DIRECTION('',(0.,0.,1.));
#268=DIRECTION('',(-1.,-2.2204460494347E-16,-7.27420601018367E-17));
#269=DIRECTION('center_axis',(2.2204460494347E-16,-1.,0.));
#270=DIRECTION('ref_axis',(1.,2.2204460494347E-16,7.27420601018369E-17));
#271=DIRECTION('',(-1.,0.,0.));
#272=DIRECTION('center_axis',(1.,2.2204460494347E-16,0.));
#273=DIRECTION('ref_axis',(-2.2204460494347E-16,1.,-3.70651640886319E-17));
#274=DIRECTION('',(-2.2204460494347E-16,1.,-3.70651640886319E-17));
#275=DIRECTION('center_axis',(-7.27420601018369E-17,3.70651640886319E-17,
1.));
#276=DIRECTION('ref_axis',(-1.,-2.2204460494347E-16,-7.27420601018369E-17));
#277=DIRECTION('',(0.,0.,1.));
#278=DIRECTION('',(1.,0.,0.));
#279=DIRECTION('',(-1.69099564715126E-15,-2.53479866668314E-10,1.));
#280=DIRECTION('',(1.,-2.22044604925034E-16,1.61825363607017E-15));
#281=CARTESIAN_POINT('',(0.,0.,0.));
#282=CARTESIAN_POINT('',(0.,0.,0.));
#283=CARTESIAN_POINT('',(0.,0.,0.));
#284=CARTESIAN_POINT('Origin',(-29.5562758394477,-24.4230849358184,-0.700000000000001));
#285=CARTESIAN_POINT('',(-29.5562758394477,-24.4230849358184,-0.700000000000001));
#286=CARTESIAN_POINT('',(-29.5562758394477,-35.9821778581774,-0.7));
#287=CARTESIAN_POINT('',(-29.5562758394477,-24.4230849358184,-0.700000000000001));
#288=CARTESIAN_POINT('',(-29.5562758394477,-35.9821778581773,9.3));
#289=CARTESIAN_POINT('',(-29.5562758394477,-35.9821778581774,-0.7));
#290=CARTESIAN_POINT('',(-29.5562758394477,-24.4230849358184,9.3));
#291=CARTESIAN_POINT('',(-29.5562758394477,-24.4230849358184,9.3));
#292=CARTESIAN_POINT('',(-29.5562758394477,-24.4230849358184,-0.700000000000001));
#293=CARTESIAN_POINT('Origin',(-1.53337333694321,-35.9821778581774,-0.699999999999998));
#294=CARTESIAN_POINT('',(-1.53337333694321,-35.9821778581774,-0.699999999999998));
#295=CARTESIAN_POINT('',(-1.53337333694321,-24.4230849358184,-0.699999999999999));
#296=CARTESIAN_POINT('',(-1.53337333694321,-35.9821778581774,-0.699999999999998));
#297=CARTESIAN_POINT('',(-1.53337333694321,-24.4230849358184,9.3));
#298=CARTESIAN_POINT('',(-1.53337333694321,-24.4230849358184,-0.699999999999999));
#299=CARTESIAN_POINT('',(-1.5333733369432,-35.9821778581773,9.3));
#300=CARTESIAN_POINT('',(-1.5333733369432,-35.9821778581773,9.3));
#301=CARTESIAN_POINT('',(-1.53337333694321,-35.9821778581774,-0.699999999999998));
#302=CARTESIAN_POINT('Origin',(-15.5448245881954,-30.2026313969979,7.3));
#303=CARTESIAN_POINT('',(-2.64937333694321,-24.4230849358184,7.3));
#304=CARTESIAN_POINT('',(-2.64937333694321,-34.9821778581774,7.3));
#305=CARTESIAN_POINT('',(-2.64937333694321,-25.4230849358184,7.3));
#306=CARTESIAN_POINT('',(-28.4402758394477,-34.9821778581774,7.3));
#307=CARTESIAN_POINT('',(-28.4402758394477,-34.9821778581774,7.3));
#308=CARTESIAN_POINT('',(-28.4402758394477,-24.4230849358184,7.3));
#309=CARTESIAN_POINT('',(-28.4402758394477,-25.4230849358184,7.3));
#310=CARTESIAN_POINT('',(-1.64937333694321,-24.4230849358184,7.3));
#311=CARTESIAN_POINT('Origin',(-15.5448245881954,-30.2026313969979,9.3));
#312=CARTESIAN_POINT('',(-29.4402758394477,-35.9821778581773,9.3));
#313=CARTESIAN_POINT('',(-1.64937333694321,-24.4230849358184,9.3));
#314=CARTESIAN_POINT('Origin',(-2.64937333694321,-34.9821778581774,-0.699999999999998));
#315=CARTESIAN_POINT('',(-28.4402758394477,-34.9821778581774,-0.7));
#316=CARTESIAN_POINT('',(-2.64937333694321,-34.9821778581774,-0.699999999999998));
#317=CARTESIAN_POINT('',(-28.4402758394477,-34.9821778581774,-0.7));
#318=CARTESIAN_POINT('',(-28.4402758394477,-34.9821778581774,-0.7));
#319=CARTESIAN_POINT('',(-2.64937333694321,-34.9821778581774,-0.699999999999998));
#320=CARTESIAN_POINT('Origin',(-2.64937333694321,-24.4230849358184,-0.699999999999999));
#321=CARTESIAN_POINT('',(-2.64937333694321,-24.4230849358184,-0.699999999999999));
#322=CARTESIAN_POINT('',(-2.64937333694321,-25.4230849358184,-0.699999999999999));
#323=CARTESIAN_POINT('',(-2.64937333694321,-24.4230849358184,-0.699999999999999));
#324=CARTESIAN_POINT('Origin',(-1.64937333694321,-24.4230849358184,-0.699999999999999));
#325=CARTESIAN_POINT('',(-1.64937333694321,-24.4230849358184,-0.699999999999999));
#326=CARTESIAN_POINT('',(-28.4402758394477,-24.4230849358184,-0.700000000000001));
#327=CARTESIAN_POINT('',(-28.4402758394477,-24.4230849358184,-0.700000000000001));
#328=CARTESIAN_POINT('',(-1.64937333694321,-24.4230849358184,-0.699999999999999));
#329=CARTESIAN_POINT('Origin',(-29.4402758394477,-35.9821778581774,-0.7));
#330=CARTESIAN_POINT('',(-29.4402758394477,-35.9821778581774,-0.7));
#331=CARTESIAN_POINT('Origin',(-28.4402758394477,-34.9821778581774,-0.7));
#332=CARTESIAN_POINT('',(-28.4402758394477,-25.4230849358184,-0.700000000000001));
#333=CARTESIAN_POINT('Origin',(-15.5448245881954,-30.2026313969979,-0.7));
#334=CARTESIAN_POINT('',(0.,0.,0.));
#335=CARTESIAN_POINT('',(-1.32267678704595,4.65803733270333,0.123396896636834));
#336=UNCERTAINTY_MEASURE_WITH_UNIT(LENGTH_MEASURE(0.01),#344,
'DISTANCE_ACCURACY_VALUE',
'Maximum model space distance between geometric entities at asserted c
onnectivities');
#337=UNCERTAINTY_MEASURE_WITH_UNIT(LENGTH_MEASURE(0.01),#344,
'DISTANCE_ACCURACY_VALUE',
'Maximum model space distance between geometric entities at asserted c
onnectivities');
#338=UNCERTAINTY_MEASURE_WITH_UNIT(LENGTH_MEASURE(0.01),#344,
'DISTANCE_ACCURACY_VALUE',
'Maximum model space distance between geometric entities at asserted c
onnectivities');
#339=UNCERTAINTY_MEASURE_WITH_UNIT(LENGTH_MEASURE(0.01),#344,
'DISTANCE_ACCURACY_VALUE',
'Maximum model space distance between geometric entities at asserted c
onnectivities');
#340=(
GEOMETRIC_REPRESENTATION_CONTEXT(3)
GLOBAL_UNCERTAINTY_ASSIGNED_CONTEXT((#336))
GLOBAL_UNIT_ASSIGNED_CONTEXT((#344,#346,#347))
REPRESENTATION_CONTEXT('','3D')
);
#341=(
GEOMETRIC_REPRESENTATION_CONTEXT(3)
GLOBAL_UNCERTAINTY_ASSIGNED_CONTEXT((#337))
GLOBAL_UNIT_ASSIGNED_CONTEXT((#344,#346,#347))
REPRESENTATION_CONTEXT('','3D')
);
#342=(
GEOMETRIC_REPRESENTATION_CONTEXT(3)
GLOBAL_UNCERTAINTY_ASSIGNED_CONTEXT((#338))
GLOBAL_UNIT_ASSIGNED_CONTEXT((#344,#346,#347))
REPRESENTATION_CONTEXT('','3D')
);
#343=(
GEOMETRIC_REPRESENTATION_CONTEXT(3)
GLOBAL_UNCERTAINTY_ASSIGNED_CONTEXT((#339))
GLOBAL_UNIT_ASSIGNED_CONTEXT((#344,#346,#347))
REPRESENTATION_CONTEXT('','3D')
);
#344=(
LENGTH_UNIT()
NAMED_UNIT(*)
SI_UNIT(.MILLI.,.METRE.)
);
#345=(
LENGTH_UNIT()
NAMED_UNIT(*)
SI_UNIT($,.METRE.)
);
#346=(
NAMED_UNIT(*)
PLANE_ANGLE_UNIT()
SI_UNIT($,.RADIAN.)
);
#347=(
NAMED_UNIT(*)
SI_UNIT($,.STERADIAN.)
SOLID_ANGLE_UNIT()
);
#348=SHAPE_DEFINITION_REPRESENTATION(#351,#356);
#349=SHAPE_DEFINITION_REPRESENTATION(#352,#357);
#350=SHAPE_DEFINITION_REPRESENTATION(#353,#358);
#351=PRODUCT_DEFINITION_SHAPE('',$,#360);
#352=PRODUCT_DEFINITION_SHAPE('',$,#361);
#353=PRODUCT_DEFINITION_SHAPE('',$,#362);
#354=PRODUCT_DEFINITION_SHAPE($,$,#17);
#355=PRODUCT_DEFINITION_SHAPE($,$,#18);
#356=SHAPE_REPRESENTATION('',(#212,#226),#340);
#357=SHAPE_REPRESENTATION('',(#213,#225),#341);
#358=SHAPE_REPRESENTATION('',(#214),#342);
#359=PRODUCT_DEFINITION_CONTEXT('part definition',#370,'design');
#360=PRODUCT_DEFINITION('filament cut-out sensor',
'filament cut-out sensor v1',#363,#359);
#361=PRODUCT_DEFINITION('holder','holder',#364,#359);
#362=PRODUCT_DEFINITION('lid','lid',#365,#359);
#363=PRODUCT_DEFINITION_FORMATION('',$,#372);
#364=PRODUCT_DEFINITION_FORMATION('',$,#373);
#365=PRODUCT_DEFINITION_FORMATION('',$,#374);
#366=PRODUCT_RELATED_PRODUCT_CATEGORY('filament cut-out sensor v1',
'filament cut-out sensor v1',(#372));
#367=PRODUCT_RELATED_PRODUCT_CATEGORY('holder','holder',(#373));
#368=PRODUCT_RELATED_PRODUCT_CATEGORY('lid','lid',(#374));
#369=APPLICATION_PROTOCOL_DEFINITION('international standard',
'automotive_design',2009,#370);
#370=APPLICATION_CONTEXT(
'Core Data for Automotive Mechanical Design Process');
#371=PRODUCT_CONTEXT('part definition',#370,'mechanical');
#372=PRODUCT('filament cut-out sensor','filament cut-out sensor v1',$,(#371));
#373=PRODUCT('holder','holder',$,(#371));
#374=PRODUCT('lid','lid',$,(#371));
#375=PRESENTATION_STYLE_ASSIGNMENT((#376));
#376=SURFACE_STYLE_USAGE(.BOTH.,#377);
#377=SURFACE_SIDE_STYLE('',(#378));
#378=SURFACE_STYLE_FILL_AREA(#379);
#379=FILL_AREA_STYLE('Steel - Satin',(#380));
#380=FILL_AREA_STYLE_COLOUR('Steel - Satin',#381);
#381=COLOUR_RGB('Steel - Satin',0.627450980392157,0.627450980392157,0.627450980392157);
ENDSEC;
END-ISO-10303-21;
