ISO-10303-21;
HEADER;
/* Generated by software containing ST-Developer
 * from STEP Tools, Inc. (www.steptools.com) 
 */

FILE_DESCRIPTION(
/* description */ (''),
/* implementation_level */ '2;1');

FILE_NAME(
/* name */ 'main.step',
/* time_stamp */ '2026-08-31T22:00:57-06:00',
/* author */ (''),
/* organization */ (''),
/* preprocessor_version */ 'ST-DEVELOPER v20.1',
/* originating_system */ 'Autodesk Translation Framework v15.8.0.0',
/* authorisation */ '');

FILE_SCHEMA (('AUTOMOTIVE_DESIGN { 1 0 10303 214 3 1 1 }'));
ENDSEC;

DATA;
#10=MECHANICAL_DESIGN_GEOMETRIC_PRESENTATION_REPRESENTATION('',(#21),#2071);
#11=ITEM_DEFINED_TRANSFORMATION($,$,#1260,#1362);
#12=ITEM_DEFINED_TRANSFORMATION($,$,#1259,#1363);
#13=(
REPRESENTATION_RELATIONSHIP($,$,#2086,#2085)
REPRESENTATION_RELATIONSHIP_WITH_TRANSFORMATION(#11)
SHAPE_REPRESENTATION_RELATIONSHIP()
);
#14=(
REPRESENTATION_RELATIONSHIP($,$,#2085,#2084)
REPRESENTATION_RELATIONSHIP_WITH_TRANSFORMATION(#12)
SHAPE_REPRESENTATION_RELATIONSHIP()
);
#15=CONTEXT_DEPENDENT_SHAPE_REPRESENTATION(#13,#2082);
#16=CONTEXT_DEPENDENT_SHAPE_REPRESENTATION(#14,#2083);
#17=NEXT_ASSEMBLY_USAGE_OCCURRENCE('main:1','main:1','main:1',#2089,#2090,
'main:1');
#18=NEXT_ASSEMBLY_USAGE_OCCURRENCE('holder:1','holder:1','holder:1',#2088,
#2089,'holder:1');
#19=SHAPE_REPRESENTATION_RELATIONSHIP('SRR','None',#2086,#20);
#20=ADVANCED_BREP_SHAPE_REPRESENTATION('',(#22),#2070);
#21=STYLED_ITEM('',(#2103),#22);
#22=MANIFOLD_SOLID_BREP('Body1',#1245);
#23=CIRCLE('',#1264,1.);
#24=CIRCLE('',#1265,1.);
#25=CIRCLE('',#1267,1.);
#26=CIRCLE('',#1268,1.);
#27=CIRCLE('',#1270,1.);
#28=CIRCLE('',#1271,1.);
#29=CIRCLE('',#1275,4.8);
#30=CIRCLE('',#1276,4.8);
#31=CIRCLE('',#1278,4.8);
#32=CIRCLE('',#1279,4.8);
#33=CIRCLE('',#1280,4.8);
#34=CIRCLE('',#1287,2.8);
#35=CIRCLE('',#1288,2.8);
#36=CIRCLE('',#1292,4.8);
#37=CIRCLE('',#1293,4.8);
#38=CIRCLE('',#1295,4.8);
#39=CIRCLE('',#1298,4.8);
#40=CIRCLE('',#1300,4.8);
#41=CIRCLE('',#1301,4.8);
#42=CIRCLE('',#1303,4.8);
#43=CIRCLE('',#1305,2.8);
#44=CIRCLE('',#1306,2.8);
#45=CIRCLE('',#1308,2.8);
#46=CIRCLE('',#1309,2.8);
#47=CIRCLE('',#1318,2.8);
#48=CIRCLE('',#1321,2.8);
#49=CIRCLE('',#1326,2.8);
#50=CIRCLE('',#1329,2.8);
#51=CIRCLE('',#1334,2.8);
#52=CIRCLE('',#1336,2.8);
#53=CIRCLE('',#1338,2.8);
#54=CIRCLE('',#1342,2.8);
#55=CIRCLE('',#1344,2.8);
#56=CIRCLE('',#1345,2.8);
#57=CIRCLE('',#1346,2.8);
#58=CIRCLE('',#1349,2.8);
#59=CIRCLE('',#1350,2.8);
#60=CIRCLE('',#1351,2.8);
#61=CYLINDRICAL_SURFACE('',#1263,1.);
#62=CYLINDRICAL_SURFACE('',#1266,1.);
#63=CYLINDRICAL_SURFACE('',#1269,1.);
#64=CYLINDRICAL_SURFACE('',#1277,4.8);
#65=CYLINDRICAL_SURFACE('',#1297,4.8);
#66=CYLINDRICAL_SURFACE('',#1299,4.8);
#67=CYLINDRICAL_SURFACE('',#1302,4.8);
#68=CYLINDRICAL_SURFACE('',#1343,2.8);
#69=CYLINDRICAL_SURFACE('',#1348,2.8);
#70=CYLINDRICAL_SURFACE('',#1357,2.8);
#71=CYLINDRICAL_SURFACE('',#1358,2.8);
#72=FACE_BOUND('',#154,.T.);
#73=FACE_BOUND('',#166,.T.);
#74=FACE_BOUND('',#167,.T.);
#75=FACE_BOUND('',#168,.T.);
#76=FACE_BOUND('',#171,.T.);
#77=FACE_BOUND('',#172,.T.);
#78=FACE_BOUND('',#182,.T.);
#79=FACE_BOUND('',#183,.T.);
#80=FACE_BOUND('',#185,.T.);
#81=FACE_BOUND('',#186,.T.);
#82=FACE_BOUND('',#190,.T.);
#83=FACE_BOUND('',#191,.T.);
#84=FACE_BOUND('',#192,.T.);
#85=FACE_BOUND('',#216,.T.);
#86=FACE_BOUND('',#219,.T.);
#87=FACE_BOUND('',#222,.T.);
#88=FACE_BOUND('',#225,.T.);
#89=FACE_OUTER_BOUND('',#152,.T.);
#90=FACE_OUTER_BOUND('',#153,.T.);
#91=FACE_OUTER_BOUND('',#155,.T.);
#92=FACE_OUTER_BOUND('',#156,.T.);
#93=FACE_OUTER_BOUND('',#157,.T.);
#94=FACE_OUTER_BOUND('',#158,.T.);
#95=FACE_OUTER_BOUND('',#159,.T.);
#96=FACE_OUTER_BOUND('',#160,.T.);
#97=FACE_OUTER_BOUND('',#161,.T.);
#98=FACE_OUTER_BOUND('',#162,.T.);
#99=FACE_OUTER_BOUND('',#163,.T.);
#100=FACE_OUTER_BOUND('',#164,.T.);
#101=FACE_OUTER_BOUND('',#165,.T.);
#102=FACE_OUTER_BOUND('',#169,.T.);
#103=FACE_OUTER_BOUND('',#170,.T.);
#104=FACE_OUTER_BOUND('',#173,.T.);
#105=FACE_OUTER_BOUND('',#174,.T.);
#106=FACE_OUTER_BOUND('',#175,.T.);
#107=FACE_OUTER_BOUND('',#176,.T.);
#108=FACE_OUTER_BOUND('',#177,.T.);
#109=FACE_OUTER_BOUND('',#178,.T.);
#110=FACE_OUTER_BOUND('',#179,.T.);
#111=FACE_OUTER_BOUND('',#180,.T.);
#112=FACE_OUTER_BOUND('',#181,.T.);
#113=FACE_OUTER_BOUND('',#184,.T.);
#114=FACE_OUTER_BOUND('',#187,.T.);
#115=FACE_OUTER_BOUND('',#188,.T.);
#116=FACE_OUTER_BOUND('',#189,.T.);
#117=FACE_OUTER_BOUND('',#193,.T.);
#118=FACE_OUTER_BOUND('',#194,.T.);
#119=FACE_OUTER_BOUND('',#195,.T.);
#120=FACE_OUTER_BOUND('',#196,.T.);
#121=FACE_OUTER_BOUND('',#197,.T.);
#122=FACE_OUTER_BOUND('',#198,.T.);
#123=FACE_OUTER_BOUND('',#199,.T.);
#124=FACE_OUTER_BOUND('',#200,.T.);
#125=FACE_OUTER_BOUND('',#201,.T.);
#126=FACE_OUTER_BOUND('',#202,.T.);
#127=FACE_OUTER_BOUND('',#203,.T.);
#128=FACE_OUTER_BOUND('',#204,.T.);
#129=FACE_OUTER_BOUND('',#205,.T.);
#130=FACE_OUTER_BOUND('',#206,.T.);
#131=FACE_OUTER_BOUND('',#207,.T.);
#132=FACE_OUTER_BOUND('',#208,.T.);
#133=FACE_OUTER_BOUND('',#209,.T.);
#134=FACE_OUTER_BOUND('',#210,.T.);
#135=FACE_OUTER_BOUND('',#211,.T.);
#136=FACE_OUTER_BOUND('',#212,.T.);
#137=FACE_OUTER_BOUND('',#213,.T.);
#138=FACE_OUTER_BOUND('',#214,.T.);
#139=FACE_OUTER_BOUND('',#215,.T.);
#140=FACE_OUTER_BOUND('',#217,.T.);
#141=FACE_OUTER_BOUND('',#218,.T.);
#142=FACE_OUTER_BOUND('',#220,.T.);
#143=FACE_OUTER_BOUND('',#221,.T.);
#144=FACE_OUTER_BOUND('',#223,.T.);
#145=FACE_OUTER_BOUND('',#224,.T.);
#146=FACE_OUTER_BOUND('',#226,.T.);
#147=FACE_OUTER_BOUND('',#227,.T.);
#148=FACE_OUTER_BOUND('',#228,.T.);
#149=FACE_OUTER_BOUND('',#229,.T.);
#150=FACE_OUTER_BOUND('',#230,.T.);
#151=FACE_OUTER_BOUND('',#231,.T.);
#152=EDGE_LOOP('',(#786,#787,#788,#789));
#153=EDGE_LOOP('',(#790,#791,#792,#793));
#154=EDGE_LOOP('',(#794,#795,#796,#797));
#155=EDGE_LOOP('',(#798,#799,#800,#801));
#156=EDGE_LOOP('',(#802,#803,#804,#805));
#157=EDGE_LOOP('',(#806,#807,#808,#809));
#158=EDGE_LOOP('',(#810,#811,#812,#813));
#159=EDGE_LOOP('',(#814,#815,#816,#817));
#160=EDGE_LOOP('',(#818,#819,#820,#821));
#161=EDGE_LOOP('',(#822,#823,#824,#825,#826,#827,#828,#829));
#162=EDGE_LOOP('',(#830,#831,#832,#833,#834));
#163=EDGE_LOOP('',(#835,#836,#837,#838,#839));
#164=EDGE_LOOP('',(#840,#841,#842,#843,#844,#845,#846,#847,#848));
#165=EDGE_LOOP('',(#849,#850,#851,#852));
#166=EDGE_LOOP('',(#853));
#167=EDGE_LOOP('',(#854));
#168=EDGE_LOOP('',(#855));
#169=EDGE_LOOP('',(#856,#857,#858,#859));
#170=EDGE_LOOP('',(#860,#861,#862,#863,#864,#865));
#171=EDGE_LOOP('',(#866));
#172=EDGE_LOOP('',(#867));
#173=EDGE_LOOP('',(#868,#869,#870,#871,#872,#873,#874,#875,#876));
#174=EDGE_LOOP('',(#877,#878,#879,#880,#881,#882));
#175=EDGE_LOOP('',(#883,#884,#885,#886,#887,#888,#889,#890));
#176=EDGE_LOOP('',(#891,#892,#893,#894,#895,#896));
#177=EDGE_LOOP('',(#897,#898,#899,#900));
#178=EDGE_LOOP('',(#901,#902,#903,#904));
#179=EDGE_LOOP('',(#905,#906,#907,#908,#909,#910,#911,#912));
#180=EDGE_LOOP('',(#913,#914,#915,#916));
#181=EDGE_LOOP('',(#917,#918,#919,#920,#921,#922,#923,#924,#925,#926,#927,
#928,#929,#930,#931,#932));
#182=EDGE_LOOP('',(#933));
#183=EDGE_LOOP('',(#934));
#184=EDGE_LOOP('',(#935,#936,#937,#938,#939,#940,#941,#942,#943,#944,#945,
#946,#947,#948,#949,#950));
#185=EDGE_LOOP('',(#951));
#186=EDGE_LOOP('',(#952));
#187=EDGE_LOOP('',(#953,#954,#955,#956));
#188=EDGE_LOOP('',(#957,#958,#959,#960));
#189=EDGE_LOOP('',(#961,#962,#963,#964,#965,#966,#967,#968,#969,#970,#971,
#972));
#190=EDGE_LOOP('',(#973));
#191=EDGE_LOOP('',(#974));
#192=EDGE_LOOP('',(#975));
#193=EDGE_LOOP('',(#976,#977));
#194=EDGE_LOOP('',(#978,#979));
#195=EDGE_LOOP('',(#980,#981));
#196=EDGE_LOOP('',(#982,#983));
#197=EDGE_LOOP('',(#984,#985));
#198=EDGE_LOOP('',(#986,#987,#988,#989));
#199=EDGE_LOOP('',(#990,#991));
#200=EDGE_LOOP('',(#992,#993,#994,#995));
#201=EDGE_LOOP('',(#996,#997));
#202=EDGE_LOOP('',(#998,#999));
#203=EDGE_LOOP('',(#1000,#1001));
#204=EDGE_LOOP('',(#1002,#1003,#1004,#1005));
#205=EDGE_LOOP('',(#1006,#1007));
#206=EDGE_LOOP('',(#1008,#1009,#1010,#1011));
#207=EDGE_LOOP('',(#1012,#1013,#1014,#1015));
#208=EDGE_LOOP('',(#1016,#1017,#1018,#1019));
#209=EDGE_LOOP('',(#1020,#1021,#1022,#1023));
#210=EDGE_LOOP('',(#1024,#1025,#1026,#1027));
#211=EDGE_LOOP('',(#1028,#1029,#1030,#1031));
#212=EDGE_LOOP('',(#1032,#1033,#1034,#1035));
#213=EDGE_LOOP('',(#1036,#1037,#1038,#1039));
#214=EDGE_LOOP('',(#1040,#1041,#1042,#1043));
#215=EDGE_LOOP('',(#1044,#1045,#1046,#1047,#1048,#1049,#1050,#1051,#1052,
#1053,#1054,#1055));
#216=EDGE_LOOP('',(#1056,#1057,#1058,#1059));
#217=EDGE_LOOP('',(#1060,#1061,#1062,#1063,#1064));
#218=EDGE_LOOP('',(#1065,#1066,#1067,#1068,#1069,#1070,#1071,#1072,#1073,
#1074,#1075,#1076));
#219=EDGE_LOOP('',(#1077,#1078,#1079,#1080));
#220=EDGE_LOOP('',(#1081,#1082,#1083,#1084,#1085));
#221=EDGE_LOOP('',(#1086,#1087,#1088,#1089));
#222=EDGE_LOOP('',(#1090,#1091,#1092,#1093));
#223=EDGE_LOOP('',(#1094,#1095,#1096,#1097));
#224=EDGE_LOOP('',(#1098,#1099,#1100,#1101));
#225=EDGE_LOOP('',(#1102,#1103,#1104,#1105));
#226=EDGE_LOOP('',(#1106,#1107,#1108,#1109));
#227=EDGE_LOOP('',(#1110,#1111,#1112,#1113));
#228=EDGE_LOOP('',(#1114,#1115,#1116,#1117));
#229=EDGE_LOOP('',(#1118,#1119,#1120,#1121));
#230=EDGE_LOOP('',(#1122,#1123,#1124,#1125));
#231=EDGE_LOOP('',(#1126,#1127,#1128,#1129));
#232=LINE('',#1716,#366);
#233=LINE('',#1718,#367);
#234=LINE('',#1720,#368);
#235=LINE('',#1721,#369);
#236=LINE('',#1724,#370);
#237=LINE('',#1726,#371);
#238=LINE('',#1727,#372);
#239=LINE('',#1730,#373);
#240=LINE('',#1732,#374);
#241=LINE('',#1734,#375);
#242=LINE('',#1735,#376);
#243=LINE('',#1740,#377);
#244=LINE('',#1746,#378);
#245=LINE('',#1752,#379);
#246=LINE('',#1757,#380);
#247=LINE('',#1759,#381);
#248=LINE('',#1761,#382);
#249=LINE('',#1762,#383);
#250=LINE('',#1766,#384);
#251=LINE('',#1768,#385);
#252=LINE('',#1770,#386);
#253=LINE('',#1771,#387);
#254=LINE('',#1777,#388);
#255=LINE('',#1780,#389);
#256=LINE('',#1786,#390);
#257=LINE('',#1789,#391);
#258=LINE('',#1791,#392);
#259=LINE('',#1794,#393);
#260=LINE('',#1797,#394);
#261=LINE('',#1799,#395);
#262=LINE('',#1801,#396);
#263=LINE('',#1802,#397);
#264=LINE('',#1806,#398);
#265=LINE('',#1808,#399);
#266=LINE('',#1810,#400);
#267=LINE('',#1812,#401);
#268=LINE('',#1813,#402);
#269=LINE('',#1815,#403);
#270=LINE('',#1817,#404);
#271=LINE('',#1819,#405);
#272=LINE('',#1821,#406);
#273=LINE('',#1823,#407);
#274=LINE('',#1824,#408);
#275=LINE('',#1826,#409);
#276=LINE('',#1827,#410);
#277=LINE('',#1830,#411);
#278=LINE('',#1832,#412);
#279=LINE('',#1833,#413);
#280=LINE('',#1835,#414);
#281=LINE('',#1842,#415);
#282=LINE('',#1844,#416);
#283=LINE('',#1846,#417);
#284=LINE('',#1848,#418);
#285=LINE('',#1849,#419);
#286=LINE('',#1851,#420);
#287=LINE('',#1852,#421);
#288=LINE('',#1855,#422);
#289=LINE('',#1859,#423);
#290=LINE('',#1862,#424);
#291=LINE('',#1865,#425);
#292=LINE('',#1867,#426);
#293=LINE('',#1871,#427);
#294=LINE('',#1873,#428);
#295=LINE('',#1874,#429);
#296=LINE('',#1877,#430);
#297=LINE('',#1880,#431);
#298=LINE('',#1883,#432);
#299=LINE('',#1886,#433);
#300=LINE('',#1888,#434);
#301=LINE('',#1891,#435);
#302=LINE('',#1894,#436);
#303=LINE('',#1897,#437);
#304=LINE('',#1899,#438);
#305=LINE('',#1900,#439);
#306=LINE('',#1902,#440);
#307=LINE('',#1904,#441);
#308=LINE('',#1906,#442);
#309=LINE('',#1907,#443);
#310=LINE('',#1913,#444);
#311=LINE('',#1915,#445);
#312=LINE('',#1917,#446);
#313=LINE('',#1919,#447);
#314=LINE('',#1920,#448);
#315=LINE('',#1921,#449);
#316=LINE('',#1927,#450);
#317=LINE('',#1929,#451);
#318=LINE('',#1931,#452);
#319=LINE('',#1932,#453);
#320=LINE('',#1941,#454);
#321=LINE('',#1944,#455);
#322=LINE('',#1946,#456);
#323=LINE('',#1947,#457);
#324=LINE('',#1952,#458);
#325=LINE('',#1955,#459);
#326=LINE('',#1957,#460);
#327=LINE('',#1958,#461);
#328=LINE('',#1965,#462);
#329=LINE('',#1968,#463);
#330=LINE('',#1970,#464);
#331=LINE('',#1971,#465);
#332=LINE('',#1976,#466);
#333=LINE('',#1979,#467);
#334=LINE('',#1981,#468);
#335=LINE('',#1982,#469);
#336=LINE('',#1986,#470);
#337=LINE('',#1988,#471);
#338=LINE('',#1990,#472);
#339=LINE('',#1991,#473);
#340=LINE('',#1995,#474);
#341=LINE('',#1997,#475);
#342=LINE('',#1999,#476);
#343=LINE('',#2000,#477);
#344=LINE('',#2005,#478);
#345=LINE('',#2006,#479);
#346=LINE('',#2011,#480);
#347=LINE('',#2012,#481);
#348=LINE('',#2017,#482);
#349=LINE('',#2018,#483);
#350=LINE('',#2020,#484);
#351=LINE('',#2021,#485);
#352=LINE('',#2024,#486);
#353=LINE('',#2026,#487);
#354=LINE('',#2027,#488);
#355=LINE('',#2030,#489);
#356=LINE('',#2034,#490);
#357=LINE('',#2041,#491);
#358=LINE('',#2046,#492);
#359=LINE('',#2047,#493);
#360=LINE('',#2049,#494);
#361=LINE('',#2051,#495);
#362=LINE('',#2054,#496);
#363=LINE('',#2056,#497);
#364=LINE('',#2058,#498);
#365=LINE('',#2060,#499);
#366=VECTOR('',#1372,10.);
#367=VECTOR('',#1373,10.);
#368=VECTOR('',#1374,10.);
#369=VECTOR('',#1375,10.);
#370=VECTOR('',#1378,10.);
#371=VECTOR('',#1379,10.);
#372=VECTOR('',#1380,10.);
#373=VECTOR('',#1381,10.);
#374=VECTOR('',#1382,10.);
#375=VECTOR('',#1383,10.);
#376=VECTOR('',#1384,10.);
#377=VECTOR('',#1389,1.);
#378=VECTOR('',#1396,1.);
#379=VECTOR('',#1403,1.);
#380=VECTOR('',#1408,10.);
#381=VECTOR('',#1409,10.);
#382=VECTOR('',#1410,10.);
#383=VECTOR('',#1411,10.);
#384=VECTOR('',#1414,10.);
#385=VECTOR('',#1415,10.);
#386=VECTOR('',#1416,10.);
#387=VECTOR('',#1417,10.);
#388=VECTOR('',#1422,10.);
#389=VECTOR('',#1425,10.);
#390=VECTOR('',#1430,10.);
#391=VECTOR('',#1433,10.);
#392=VECTOR('',#1434,10.);
#393=VECTOR('',#1437,10.);
#394=VECTOR('',#1440,10.);
#395=VECTOR('',#1441,10.);
#396=VECTOR('',#1442,10.);
#397=VECTOR('',#1443,10.);
#398=VECTOR('',#1446,10.);
#399=VECTOR('',#1447,10.);
#400=VECTOR('',#1448,10.);
#401=VECTOR('',#1449,10.);
#402=VECTOR('',#1450,10.);
#403=VECTOR('',#1453,10.);
#404=VECTOR('',#1454,10.);
#405=VECTOR('',#1455,10.);
#406=VECTOR('',#1456,10.);
#407=VECTOR('',#1457,10.);
#408=VECTOR('',#1458,10.);
#409=VECTOR('',#1461,10.);
#410=VECTOR('',#1462,10.);
#411=VECTOR('',#1465,10.);
#412=VECTOR('',#1466,10.);
#413=VECTOR('',#1467,10.);
#414=VECTOR('',#1470,10.);
#415=VECTOR('',#1477,10.);
#416=VECTOR('',#1478,10.);
#417=VECTOR('',#1479,10.);
#418=VECTOR('',#1480,10.);
#419=VECTOR('',#1481,10.);
#420=VECTOR('',#1484,10.);
#421=VECTOR('',#1485,10.);
#422=VECTOR('',#1488,10.);
#423=VECTOR('',#1491,10.);
#424=VECTOR('',#1494,10.);
#425=VECTOR('',#1497,10.);
#426=VECTOR('',#1498,10.);
#427=VECTOR('',#1503,10.);
#428=VECTOR('',#1504,10.);
#429=VECTOR('',#1505,10.);
#430=VECTOR('',#1508,10.);
#431=VECTOR('',#1511,10.);
#432=VECTOR('',#1514,10.);
#433=VECTOR('',#1517,10.);
#434=VECTOR('',#1518,10.);
#435=VECTOR('',#1521,10.);
#436=VECTOR('',#1524,10.);
#437=VECTOR('',#1527,10.);
#438=VECTOR('',#1530,10.);
#439=VECTOR('',#1531,10.);
#440=VECTOR('',#1532,10.);
#441=VECTOR('',#1533,10.);
#442=VECTOR('',#1534,10.);
#443=VECTOR('',#1535,10.);
#444=VECTOR('',#1542,10.);
#445=VECTOR('',#1543,10.);
#446=VECTOR('',#1544,10.);
#447=VECTOR('',#1545,10.);
#448=VECTOR('',#1546,10.);
#449=VECTOR('',#1547,10.);
#450=VECTOR('',#1554,10.);
#451=VECTOR('',#1557,10.);
#452=VECTOR('',#1560,10.);
#453=VECTOR('',#1561,10.);
#454=VECTOR('',#1574,10.);
#455=VECTOR('',#1577,10.);
#456=VECTOR('',#1578,10.);
#457=VECTOR('',#1579,10.);
#458=VECTOR('',#1584,10.);
#459=VECTOR('',#1587,10.);
#460=VECTOR('',#1588,10.);
#461=VECTOR('',#1589,10.);
#462=VECTOR('',#1598,10.);
#463=VECTOR('',#1601,10.);
#464=VECTOR('',#1602,10.);
#465=VECTOR('',#1603,10.);
#466=VECTOR('',#1608,10.);
#467=VECTOR('',#1611,10.);
#468=VECTOR('',#1612,10.);
#469=VECTOR('',#1613,10.);
#470=VECTOR('',#1616,10.);
#471=VECTOR('',#1617,10.);
#472=VECTOR('',#1618,10.);
#473=VECTOR('',#1619,10.);
#474=VECTOR('',#1622,10.);
#475=VECTOR('',#1623,10.);
#476=VECTOR('',#1624,10.);
#477=VECTOR('',#1625,10.);
#478=VECTOR('',#1630,10.);
#479=VECTOR('',#1631,10.);
#480=VECTOR('',#1636,10.);
#481=VECTOR('',#1637,10.);
#482=VECTOR('',#1642,10.);
#483=VECTOR('',#1643,10.);
#484=VECTOR('',#1646,10.);
#485=VECTOR('',#1647,10.);
#486=VECTOR('',#1650,10.);
#487=VECTOR('',#1651,10.);
#488=VECTOR('',#1652,10.);
#489=VECTOR('',#1657,10.);
#490=VECTOR('',#1662,2.8);
#491=VECTOR('',#1673,2.8);
#492=VECTOR('',#1682,10.);
#493=VECTOR('',#1683,10.);
#494=VECTOR('',#1686,10.);
#495=VECTOR('',#1689,10.);
#496=VECTOR('',#1694,2.8);
#497=VECTOR('',#1697,2.8);
#498=VECTOR('',#1700,10.);
#499=VECTOR('',#1703,10.);
#500=VERTEX_POINT('',#1714);
#501=VERTEX_POINT('',#1715);
#502=VERTEX_POINT('',#1717);
#503=VERTEX_POINT('',#1719);
#504=VERTEX_POINT('',#1723);
#505=VERTEX_POINT('',#1725);
#506=VERTEX_POINT('',#1728);
#507=VERTEX_POINT('',#1729);
#508=VERTEX_POINT('',#1731);
#509=VERTEX_POINT('',#1733);
#510=VERTEX_POINT('',#1737);
#511=VERTEX_POINT('',#1739);
#512=VERTEX_POINT('',#1743);
#513=VERTEX_POINT('',#1745);
#514=VERTEX_POINT('',#1749);
#515=VERTEX_POINT('',#1751);
#516=VERTEX_POINT('',#1755);
#517=VERTEX_POINT('',#1756);
#518=VERTEX_POINT('',#1758);
#519=VERTEX_POINT('',#1760);
#520=VERTEX_POINT('',#1764);
#521=VERTEX_POINT('',#1765);
#522=VERTEX_POINT('',#1767);
#523=VERTEX_POINT('',#1769);
#524=VERTEX_POINT('',#1773);
#525=VERTEX_POINT('',#1774);
#526=VERTEX_POINT('',#1776);
#527=VERTEX_POINT('',#1778);
#528=VERTEX_POINT('',#1782);
#529=VERTEX_POINT('',#1783);
#530=VERTEX_POINT('',#1785);
#531=VERTEX_POINT('',#1787);
#532=VERTEX_POINT('',#1790);
#533=VERTEX_POINT('',#1792);
#534=VERTEX_POINT('',#1796);
#535=VERTEX_POINT('',#1798);
#536=VERTEX_POINT('',#1800);
#537=VERTEX_POINT('',#1804);
#538=VERTEX_POINT('',#1805);
#539=VERTEX_POINT('',#1807);
#540=VERTEX_POINT('',#1809);
#541=VERTEX_POINT('',#1811);
#542=VERTEX_POINT('',#1816);
#543=VERTEX_POINT('',#1818);
#544=VERTEX_POINT('',#1820);
#545=VERTEX_POINT('',#1822);
#546=VERTEX_POINT('',#1829);
#547=VERTEX_POINT('',#1831);
#548=VERTEX_POINT('',#1836);
#549=VERTEX_POINT('',#1838);
#550=VERTEX_POINT('',#1841);
#551=VERTEX_POINT('',#1843);
#552=VERTEX_POINT('',#1845);
#553=VERTEX_POINT('',#1847);
#554=VERTEX_POINT('',#1854);
#555=VERTEX_POINT('',#1856);
#556=VERTEX_POINT('',#1858);
#557=VERTEX_POINT('',#1860);
#558=VERTEX_POINT('',#1864);
#559=VERTEX_POINT('',#1866);
#560=VERTEX_POINT('',#1870);
#561=VERTEX_POINT('',#1872);
#562=VERTEX_POINT('',#1876);
#563=VERTEX_POINT('',#1878);
#564=VERTEX_POINT('',#1882);
#565=VERTEX_POINT('',#1884);
#566=VERTEX_POINT('',#1887);
#567=VERTEX_POINT('',#1889);
#568=VERTEX_POINT('',#1893);
#569=VERTEX_POINT('',#1895);
#570=VERTEX_POINT('',#1901);
#571=VERTEX_POINT('',#1903);
#572=VERTEX_POINT('',#1905);
#573=VERTEX_POINT('',#1908);
#574=VERTEX_POINT('',#1910);
#575=VERTEX_POINT('',#1914);
#576=VERTEX_POINT('',#1916);
#577=VERTEX_POINT('',#1918);
#578=VERTEX_POINT('',#1922);
#579=VERTEX_POINT('',#1924);
#580=VERTEX_POINT('',#1938);
#581=VERTEX_POINT('',#1939);
#582=VERTEX_POINT('',#1943);
#583=VERTEX_POINT('',#1945);
#584=VERTEX_POINT('',#1949);
#585=VERTEX_POINT('',#1950);
#586=VERTEX_POINT('',#1954);
#587=VERTEX_POINT('',#1956);
#588=VERTEX_POINT('',#1962);
#589=VERTEX_POINT('',#1963);
#590=VERTEX_POINT('',#1967);
#591=VERTEX_POINT('',#1969);
#592=VERTEX_POINT('',#1973);
#593=VERTEX_POINT('',#1974);
#594=VERTEX_POINT('',#1978);
#595=VERTEX_POINT('',#1980);
#596=VERTEX_POINT('',#1984);
#597=VERTEX_POINT('',#1985);
#598=VERTEX_POINT('',#1987);
#599=VERTEX_POINT('',#1989);
#600=VERTEX_POINT('',#1993);
#601=VERTEX_POINT('',#1994);
#602=VERTEX_POINT('',#1996);
#603=VERTEX_POINT('',#1998);
#604=VERTEX_POINT('',#2002);
#605=VERTEX_POINT('',#2004);
#606=VERTEX_POINT('',#2008);
#607=VERTEX_POINT('',#2010);
#608=VERTEX_POINT('',#2014);
#609=VERTEX_POINT('',#2016);
#610=VERTEX_POINT('',#2023);
#611=VERTEX_POINT('',#2025);
#612=VERTEX_POINT('',#2032);
#613=VERTEX_POINT('',#2039);
#614=EDGE_CURVE('',#500,#501,#232,.T.);
#615=EDGE_CURVE('',#500,#502,#233,.T.);
#616=EDGE_CURVE('',#503,#502,#234,.T.);
#617=EDGE_CURVE('',#501,#503,#235,.T.);
#618=EDGE_CURVE('',#502,#504,#236,.T.);
#619=EDGE_CURVE('',#504,#505,#237,.T.);
#620=EDGE_CURVE('',#505,#503,#238,.T.);
#621=EDGE_CURVE('',#506,#507,#239,.T.);
#622=EDGE_CURVE('',#507,#508,#240,.T.);
#623=EDGE_CURVE('',#508,#509,#241,.T.);
#624=EDGE_CURVE('',#509,#506,#242,.T.);
#625=EDGE_CURVE('',#510,#510,#23,.T.);
#626=EDGE_CURVE('',#510,#511,#243,.T.);
#627=EDGE_CURVE('',#511,#511,#24,.T.);
#628=EDGE_CURVE('',#512,#512,#25,.T.);
#629=EDGE_CURVE('',#512,#513,#244,.T.);
#630=EDGE_CURVE('',#513,#513,#26,.T.);
#631=EDGE_CURVE('',#514,#514,#27,.T.);
#632=EDGE_CURVE('',#514,#515,#245,.T.);
#633=EDGE_CURVE('',#515,#515,#28,.T.);
#634=EDGE_CURVE('',#516,#517,#246,.T.);
#635=EDGE_CURVE('',#518,#517,#247,.T.);
#636=EDGE_CURVE('',#518,#519,#248,.T.);
#637=EDGE_CURVE('',#516,#519,#249,.T.);
#638=EDGE_CURVE('',#520,#521,#250,.T.);
#639=EDGE_CURVE('',#521,#522,#251,.T.);
#640=EDGE_CURVE('',#522,#523,#252,.T.);
#641=EDGE_CURVE('',#523,#520,#253,.T.);
#642=EDGE_CURVE('',#524,#525,#29,.T.);
#643=EDGE_CURVE('',#524,#526,#254,.T.);
#644=EDGE_CURVE('',#527,#526,#30,.T.);
#645=EDGE_CURVE('',#525,#527,#255,.T.);
#646=EDGE_CURVE('',#528,#529,#31,.T.);
#647=EDGE_CURVE('',#530,#529,#256,.T.);
#648=EDGE_CURVE('',#530,#531,#32,.T.);
#649=EDGE_CURVE('',#527,#531,#257,.T.);
#650=EDGE_CURVE('',#526,#532,#258,.T.);
#651=EDGE_CURVE('',#533,#532,#33,.T.);
#652=EDGE_CURVE('',#533,#528,#259,.T.);
#653=EDGE_CURVE('',#534,#517,#260,.T.);
#654=EDGE_CURVE('',#535,#516,#261,.T.);
#655=EDGE_CURVE('',#536,#535,#262,.T.);
#656=EDGE_CURVE('',#536,#534,#263,.T.);
#657=EDGE_CURVE('',#537,#538,#264,.T.);
#658=EDGE_CURVE('',#537,#539,#265,.T.);
#659=EDGE_CURVE('',#539,#540,#266,.T.);
#660=EDGE_CURVE('',#540,#541,#267,.T.);
#661=EDGE_CURVE('',#538,#541,#268,.T.);
#662=EDGE_CURVE('',#518,#501,#269,.T.);
#663=EDGE_CURVE('',#542,#505,#270,.T.);
#664=EDGE_CURVE('',#543,#542,#271,.T.);
#665=EDGE_CURVE('',#544,#543,#272,.T.);
#666=EDGE_CURVE('',#545,#544,#273,.T.);
#667=EDGE_CURVE('',#519,#545,#274,.T.);
#668=EDGE_CURVE('',#517,#537,#275,.T.);
#669=EDGE_CURVE('',#539,#534,#276,.T.);
#670=EDGE_CURVE('',#546,#538,#277,.T.);
#671=EDGE_CURVE('',#547,#546,#278,.T.);
#672=EDGE_CURVE('',#537,#547,#279,.T.);
#673=EDGE_CURVE('',#500,#547,#280,.T.);
#674=EDGE_CURVE('',#548,#548,#34,.T.);
#675=EDGE_CURVE('',#549,#549,#35,.T.);
#676=EDGE_CURVE('',#550,#546,#281,.T.);
#677=EDGE_CURVE('',#551,#550,#282,.T.);
#678=EDGE_CURVE('',#552,#551,#283,.T.);
#679=EDGE_CURVE('',#553,#552,#284,.T.);
#680=EDGE_CURVE('',#553,#504,#285,.T.);
#681=EDGE_CURVE('',#529,#545,#286,.T.);
#682=EDGE_CURVE('',#528,#535,#287,.T.);
#683=EDGE_CURVE('',#554,#553,#288,.T.);
#684=EDGE_CURVE('',#555,#554,#36,.T.);
#685=EDGE_CURVE('',#556,#555,#289,.T.);
#686=EDGE_CURVE('',#557,#556,#37,.T.);
#687=EDGE_CURVE('',#542,#557,#290,.T.);
#688=EDGE_CURVE('',#550,#558,#291,.T.);
#689=EDGE_CURVE('',#541,#559,#292,.T.);
#690=EDGE_CURVE('',#558,#559,#38,.T.);
#691=EDGE_CURVE('',#543,#560,#293,.T.);
#692=EDGE_CURVE('',#560,#561,#294,.T.);
#693=EDGE_CURVE('',#561,#544,#295,.T.);
#694=EDGE_CURVE('',#556,#562,#296,.T.);
#695=EDGE_CURVE('',#562,#563,#39,.T.);
#696=EDGE_CURVE('',#557,#563,#297,.T.);
#697=EDGE_CURVE('',#559,#564,#298,.T.);
#698=EDGE_CURVE('',#565,#564,#40,.T.);
#699=EDGE_CURVE('',#565,#524,#299,.T.);
#700=EDGE_CURVE('',#525,#566,#300,.T.);
#701=EDGE_CURVE('',#566,#567,#41,.T.);
#702=EDGE_CURVE('',#558,#567,#301,.T.);
#703=EDGE_CURVE('',#568,#554,#302,.T.);
#704=EDGE_CURVE('',#568,#569,#42,.T.);
#705=EDGE_CURVE('',#555,#569,#303,.T.);
#706=EDGE_CURVE('',#563,#562,#304,.T.);
#707=EDGE_CURVE('',#569,#568,#305,.T.);
#708=EDGE_CURVE('',#570,#552,#306,.T.);
#709=EDGE_CURVE('',#571,#570,#307,.T.);
#710=EDGE_CURVE('',#571,#572,#308,.T.);
#711=EDGE_CURVE('',#572,#560,#309,.T.);
#712=EDGE_CURVE('',#573,#573,#43,.T.);
#713=EDGE_CURVE('',#574,#574,#44,.T.);
#714=EDGE_CURVE('',#531,#530,#310,.T.);
#715=EDGE_CURVE('',#561,#575,#311,.T.);
#716=EDGE_CURVE('',#575,#576,#312,.T.);
#717=EDGE_CURVE('',#576,#577,#313,.T.);
#718=EDGE_CURVE('',#551,#577,#314,.T.);
#719=EDGE_CURVE('',#567,#566,#315,.T.);
#720=EDGE_CURVE('',#578,#578,#45,.T.);
#721=EDGE_CURVE('',#579,#579,#46,.T.);
#722=EDGE_CURVE('',#577,#570,#316,.T.);
#723=EDGE_CURVE('',#536,#540,#317,.T.);
#724=EDGE_CURVE('',#532,#533,#318,.T.);
#725=EDGE_CURVE('',#564,#565,#319,.T.);
#726=EDGE_CURVE('',#580,#581,#47,.T.);
#727=EDGE_CURVE('',#580,#581,#320,.T.);
#728=EDGE_CURVE('',#581,#582,#321,.T.);
#729=EDGE_CURVE('',#583,#582,#322,.T.);
#730=EDGE_CURVE('',#583,#580,#323,.T.);
#731=EDGE_CURVE('',#584,#585,#48,.T.);
#732=EDGE_CURVE('',#584,#585,#324,.T.);
#733=EDGE_CURVE('',#585,#586,#325,.T.);
#734=EDGE_CURVE('',#587,#586,#326,.T.);
#735=EDGE_CURVE('',#587,#584,#327,.T.);
#736=EDGE_CURVE('',#588,#589,#49,.T.);
#737=EDGE_CURVE('',#588,#589,#328,.T.);
#738=EDGE_CURVE('',#589,#590,#329,.T.);
#739=EDGE_CURVE('',#591,#590,#330,.T.);
#740=EDGE_CURVE('',#591,#588,#331,.T.);
#741=EDGE_CURVE('',#592,#593,#50,.T.);
#742=EDGE_CURVE('',#592,#593,#332,.T.);
#743=EDGE_CURVE('',#593,#594,#333,.T.);
#744=EDGE_CURVE('',#595,#594,#334,.T.);
#745=EDGE_CURVE('',#595,#592,#335,.T.);
#746=EDGE_CURVE('',#596,#597,#336,.T.);
#747=EDGE_CURVE('',#596,#598,#337,.T.);
#748=EDGE_CURVE('',#599,#598,#338,.T.);
#749=EDGE_CURVE('',#599,#597,#339,.T.);
#750=EDGE_CURVE('',#600,#601,#340,.T.);
#751=EDGE_CURVE('',#600,#602,#341,.T.);
#752=EDGE_CURVE('',#603,#602,#342,.T.);
#753=EDGE_CURVE('',#603,#601,#343,.T.);
#754=EDGE_CURVE('',#604,#596,#51,.T.);
#755=EDGE_CURVE('',#605,#604,#344,.T.);
#756=EDGE_CURVE('',#598,#605,#345,.T.);
#757=EDGE_CURVE('',#601,#606,#52,.T.);
#758=EDGE_CURVE('',#607,#603,#346,.T.);
#759=EDGE_CURVE('',#606,#607,#347,.T.);
#760=EDGE_CURVE('',#597,#608,#53,.T.);
#761=EDGE_CURVE('',#609,#599,#348,.T.);
#762=EDGE_CURVE('',#609,#608,#349,.T.);
#763=EDGE_CURVE('',#608,#604,#350,.T.);
#764=EDGE_CURVE('',#605,#609,#351,.T.);
#765=EDGE_CURVE('',#606,#610,#352,.T.);
#766=EDGE_CURVE('',#611,#607,#353,.T.);
#767=EDGE_CURVE('',#610,#611,#354,.T.);
#768=EDGE_CURVE('',#610,#600,#54,.T.);
#769=EDGE_CURVE('',#602,#611,#355,.T.);
#770=EDGE_CURVE('',#612,#587,#55,.T.);
#771=EDGE_CURVE('',#612,#548,#356,.T.);
#772=EDGE_CURVE('',#594,#612,#56,.T.);
#773=EDGE_CURVE('',#586,#595,#57,.T.);
#774=EDGE_CURVE('',#613,#583,#58,.T.);
#775=EDGE_CURVE('',#613,#549,#357,.T.);
#776=EDGE_CURVE('',#590,#613,#59,.T.);
#777=EDGE_CURVE('',#582,#591,#60,.T.);
#778=EDGE_CURVE('',#521,#509,#358,.T.);
#779=EDGE_CURVE('',#520,#506,#359,.T.);
#780=EDGE_CURVE('',#523,#507,#360,.T.);
#781=EDGE_CURVE('',#522,#508,#361,.T.);
#782=EDGE_CURVE('',#574,#578,#362,.T.);
#783=EDGE_CURVE('',#573,#579,#363,.T.);
#784=EDGE_CURVE('',#575,#572,#364,.T.);
#785=EDGE_CURVE('',#576,#571,#365,.T.);
#786=ORIENTED_EDGE('',*,*,#614,.F.);
#787=ORIENTED_EDGE('',*,*,#615,.T.);
#788=ORIENTED_EDGE('',*,*,#616,.F.);
#789=ORIENTED_EDGE('',*,*,#617,.F.);
#790=ORIENTED_EDGE('',*,*,#616,.T.);
#791=ORIENTED_EDGE('',*,*,#618,.T.);
#792=ORIENTED_EDGE('',*,*,#619,.T.);
#793=ORIENTED_EDGE('',*,*,#620,.T.);
#794=ORIENTED_EDGE('',*,*,#621,.T.);
#795=ORIENTED_EDGE('',*,*,#622,.T.);
#796=ORIENTED_EDGE('',*,*,#623,.T.);
#797=ORIENTED_EDGE('',*,*,#624,.T.);
#798=ORIENTED_EDGE('',*,*,#625,.F.);
#799=ORIENTED_EDGE('',*,*,#626,.T.);
#800=ORIENTED_EDGE('',*,*,#627,.F.);
#801=ORIENTED_EDGE('',*,*,#626,.F.);
#802=ORIENTED_EDGE('',*,*,#628,.F.);
#803=ORIENTED_EDGE('',*,*,#629,.T.);
#804=ORIENTED_EDGE('',*,*,#630,.F.);
#805=ORIENTED_EDGE('',*,*,#629,.F.);
#806=ORIENTED_EDGE('',*,*,#631,.F.);
#807=ORIENTED_EDGE('',*,*,#632,.T.);
#808=ORIENTED_EDGE('',*,*,#633,.F.);
#809=ORIENTED_EDGE('',*,*,#632,.F.);
#810=ORIENTED_EDGE('',*,*,#634,.T.);
#811=ORIENTED_EDGE('',*,*,#635,.F.);
#812=ORIENTED_EDGE('',*,*,#636,.T.);
#813=ORIENTED_EDGE('',*,*,#637,.F.);
#814=ORIENTED_EDGE('',*,*,#638,.T.);
#815=ORIENTED_EDGE('',*,*,#639,.T.);
#816=ORIENTED_EDGE('',*,*,#640,.T.);
#817=ORIENTED_EDGE('',*,*,#641,.T.);
#818=ORIENTED_EDGE('',*,*,#642,.F.);
#819=ORIENTED_EDGE('',*,*,#643,.T.);
#820=ORIENTED_EDGE('',*,*,#644,.F.);
#821=ORIENTED_EDGE('',*,*,#645,.F.);
#822=ORIENTED_EDGE('',*,*,#646,.T.);
#823=ORIENTED_EDGE('',*,*,#647,.F.);
#824=ORIENTED_EDGE('',*,*,#648,.T.);
#825=ORIENTED_EDGE('',*,*,#649,.F.);
#826=ORIENTED_EDGE('',*,*,#644,.T.);
#827=ORIENTED_EDGE('',*,*,#650,.T.);
#828=ORIENTED_EDGE('',*,*,#651,.F.);
#829=ORIENTED_EDGE('',*,*,#652,.T.);
#830=ORIENTED_EDGE('',*,*,#653,.T.);
#831=ORIENTED_EDGE('',*,*,#634,.F.);
#832=ORIENTED_EDGE('',*,*,#654,.F.);
#833=ORIENTED_EDGE('',*,*,#655,.F.);
#834=ORIENTED_EDGE('',*,*,#656,.T.);
#835=ORIENTED_EDGE('',*,*,#657,.F.);
#836=ORIENTED_EDGE('',*,*,#658,.T.);
#837=ORIENTED_EDGE('',*,*,#659,.T.);
#838=ORIENTED_EDGE('',*,*,#660,.T.);
#839=ORIENTED_EDGE('',*,*,#661,.F.);
#840=ORIENTED_EDGE('',*,*,#662,.T.);
#841=ORIENTED_EDGE('',*,*,#617,.T.);
#842=ORIENTED_EDGE('',*,*,#620,.F.);
#843=ORIENTED_EDGE('',*,*,#663,.F.);
#844=ORIENTED_EDGE('',*,*,#664,.F.);
#845=ORIENTED_EDGE('',*,*,#665,.F.);
#846=ORIENTED_EDGE('',*,*,#666,.F.);
#847=ORIENTED_EDGE('',*,*,#667,.F.);
#848=ORIENTED_EDGE('',*,*,#636,.F.);
#849=ORIENTED_EDGE('',*,*,#668,.F.);
#850=ORIENTED_EDGE('',*,*,#653,.F.);
#851=ORIENTED_EDGE('',*,*,#669,.F.);
#852=ORIENTED_EDGE('',*,*,#658,.F.);
#853=ORIENTED_EDGE('',*,*,#625,.T.);
#854=ORIENTED_EDGE('',*,*,#628,.T.);
#855=ORIENTED_EDGE('',*,*,#631,.T.);
#856=ORIENTED_EDGE('',*,*,#657,.T.);
#857=ORIENTED_EDGE('',*,*,#670,.F.);
#858=ORIENTED_EDGE('',*,*,#671,.F.);
#859=ORIENTED_EDGE('',*,*,#672,.F.);
#860=ORIENTED_EDGE('',*,*,#662,.F.);
#861=ORIENTED_EDGE('',*,*,#635,.T.);
#862=ORIENTED_EDGE('',*,*,#668,.T.);
#863=ORIENTED_EDGE('',*,*,#672,.T.);
#864=ORIENTED_EDGE('',*,*,#673,.F.);
#865=ORIENTED_EDGE('',*,*,#614,.T.);
#866=ORIENTED_EDGE('',*,*,#674,.T.);
#867=ORIENTED_EDGE('',*,*,#675,.T.);
#868=ORIENTED_EDGE('',*,*,#673,.T.);
#869=ORIENTED_EDGE('',*,*,#671,.T.);
#870=ORIENTED_EDGE('',*,*,#676,.F.);
#871=ORIENTED_EDGE('',*,*,#677,.F.);
#872=ORIENTED_EDGE('',*,*,#678,.F.);
#873=ORIENTED_EDGE('',*,*,#679,.F.);
#874=ORIENTED_EDGE('',*,*,#680,.T.);
#875=ORIENTED_EDGE('',*,*,#618,.F.);
#876=ORIENTED_EDGE('',*,*,#615,.F.);
#877=ORIENTED_EDGE('',*,*,#681,.F.);
#878=ORIENTED_EDGE('',*,*,#646,.F.);
#879=ORIENTED_EDGE('',*,*,#682,.T.);
#880=ORIENTED_EDGE('',*,*,#654,.T.);
#881=ORIENTED_EDGE('',*,*,#637,.T.);
#882=ORIENTED_EDGE('',*,*,#667,.T.);
#883=ORIENTED_EDGE('',*,*,#683,.F.);
#884=ORIENTED_EDGE('',*,*,#684,.F.);
#885=ORIENTED_EDGE('',*,*,#685,.F.);
#886=ORIENTED_EDGE('',*,*,#686,.F.);
#887=ORIENTED_EDGE('',*,*,#687,.F.);
#888=ORIENTED_EDGE('',*,*,#663,.T.);
#889=ORIENTED_EDGE('',*,*,#619,.F.);
#890=ORIENTED_EDGE('',*,*,#680,.F.);
#891=ORIENTED_EDGE('',*,*,#688,.F.);
#892=ORIENTED_EDGE('',*,*,#676,.T.);
#893=ORIENTED_EDGE('',*,*,#670,.T.);
#894=ORIENTED_EDGE('',*,*,#661,.T.);
#895=ORIENTED_EDGE('',*,*,#689,.T.);
#896=ORIENTED_EDGE('',*,*,#690,.F.);
#897=ORIENTED_EDGE('',*,*,#665,.T.);
#898=ORIENTED_EDGE('',*,*,#691,.T.);
#899=ORIENTED_EDGE('',*,*,#692,.T.);
#900=ORIENTED_EDGE('',*,*,#693,.T.);
#901=ORIENTED_EDGE('',*,*,#686,.T.);
#902=ORIENTED_EDGE('',*,*,#694,.T.);
#903=ORIENTED_EDGE('',*,*,#695,.T.);
#904=ORIENTED_EDGE('',*,*,#696,.F.);
#905=ORIENTED_EDGE('',*,*,#697,.T.);
#906=ORIENTED_EDGE('',*,*,#698,.F.);
#907=ORIENTED_EDGE('',*,*,#699,.T.);
#908=ORIENTED_EDGE('',*,*,#642,.T.);
#909=ORIENTED_EDGE('',*,*,#700,.T.);
#910=ORIENTED_EDGE('',*,*,#701,.T.);
#911=ORIENTED_EDGE('',*,*,#702,.F.);
#912=ORIENTED_EDGE('',*,*,#690,.T.);
#913=ORIENTED_EDGE('',*,*,#684,.T.);
#914=ORIENTED_EDGE('',*,*,#703,.F.);
#915=ORIENTED_EDGE('',*,*,#704,.T.);
#916=ORIENTED_EDGE('',*,*,#705,.F.);
#917=ORIENTED_EDGE('',*,*,#664,.T.);
#918=ORIENTED_EDGE('',*,*,#687,.T.);
#919=ORIENTED_EDGE('',*,*,#696,.T.);
#920=ORIENTED_EDGE('',*,*,#706,.T.);
#921=ORIENTED_EDGE('',*,*,#694,.F.);
#922=ORIENTED_EDGE('',*,*,#685,.T.);
#923=ORIENTED_EDGE('',*,*,#705,.T.);
#924=ORIENTED_EDGE('',*,*,#707,.T.);
#925=ORIENTED_EDGE('',*,*,#703,.T.);
#926=ORIENTED_EDGE('',*,*,#683,.T.);
#927=ORIENTED_EDGE('',*,*,#679,.T.);
#928=ORIENTED_EDGE('',*,*,#708,.F.);
#929=ORIENTED_EDGE('',*,*,#709,.F.);
#930=ORIENTED_EDGE('',*,*,#710,.T.);
#931=ORIENTED_EDGE('',*,*,#711,.T.);
#932=ORIENTED_EDGE('',*,*,#691,.F.);
#933=ORIENTED_EDGE('',*,*,#712,.T.);
#934=ORIENTED_EDGE('',*,*,#713,.T.);
#935=ORIENTED_EDGE('',*,*,#645,.T.);
#936=ORIENTED_EDGE('',*,*,#649,.T.);
#937=ORIENTED_EDGE('',*,*,#714,.T.);
#938=ORIENTED_EDGE('',*,*,#647,.T.);
#939=ORIENTED_EDGE('',*,*,#681,.T.);
#940=ORIENTED_EDGE('',*,*,#666,.T.);
#941=ORIENTED_EDGE('',*,*,#693,.F.);
#942=ORIENTED_EDGE('',*,*,#715,.T.);
#943=ORIENTED_EDGE('',*,*,#716,.T.);
#944=ORIENTED_EDGE('',*,*,#717,.T.);
#945=ORIENTED_EDGE('',*,*,#718,.F.);
#946=ORIENTED_EDGE('',*,*,#677,.T.);
#947=ORIENTED_EDGE('',*,*,#688,.T.);
#948=ORIENTED_EDGE('',*,*,#702,.T.);
#949=ORIENTED_EDGE('',*,*,#719,.T.);
#950=ORIENTED_EDGE('',*,*,#700,.F.);
#951=ORIENTED_EDGE('',*,*,#720,.F.);
#952=ORIENTED_EDGE('',*,*,#721,.F.);
#953=ORIENTED_EDGE('',*,*,#678,.T.);
#954=ORIENTED_EDGE('',*,*,#718,.T.);
#955=ORIENTED_EDGE('',*,*,#722,.T.);
#956=ORIENTED_EDGE('',*,*,#708,.T.);
#957=ORIENTED_EDGE('',*,*,#669,.T.);
#958=ORIENTED_EDGE('',*,*,#656,.F.);
#959=ORIENTED_EDGE('',*,*,#723,.T.);
#960=ORIENTED_EDGE('',*,*,#659,.F.);
#961=ORIENTED_EDGE('',*,*,#652,.F.);
#962=ORIENTED_EDGE('',*,*,#724,.F.);
#963=ORIENTED_EDGE('',*,*,#650,.F.);
#964=ORIENTED_EDGE('',*,*,#643,.F.);
#965=ORIENTED_EDGE('',*,*,#699,.F.);
#966=ORIENTED_EDGE('',*,*,#725,.F.);
#967=ORIENTED_EDGE('',*,*,#697,.F.);
#968=ORIENTED_EDGE('',*,*,#689,.F.);
#969=ORIENTED_EDGE('',*,*,#660,.F.);
#970=ORIENTED_EDGE('',*,*,#723,.F.);
#971=ORIENTED_EDGE('',*,*,#655,.T.);
#972=ORIENTED_EDGE('',*,*,#682,.F.);
#973=ORIENTED_EDGE('',*,*,#627,.T.);
#974=ORIENTED_EDGE('',*,*,#630,.T.);
#975=ORIENTED_EDGE('',*,*,#633,.T.);
#976=ORIENTED_EDGE('',*,*,#724,.T.);
#977=ORIENTED_EDGE('',*,*,#651,.T.);
#978=ORIENTED_EDGE('',*,*,#725,.T.);
#979=ORIENTED_EDGE('',*,*,#698,.T.);
#980=ORIENTED_EDGE('',*,*,#648,.F.);
#981=ORIENTED_EDGE('',*,*,#714,.F.);
#982=ORIENTED_EDGE('',*,*,#701,.F.);
#983=ORIENTED_EDGE('',*,*,#719,.F.);
#984=ORIENTED_EDGE('',*,*,#726,.T.);
#985=ORIENTED_EDGE('',*,*,#727,.F.);
#986=ORIENTED_EDGE('',*,*,#727,.T.);
#987=ORIENTED_EDGE('',*,*,#728,.T.);
#988=ORIENTED_EDGE('',*,*,#729,.F.);
#989=ORIENTED_EDGE('',*,*,#730,.T.);
#990=ORIENTED_EDGE('',*,*,#731,.T.);
#991=ORIENTED_EDGE('',*,*,#732,.F.);
#992=ORIENTED_EDGE('',*,*,#732,.T.);
#993=ORIENTED_EDGE('',*,*,#733,.T.);
#994=ORIENTED_EDGE('',*,*,#734,.F.);
#995=ORIENTED_EDGE('',*,*,#735,.T.);
#996=ORIENTED_EDGE('',*,*,#695,.F.);
#997=ORIENTED_EDGE('',*,*,#706,.F.);
#998=ORIENTED_EDGE('',*,*,#704,.F.);
#999=ORIENTED_EDGE('',*,*,#707,.F.);
#1000=ORIENTED_EDGE('',*,*,#736,.T.);
#1001=ORIENTED_EDGE('',*,*,#737,.F.);
#1002=ORIENTED_EDGE('',*,*,#737,.T.);
#1003=ORIENTED_EDGE('',*,*,#738,.T.);
#1004=ORIENTED_EDGE('',*,*,#739,.F.);
#1005=ORIENTED_EDGE('',*,*,#740,.T.);
#1006=ORIENTED_EDGE('',*,*,#741,.T.);
#1007=ORIENTED_EDGE('',*,*,#742,.F.);
#1008=ORIENTED_EDGE('',*,*,#742,.T.);
#1009=ORIENTED_EDGE('',*,*,#743,.T.);
#1010=ORIENTED_EDGE('',*,*,#744,.F.);
#1011=ORIENTED_EDGE('',*,*,#745,.T.);
#1012=ORIENTED_EDGE('',*,*,#746,.F.);
#1013=ORIENTED_EDGE('',*,*,#747,.T.);
#1014=ORIENTED_EDGE('',*,*,#748,.F.);
#1015=ORIENTED_EDGE('',*,*,#749,.T.);
#1016=ORIENTED_EDGE('',*,*,#750,.F.);
#1017=ORIENTED_EDGE('',*,*,#751,.T.);
#1018=ORIENTED_EDGE('',*,*,#752,.F.);
#1019=ORIENTED_EDGE('',*,*,#753,.T.);
#1020=ORIENTED_EDGE('',*,*,#754,.F.);
#1021=ORIENTED_EDGE('',*,*,#755,.F.);
#1022=ORIENTED_EDGE('',*,*,#756,.F.);
#1023=ORIENTED_EDGE('',*,*,#747,.F.);
#1024=ORIENTED_EDGE('',*,*,#757,.F.);
#1025=ORIENTED_EDGE('',*,*,#753,.F.);
#1026=ORIENTED_EDGE('',*,*,#758,.F.);
#1027=ORIENTED_EDGE('',*,*,#759,.F.);
#1028=ORIENTED_EDGE('',*,*,#760,.F.);
#1029=ORIENTED_EDGE('',*,*,#749,.F.);
#1030=ORIENTED_EDGE('',*,*,#761,.F.);
#1031=ORIENTED_EDGE('',*,*,#762,.T.);
#1032=ORIENTED_EDGE('',*,*,#763,.F.);
#1033=ORIENTED_EDGE('',*,*,#762,.F.);
#1034=ORIENTED_EDGE('',*,*,#764,.F.);
#1035=ORIENTED_EDGE('',*,*,#755,.T.);
#1036=ORIENTED_EDGE('',*,*,#765,.F.);
#1037=ORIENTED_EDGE('',*,*,#759,.T.);
#1038=ORIENTED_EDGE('',*,*,#766,.F.);
#1039=ORIENTED_EDGE('',*,*,#767,.F.);
#1040=ORIENTED_EDGE('',*,*,#768,.F.);
#1041=ORIENTED_EDGE('',*,*,#767,.T.);
#1042=ORIENTED_EDGE('',*,*,#769,.F.);
#1043=ORIENTED_EDGE('',*,*,#751,.F.);
#1044=ORIENTED_EDGE('',*,*,#733,.F.);
#1045=ORIENTED_EDGE('',*,*,#731,.F.);
#1046=ORIENTED_EDGE('',*,*,#735,.F.);
#1047=ORIENTED_EDGE('',*,*,#770,.F.);
#1048=ORIENTED_EDGE('',*,*,#771,.T.);
#1049=ORIENTED_EDGE('',*,*,#674,.F.);
#1050=ORIENTED_EDGE('',*,*,#771,.F.);
#1051=ORIENTED_EDGE('',*,*,#772,.F.);
#1052=ORIENTED_EDGE('',*,*,#743,.F.);
#1053=ORIENTED_EDGE('',*,*,#741,.F.);
#1054=ORIENTED_EDGE('',*,*,#745,.F.);
#1055=ORIENTED_EDGE('',*,*,#773,.F.);
#1056=ORIENTED_EDGE('',*,*,#765,.T.);
#1057=ORIENTED_EDGE('',*,*,#768,.T.);
#1058=ORIENTED_EDGE('',*,*,#750,.T.);
#1059=ORIENTED_EDGE('',*,*,#757,.T.);
#1060=ORIENTED_EDGE('',*,*,#773,.T.);
#1061=ORIENTED_EDGE('',*,*,#744,.T.);
#1062=ORIENTED_EDGE('',*,*,#772,.T.);
#1063=ORIENTED_EDGE('',*,*,#770,.T.);
#1064=ORIENTED_EDGE('',*,*,#734,.T.);
#1065=ORIENTED_EDGE('',*,*,#728,.F.);
#1066=ORIENTED_EDGE('',*,*,#726,.F.);
#1067=ORIENTED_EDGE('',*,*,#730,.F.);
#1068=ORIENTED_EDGE('',*,*,#774,.F.);
#1069=ORIENTED_EDGE('',*,*,#775,.T.);
#1070=ORIENTED_EDGE('',*,*,#675,.F.);
#1071=ORIENTED_EDGE('',*,*,#775,.F.);
#1072=ORIENTED_EDGE('',*,*,#776,.F.);
#1073=ORIENTED_EDGE('',*,*,#738,.F.);
#1074=ORIENTED_EDGE('',*,*,#736,.F.);
#1075=ORIENTED_EDGE('',*,*,#740,.F.);
#1076=ORIENTED_EDGE('',*,*,#777,.F.);
#1077=ORIENTED_EDGE('',*,*,#763,.T.);
#1078=ORIENTED_EDGE('',*,*,#754,.T.);
#1079=ORIENTED_EDGE('',*,*,#746,.T.);
#1080=ORIENTED_EDGE('',*,*,#760,.T.);
#1081=ORIENTED_EDGE('',*,*,#777,.T.);
#1082=ORIENTED_EDGE('',*,*,#739,.T.);
#1083=ORIENTED_EDGE('',*,*,#776,.T.);
#1084=ORIENTED_EDGE('',*,*,#774,.T.);
#1085=ORIENTED_EDGE('',*,*,#729,.T.);
#1086=ORIENTED_EDGE('',*,*,#778,.F.);
#1087=ORIENTED_EDGE('',*,*,#638,.F.);
#1088=ORIENTED_EDGE('',*,*,#779,.T.);
#1089=ORIENTED_EDGE('',*,*,#624,.F.);
#1090=ORIENTED_EDGE('',*,*,#764,.T.);
#1091=ORIENTED_EDGE('',*,*,#761,.T.);
#1092=ORIENTED_EDGE('',*,*,#748,.T.);
#1093=ORIENTED_EDGE('',*,*,#756,.T.);
#1094=ORIENTED_EDGE('',*,*,#779,.F.);
#1095=ORIENTED_EDGE('',*,*,#641,.F.);
#1096=ORIENTED_EDGE('',*,*,#780,.T.);
#1097=ORIENTED_EDGE('',*,*,#621,.F.);
#1098=ORIENTED_EDGE('',*,*,#780,.F.);
#1099=ORIENTED_EDGE('',*,*,#640,.F.);
#1100=ORIENTED_EDGE('',*,*,#781,.T.);
#1101=ORIENTED_EDGE('',*,*,#622,.F.);
#1102=ORIENTED_EDGE('',*,*,#766,.T.);
#1103=ORIENTED_EDGE('',*,*,#758,.T.);
#1104=ORIENTED_EDGE('',*,*,#752,.T.);
#1105=ORIENTED_EDGE('',*,*,#769,.T.);
#1106=ORIENTED_EDGE('',*,*,#781,.F.);
#1107=ORIENTED_EDGE('',*,*,#639,.F.);
#1108=ORIENTED_EDGE('',*,*,#778,.T.);
#1109=ORIENTED_EDGE('',*,*,#623,.F.);
#1110=ORIENTED_EDGE('',*,*,#713,.F.);
#1111=ORIENTED_EDGE('',*,*,#782,.T.);
#1112=ORIENTED_EDGE('',*,*,#720,.T.);
#1113=ORIENTED_EDGE('',*,*,#782,.F.);
#1114=ORIENTED_EDGE('',*,*,#712,.F.);
#1115=ORIENTED_EDGE('',*,*,#783,.T.);
#1116=ORIENTED_EDGE('',*,*,#721,.T.);
#1117=ORIENTED_EDGE('',*,*,#783,.F.);
#1118=ORIENTED_EDGE('',*,*,#715,.F.);
#1119=ORIENTED_EDGE('',*,*,#692,.F.);
#1120=ORIENTED_EDGE('',*,*,#711,.F.);
#1121=ORIENTED_EDGE('',*,*,#784,.F.);
#1122=ORIENTED_EDGE('',*,*,#716,.F.);
#1123=ORIENTED_EDGE('',*,*,#784,.T.);
#1124=ORIENTED_EDGE('',*,*,#710,.F.);
#1125=ORIENTED_EDGE('',*,*,#785,.F.);
#1126=ORIENTED_EDGE('',*,*,#717,.F.);
#1127=ORIENTED_EDGE('',*,*,#785,.T.);
#1128=ORIENTED_EDGE('',*,*,#709,.T.);
#1129=ORIENTED_EDGE('',*,*,#722,.F.);
#1130=PLANE('',#1261);
#1131=PLANE('',#1262);
#1132=PLANE('',#1272);
#1133=PLANE('',#1273);
#1134=PLANE('',#1274);
#1135=PLANE('',#1281);
#1136=PLANE('',#1282);
#1137=PLANE('',#1283);
#1138=PLANE('',#1284);
#1139=PLANE('',#1285);
#1140=PLANE('',#1286);
#1141=PLANE('',#1289);
#1142=PLANE('',#1290);
#1143=PLANE('',#1291);
#1144=PLANE('',#1294);
#1145=PLANE('',#1296);
#1146=PLANE('',#1304);
#1147=PLANE('',#1307);
#1148=PLANE('',#1310);
#1149=PLANE('',#1311);
#1150=PLANE('',#1312);
#1151=PLANE('',#1313);
#1152=PLANE('',#1314);
#1153=PLANE('',#1315);
#1154=PLANE('',#1316);
#1155=PLANE('',#1317);
#1156=PLANE('',#1319);
#1157=PLANE('',#1320);
#1158=PLANE('',#1322);
#1159=PLANE('',#1323);
#1160=PLANE('',#1324);
#1161=PLANE('',#1325);
#1162=PLANE('',#1327);
#1163=PLANE('',#1328);
#1164=PLANE('',#1330);
#1165=PLANE('',#1331);
#1166=PLANE('',#1332);
#1167=PLANE('',#1333);
#1168=PLANE('',#1335);
#1169=PLANE('',#1337);
#1170=PLANE('',#1339);
#1171=PLANE('',#1340);
#1172=PLANE('',#1341);
#1173=PLANE('',#1347);
#1174=PLANE('',#1352);
#1175=PLANE('',#1353);
#1176=PLANE('',#1354);
#1177=PLANE('',#1355);
#1178=PLANE('',#1356);
#1179=PLANE('',#1359);
#1180=PLANE('',#1360);
#1181=PLANE('',#1361);
#1182=ADVANCED_FACE('',(#89),#1130,.T.);
#1183=ADVANCED_FACE('',(#90,#72),#1131,.T.);
#1184=ADVANCED_FACE('',(#91),#61,.F.);
#1185=ADVANCED_FACE('',(#92),#62,.F.);
#1186=ADVANCED_FACE('',(#93),#63,.F.);
#1187=ADVANCED_FACE('',(#94),#1132,.T.);
#1188=ADVANCED_FACE('',(#95),#1133,.T.);
#1189=ADVANCED_FACE('',(#96),#1134,.T.);
#1190=ADVANCED_FACE('',(#97),#64,.T.);
#1191=ADVANCED_FACE('',(#98),#1135,.T.);
#1192=ADVANCED_FACE('',(#99),#1136,.T.);
#1193=ADVANCED_FACE('',(#100),#1137,.T.);
#1194=ADVANCED_FACE('',(#101,#73,#74,#75),#1138,.F.);
#1195=ADVANCED_FACE('',(#102),#1139,.T.);
#1196=ADVANCED_FACE('',(#103,#76,#77),#1140,.T.);
#1197=ADVANCED_FACE('',(#104),#1141,.T.);
#1198=ADVANCED_FACE('',(#105),#1142,.F.);
#1199=ADVANCED_FACE('',(#106),#1143,.F.);
#1200=ADVANCED_FACE('',(#107),#1144,.F.);
#1201=ADVANCED_FACE('',(#108),#1145,.T.);
#1202=ADVANCED_FACE('',(#109),#65,.T.);
#1203=ADVANCED_FACE('',(#110),#66,.T.);
#1204=ADVANCED_FACE('',(#111),#67,.T.);
#1205=ADVANCED_FACE('',(#112,#78,#79),#1146,.T.);
#1206=ADVANCED_FACE('',(#113,#80,#81),#1147,.F.);
#1207=ADVANCED_FACE('',(#114),#1148,.T.);
#1208=ADVANCED_FACE('',(#115),#1149,.T.);
#1209=ADVANCED_FACE('',(#116,#82,#83,#84),#1150,.T.);
#1210=ADVANCED_FACE('',(#117),#1151,.T.);
#1211=ADVANCED_FACE('',(#118),#1152,.T.);
#1212=ADVANCED_FACE('',(#119),#1153,.T.);
#1213=ADVANCED_FACE('',(#120),#1154,.T.);
#1214=ADVANCED_FACE('',(#121),#1155,.F.);
#1215=ADVANCED_FACE('',(#122),#1156,.F.);
#1216=ADVANCED_FACE('',(#123),#1157,.F.);
#1217=ADVANCED_FACE('',(#124),#1158,.F.);
#1218=ADVANCED_FACE('',(#125),#1159,.T.);
#1219=ADVANCED_FACE('',(#126),#1160,.T.);
#1220=ADVANCED_FACE('',(#127),#1161,.F.);
#1221=ADVANCED_FACE('',(#128),#1162,.T.);
#1222=ADVANCED_FACE('',(#129),#1163,.F.);
#1223=ADVANCED_FACE('',(#130),#1164,.T.);
#1224=ADVANCED_FACE('',(#131),#1165,.F.);
#1225=ADVANCED_FACE('',(#132),#1166,.F.);
#1226=ADVANCED_FACE('',(#133),#1167,.F.);
#1227=ADVANCED_FACE('',(#134),#1168,.F.);
#1228=ADVANCED_FACE('',(#135),#1169,.F.);
#1229=ADVANCED_FACE('',(#136),#1170,.F.);
#1230=ADVANCED_FACE('',(#137),#1171,.F.);
#1231=ADVANCED_FACE('',(#138),#1172,.F.);
#1232=ADVANCED_FACE('',(#139,#85),#68,.F.);
#1233=ADVANCED_FACE('',(#140),#1173,.T.);
#1234=ADVANCED_FACE('',(#141,#86),#69,.F.);
#1235=ADVANCED_FACE('',(#142),#1174,.T.);
#1236=ADVANCED_FACE('',(#143,#87),#1175,.T.);
#1237=ADVANCED_FACE('',(#144),#1176,.T.);
#1238=ADVANCED_FACE('',(#145,#88),#1177,.T.);
#1239=ADVANCED_FACE('',(#146),#1178,.T.);
#1240=ADVANCED_FACE('',(#147),#70,.F.);
#1241=ADVANCED_FACE('',(#148),#71,.F.);
#1242=ADVANCED_FACE('',(#149),#1179,.T.);
#1243=ADVANCED_FACE('',(#150),#1180,.T.);
#1244=ADVANCED_FACE('',(#151),#1181,.T.);
#1245=CLOSED_SHELL('',(#1182,#1183,#1184,#1185,#1186,#1187,#1188,#1189,
#1190,#1191,#1192,#1193,#1194,#1195,#1196,#1197,#1198,#1199,#1200,#1201,
#1202,#1203,#1204,#1205,#1206,#1207,#1208,#1209,#1210,#1211,#1212,#1213,
#1214,#1215,#1216,#1217,#1218,#1219,#1220,#1221,#1222,#1223,#1224,#1225,
#1226,#1227,#1228,#1229,#1230,#1231,#1232,#1233,#1234,#1235,#1236,#1237,
#1238,#1239,#1240,#1241,#1242,#1243,#1244));
#1246=DERIVED_UNIT_ELEMENT(#1248,1.);
#1247=DERIVED_UNIT_ELEMENT(#2073,-3.);
#1248=(
MASS_UNIT()
NAMED_UNIT(*)
SI_UNIT(.KILO.,.GRAM.)
);
#1249=DERIVED_UNIT((#1246,#1247));
#1250=MEASURE_REPRESENTATION_ITEM('density measure',
POSITIVE_RATIO_MEASURE(7850.),#1249);
#1251=PROPERTY_DEFINITION_REPRESENTATION(#1256,#1253);
#1252=PROPERTY_DEFINITION_REPRESENTATION(#1257,#1254);
#1253=REPRESENTATION('material name',(#1255),#2070);
#1254=REPRESENTATION('density',(#1250),#2070);
#1255=DESCRIPTIVE_REPRESENTATION_ITEM('Steel','Steel');
#1256=PROPERTY_DEFINITION('material property','material name',#2090);
#1257=PROPERTY_DEFINITION('material property','density of part',#2090);
#1258=AXIS2_PLACEMENT_3D('',#1710,#1364,#1365);
#1259=AXIS2_PLACEMENT_3D('',#1711,#1366,#1367);
#1260=AXIS2_PLACEMENT_3D('',#1712,#1368,#1369);
#1261=AXIS2_PLACEMENT_3D('',#1713,#1370,#1371);
#1262=AXIS2_PLACEMENT_3D('',#1722,#1376,#1377);
#1263=AXIS2_PLACEMENT_3D('',#1736,#1385,#1386);
#1264=AXIS2_PLACEMENT_3D('',#1738,#1387,#1388);
#1265=AXIS2_PLACEMENT_3D('',#1741,#1390,#1391);
#1266=AXIS2_PLACEMENT_3D('',#1742,#1392,#1393);
#1267=AXIS2_PLACEMENT_3D('',#1744,#1394,#1395);
#1268=AXIS2_PLACEMENT_3D('',#1747,#1397,#1398);
#1269=AXIS2_PLACEMENT_3D('',#1748,#1399,#1400);
#1270=AXIS2_PLACEMENT_3D('',#1750,#1401,#1402);
#1271=AXIS2_PLACEMENT_3D('',#1753,#1404,#1405);
#1272=AXIS2_PLACEMENT_3D('',#1754,#1406,#1407);
#1273=AXIS2_PLACEMENT_3D('',#1763,#1412,#1413);
#1274=AXIS2_PLACEMENT_3D('',#1772,#1418,#1419);
#1275=AXIS2_PLACEMENT_3D('',#1775,#1420,#1421);
#1276=AXIS2_PLACEMENT_3D('',#1779,#1423,#1424);
#1277=AXIS2_PLACEMENT_3D('',#1781,#1426,#1427);
#1278=AXIS2_PLACEMENT_3D('',#1784,#1428,#1429);
#1279=AXIS2_PLACEMENT_3D('',#1788,#1431,#1432);
#1280=AXIS2_PLACEMENT_3D('',#1793,#1435,#1436);
#1281=AXIS2_PLACEMENT_3D('',#1795,#1438,#1439);
#1282=AXIS2_PLACEMENT_3D('',#1803,#1444,#1445);
#1283=AXIS2_PLACEMENT_3D('',#1814,#1451,#1452);
#1284=AXIS2_PLACEMENT_3D('',#1825,#1459,#1460);
#1285=AXIS2_PLACEMENT_3D('',#1828,#1463,#1464);
#1286=AXIS2_PLACEMENT_3D('',#1834,#1468,#1469);
#1287=AXIS2_PLACEMENT_3D('',#1837,#1471,#1472);
#1288=AXIS2_PLACEMENT_3D('',#1839,#1473,#1474);
#1289=AXIS2_PLACEMENT_3D('',#1840,#1475,#1476);
#1290=AXIS2_PLACEMENT_3D('',#1850,#1482,#1483);
#1291=AXIS2_PLACEMENT_3D('',#1853,#1486,#1487);
#1292=AXIS2_PLACEMENT_3D('',#1857,#1489,#1490);
#1293=AXIS2_PLACEMENT_3D('',#1861,#1492,#1493);
#1294=AXIS2_PLACEMENT_3D('',#1863,#1495,#1496);
#1295=AXIS2_PLACEMENT_3D('',#1868,#1499,#1500);
#1296=AXIS2_PLACEMENT_3D('',#1869,#1501,#1502);
#1297=AXIS2_PLACEMENT_3D('',#1875,#1506,#1507);
#1298=AXIS2_PLACEMENT_3D('',#1879,#1509,#1510);
#1299=AXIS2_PLACEMENT_3D('',#1881,#1512,#1513);
#1300=AXIS2_PLACEMENT_3D('',#1885,#1515,#1516);
#1301=AXIS2_PLACEMENT_3D('',#1890,#1519,#1520);
#1302=AXIS2_PLACEMENT_3D('',#1892,#1522,#1523);
#1303=AXIS2_PLACEMENT_3D('',#1896,#1525,#1526);
#1304=AXIS2_PLACEMENT_3D('',#1898,#1528,#1529);
#1305=AXIS2_PLACEMENT_3D('',#1909,#1536,#1537);
#1306=AXIS2_PLACEMENT_3D('',#1911,#1538,#1539);
#1307=AXIS2_PLACEMENT_3D('',#1912,#1540,#1541);
#1308=AXIS2_PLACEMENT_3D('',#1923,#1548,#1549);
#1309=AXIS2_PLACEMENT_3D('',#1925,#1550,#1551);
#1310=AXIS2_PLACEMENT_3D('',#1926,#1552,#1553);
#1311=AXIS2_PLACEMENT_3D('',#1928,#1555,#1556);
#1312=AXIS2_PLACEMENT_3D('',#1930,#1558,#1559);
#1313=AXIS2_PLACEMENT_3D('',#1933,#1562,#1563);
#1314=AXIS2_PLACEMENT_3D('',#1934,#1564,#1565);
#1315=AXIS2_PLACEMENT_3D('',#1935,#1566,#1567);
#1316=AXIS2_PLACEMENT_3D('',#1936,#1568,#1569);
#1317=AXIS2_PLACEMENT_3D('',#1937,#1570,#1571);
#1318=AXIS2_PLACEMENT_3D('',#1940,#1572,#1573);
#1319=AXIS2_PLACEMENT_3D('',#1942,#1575,#1576);
#1320=AXIS2_PLACEMENT_3D('',#1948,#1580,#1581);
#1321=AXIS2_PLACEMENT_3D('',#1951,#1582,#1583);
#1322=AXIS2_PLACEMENT_3D('',#1953,#1585,#1586);
#1323=AXIS2_PLACEMENT_3D('',#1959,#1590,#1591);
#1324=AXIS2_PLACEMENT_3D('',#1960,#1592,#1593);
#1325=AXIS2_PLACEMENT_3D('',#1961,#1594,#1595);
#1326=AXIS2_PLACEMENT_3D('',#1964,#1596,#1597);
#1327=AXIS2_PLACEMENT_3D('',#1966,#1599,#1600);
#1328=AXIS2_PLACEMENT_3D('',#1972,#1604,#1605);
#1329=AXIS2_PLACEMENT_3D('',#1975,#1606,#1607);
#1330=AXIS2_PLACEMENT_3D('',#1977,#1609,#1610);
#1331=AXIS2_PLACEMENT_3D('',#1983,#1614,#1615);
#1332=AXIS2_PLACEMENT_3D('',#1992,#1620,#1621);
#1333=AXIS2_PLACEMENT_3D('',#2001,#1626,#1627);
#1334=AXIS2_PLACEMENT_3D('',#2003,#1628,#1629);
#1335=AXIS2_PLACEMENT_3D('',#2007,#1632,#1633);
#1336=AXIS2_PLACEMENT_3D('',#2009,#1634,#1635);
#1337=AXIS2_PLACEMENT_3D('',#2013,#1638,#1639);
#1338=AXIS2_PLACEMENT_3D('',#2015,#1640,#1641);
#1339=AXIS2_PLACEMENT_3D('',#2019,#1644,#1645);
#1340=AXIS2_PLACEMENT_3D('',#2022,#1648,#1649);
#1341=AXIS2_PLACEMENT_3D('',#2028,#1653,#1654);
#1342=AXIS2_PLACEMENT_3D('',#2029,#1655,#1656);
#1343=AXIS2_PLACEMENT_3D('',#2031,#1658,#1659);
#1344=AXIS2_PLACEMENT_3D('',#2033,#1660,#1661);
#1345=AXIS2_PLACEMENT_3D('',#2035,#1663,#1664);
#1346=AXIS2_PLACEMENT_3D('',#2036,#1665,#1666);
#1347=AXIS2_PLACEMENT_3D('',#2037,#1667,#1668);
#1348=AXIS2_PLACEMENT_3D('',#2038,#1669,#1670);
#1349=AXIS2_PLACEMENT_3D('',#2040,#1671,#1672);
#1350=AXIS2_PLACEMENT_3D('',#2042,#1674,#1675);
#1351=AXIS2_PLACEMENT_3D('',#2043,#1676,#1677);
#1352=AXIS2_PLACEMENT_3D('',#2044,#1678,#1679);
#1353=AXIS2_PLACEMENT_3D('',#2045,#1680,#1681);
#1354=AXIS2_PLACEMENT_3D('',#2048,#1684,#1685);
#1355=AXIS2_PLACEMENT_3D('',#2050,#1687,#1688);
#1356=AXIS2_PLACEMENT_3D('',#2052,#1690,#1691);
#1357=AXIS2_PLACEMENT_3D('',#2053,#1692,#1693);
#1358=AXIS2_PLACEMENT_3D('',#2055,#1695,#1696);
#1359=AXIS2_PLACEMENT_3D('',#2057,#1698,#1699);
#1360=AXIS2_PLACEMENT_3D('',#2059,#1701,#1702);
#1361=AXIS2_PLACEMENT_3D('',#2061,#1704,#1705);
#1362=AXIS2_PLACEMENT_3D('',#2062,#1706,#1707);
#1363=AXIS2_PLACEMENT_3D('',#2063,#1708,#1709);
#1364=DIRECTION('axis',(0.,0.,1.));
#1365=DIRECTION('refdir',(1.,0.,0.));
#1366=DIRECTION('axis',(0.,0.,1.));
#1367=DIRECTION('refdir',(1.,0.,0.));
#1368=DIRECTION('axis',(0.,0.,1.));
#1369=DIRECTION('refdir',(1.,0.,0.));
#1370=DIRECTION('center_axis',(-4.21474719704915E-16,-1.,0.));
#1371=DIRECTION('ref_axis',(1.,-4.21474719704915E-16,-1.61825358702129E-15));
#1372=DIRECTION('',(-1.,4.21474719704915E-16,1.61825358702129E-15));
#1373=DIRECTION('',(0.,0.,1.));
#1374=DIRECTION('',(1.,-4.21474719704915E-16,-1.61825358702129E-15));
#1375=DIRECTION('',(0.,0.,1.));
#1376=DIRECTION('center_axis',(0.,0.,1.));
#1377=DIRECTION('ref_axis',(1.,0.,0.));
#1378=DIRECTION('',(-1.31527428577794E-16,1.,0.));
#1379=DIRECTION('',(-1.,-1.90257713351536E-16,1.61825358702129E-15));
#1380=DIRECTION('',(0.,-1.,0.));
#1381=DIRECTION('',(1.,2.77555756156289E-16,-1.61825358702129E-15));
#1382=DIRECTION('',(1.11022302462516E-15,-1.,-1.79662239199328E-30));
#1383=DIRECTION('',(-1.,0.,1.61825358702129E-15));
#1384=DIRECTION('',(0.,1.,0.));
#1385=DIRECTION('center_axis',(0.,0.,-1.));
#1386=DIRECTION('ref_axis',(-1.,-2.2204460494347E-16,0.));
#1387=DIRECTION('center_axis',(0.,0.,-1.));
#1388=DIRECTION('ref_axis',(-1.,-2.2204460494347E-16,0.));
#1389=DIRECTION('',(0.,0.,-1.));
#1390=DIRECTION('center_axis',(0.,0.,1.));
#1391=DIRECTION('ref_axis',(-1.,-2.2204460494347E-16,0.));
#1392=DIRECTION('center_axis',(0.,0.,-1.));
#1393=DIRECTION('ref_axis',(-1.,-2.2204460494347E-16,0.));
#1394=DIRECTION('center_axis',(0.,0.,-1.));
#1395=DIRECTION('ref_axis',(-1.,-2.2204460494347E-16,0.));
#1396=DIRECTION('',(0.,0.,-1.));
#1397=DIRECTION('center_axis',(0.,0.,1.));
#1398=DIRECTION('ref_axis',(-1.,-2.2204460494347E-16,0.));
#1399=DIRECTION('center_axis',(0.,0.,-1.));
#1400=DIRECTION('ref_axis',(-1.,-2.2204460494347E-16,0.));
#1401=DIRECTION('center_axis',(0.,0.,-1.));
#1402=DIRECTION('ref_axis',(-1.,-2.2204460494347E-16,0.));
#1403=DIRECTION('',(0.,0.,-1.));
#1404=DIRECTION('center_axis',(0.,0.,1.));
#1405=DIRECTION('ref_axis',(-1.,-2.2204460494347E-16,0.));
#1406=DIRECTION('center_axis',(-1.63063411996982E-15,-1.64409285722242E-17,
-1.));
#1407=DIRECTION('ref_axis',(-1.,-1.11022302480952E-16,1.63063411996982E-15));
#1408=DIRECTION('',(0.,-1.,1.64409285722242E-17));
#1409=DIRECTION('',(1.,-4.21474719708053E-16,-1.63063411996982E-15));
#1410=DIRECTION('',(0.,1.,-1.64409285722242E-17));
#1411=DIRECTION('',(-1.,-1.11022302480952E-16,1.63063411996982E-15));
#1412=DIRECTION('center_axis',(0.,0.,1.));
#1413=DIRECTION('ref_axis',(1.,4.20657147835617E-16,0.));
#1414=DIRECTION('',(0.,-1.,0.));
#1415=DIRECTION('',(1.,0.,0.));
#1416=DIRECTION('',(-1.11022302462516E-15,1.,0.));
#1417=DIRECTION('',(-1.,-2.77555756156289E-16,0.));
#1418=DIRECTION('center_axis',(-2.2204460494347E-16,1.,0.));
#1419=DIRECTION('ref_axis',(1.,2.2204460494347E-16,7.27420601018367E-17));
#1420=DIRECTION('center_axis',(-2.2204460494347E-16,1.,0.));
#1421=DIRECTION('ref_axis',(1.,2.2204460494347E-16,-1.939860512067E-25));
#1422=DIRECTION('',(-1.,-2.2204460494347E-16,-7.27420601018367E-17));
#1423=DIRECTION('center_axis',(-2.2204460494347E-16,1.,0.));
#1424=DIRECTION('ref_axis',(1.,2.2204460494347E-16,-1.93986053033876E-25));
#1425=DIRECTION('',(-1.,-2.2204460494347E-16,0.));
#1426=DIRECTION('center_axis',(5.26109714311175E-16,1.,-2.53478446565758E-10));
#1427=DIRECTION('ref_axis',(1.,-5.26109714311175E-16,-4.34505839774624E-27));
#1428=DIRECTION('center_axis',(-2.2204460494347E-16,1.,0.));
#1429=DIRECTION('ref_axis',(1.,2.2204460494347E-16,-1.93986053033876E-25));
#1430=DIRECTION('',(1.50454011360397E-10,-1.,2.30105261161577E-17));
#1431=DIRECTION('center_axis',(0.,-1.,0.));
#1432=DIRECTION('ref_axis',(1.,0.,-1.37702531504498E-25));
#1433=DIRECTION('',(1.50455121570526E-10,1.,-2.30105261242356E-17));
#1434=DIRECTION('',(-9.89994752842439E-10,-1.,0.));
#1435=DIRECTION('center_axis',(-4.21474719294722E-16,-1.,2.53478446565758E-10));
#1436=DIRECTION('ref_axis',(1.,-4.21474719294723E-16,-3.08677743909324E-26));
#1437=DIRECTION('',(-9.89994752842444E-10,1.,0.));
#1438=DIRECTION('center_axis',(-1.,0.,0.));
#1439=DIRECTION('ref_axis',(0.,0.,1.));
#1440=DIRECTION('',(0.,1.,0.));
#1441=DIRECTION('',(0.,0.,1.));
#1442=DIRECTION('',(0.,1.,0.));
#1443=DIRECTION('',(0.,0.,1.));
#1444=DIRECTION('center_axis',(1.,0.,0.));
#1445=DIRECTION('ref_axis',(0.,0.,-1.));
#1446=DIRECTION('',(-2.23805205877938E-16,1.,2.04089570368302E-31));
#1447=DIRECTION('',(2.70068400239623E-16,-1.,0.));
#1448=DIRECTION('',(0.,0.,-1.));
#1449=DIRECTION('',(0.,1.,0.));
#1450=DIRECTION('',(0.,0.,-1.));
#1451=DIRECTION('center_axis',(-1.,2.66055916359626E-32,1.61825358702129E-15));
#1452=DIRECTION('ref_axis',(1.61825358702129E-15,-2.6999180136135E-16,1.));
#1453=DIRECTION('',(1.61825358702129E-15,-2.6999180136135E-16,1.));
#1454=DIRECTION('',(1.61825358702129E-15,-2.6999180136135E-16,1.));
#1455=DIRECTION('',(0.,1.,0.));
#1456=DIRECTION('',(1.61825358702129E-15,0.,1.));
#1457=DIRECTION('',(-2.66055916359626E-32,-1.,0.));
#1458=DIRECTION('',(1.61825358702129E-15,-2.6999180136135E-16,1.));
#1459=DIRECTION('center_axis',(0.,0.,-1.));
#1460=DIRECTION('ref_axis',(-1.,0.,0.));
#1461=DIRECTION('',(1.,-4.21474719708053E-16,-1.63063411996982E-15));
#1462=DIRECTION('',(-1.,0.,0.));
#1463=DIRECTION('center_axis',(-1.63063411996982E-15,-1.60854834563133E-31,
-1.));
#1464=DIRECTION('ref_axis',(-1.,-1.11022302480952E-16,1.63063411996982E-15));
#1465=DIRECTION('',(-1.,-1.11022302480952E-16,1.63063411996982E-15));
#1466=DIRECTION('',(-9.86455714333453E-17,1.,0.));
#1467=DIRECTION('',(1.,-4.21474719708053E-16,-1.63063411996982E-15));
#1468=DIRECTION('center_axis',(-4.21474719294722E-16,-1.,2.53478446565758E-10));
#1469=DIRECTION('ref_axis',(1.,-4.21474719294722E-16,-3.08677743909324E-26));
#1470=DIRECTION('',(-1.61825358702129E-15,-9.30958847300295E-18,-1.));
#1471=DIRECTION('center_axis',(4.21474719294722E-16,1.,-2.53478446565758E-10));
#1472=DIRECTION('ref_axis',(1.,-4.21474719294722E-16,-3.08677743909324E-26));
#1473=DIRECTION('center_axis',(4.21474719294722E-16,1.,-2.53478446565758E-10));
#1474=DIRECTION('ref_axis',(1.,-4.21474719294722E-16,-3.08677743909324E-26));
#1475=DIRECTION('center_axis',(1.,9.86455714333453E-17,-1.61825358702129E-15));
#1476=DIRECTION('ref_axis',(-1.61825358702129E-15,-9.30958847300295E-18,
-1.));
#1477=DIRECTION('',(-1.61825358702129E-15,-9.30958847300295E-18,-1.));
#1478=DIRECTION('',(-9.86455714333453E-17,1.,0.));
#1479=DIRECTION('',(-1.61825358702129E-15,0.,-1.));
#1480=DIRECTION('',(1.31527428577794E-16,-1.,0.));
#1481=DIRECTION('',(0.,0.,1.));
#1482=DIRECTION('center_axis',(-3.40367057321126E-16,-1.,-9.18826143095437E-17));
#1483=DIRECTION('ref_axis',(1.,-3.40367057321126E-16,-1.61825358702129E-15));
#1484=DIRECTION('',(-1.,3.40367057321126E-16,0.));
#1485=DIRECTION('',(-1.,-2.2204460494347E-16,-7.27420601018367E-17));
#1486=DIRECTION('center_axis',(1.11022302463988E-16,-1.,9.30958847300295E-18));
#1487=DIRECTION('ref_axis',(1.,1.11022302463988E-16,-1.61825358702129E-15));
#1488=DIRECTION('',(1.,1.11022302463988E-16,0.));
#1489=DIRECTION('center_axis',(-1.11022302463988E-16,1.,-9.30958847300295E-18));
#1490=DIRECTION('ref_axis',(1.,1.11022302463988E-16,-1.65844290755278E-25));
#1491=DIRECTION('',(1.,1.11022302463988E-16,0.));
#1492=DIRECTION('center_axis',(3.40367057321126E-16,1.,9.18826143095437E-17));
#1493=DIRECTION('ref_axis',(1.,-3.40367057321126E-16,-5.14268185525802E-26));
#1494=DIRECTION('',(1.,-3.40367057321126E-16,0.));
#1495=DIRECTION('center_axis',(1.11022302463988E-16,-1.,9.30958847300295E-18));
#1496=DIRECTION('ref_axis',(1.,1.11022302463988E-16,-1.61825358702129E-15));
#1497=DIRECTION('',(-1.,-1.11022302463988E-16,0.));
#1498=DIRECTION('',(-1.,0.,0.));
#1499=DIRECTION('center_axis',(-2.2204460494347E-16,1.,0.));
#1500=DIRECTION('ref_axis',(1.,2.2204460494347E-16,-1.939860512067E-25));
#1501=DIRECTION('center_axis',(0.,-1.,0.));
#1502=DIRECTION('ref_axis',(0.,0.,-1.));
#1503=DIRECTION('',(-1.,0.,0.));
#1504=DIRECTION('',(0.,0.,-1.));
#1505=DIRECTION('',(1.,0.,0.));
#1506=DIRECTION('center_axis',(5.26109714311175E-16,1.,-2.53478446565758E-10));
#1507=DIRECTION('ref_axis',(1.,-5.26109714311175E-16,-4.34505839774624E-27));
#1508=DIRECTION('',(-5.68240580233214E-11,1.,-6.57637142888968E-17));
#1509=DIRECTION('center_axis',(0.,-1.,0.));
#1510=DIRECTION('ref_axis',(1.,0.,-1.37702531504498E-25));
#1511=DIRECTION('',(5.6824995240285E-11,1.,-6.93881330595071E-17));
#1512=DIRECTION('center_axis',(3.94582285733381E-16,1.,-2.5347844372641E-10));
#1513=DIRECTION('ref_axis',(1.,-3.94582285733381E-16,-3.76844265980771E-26));
#1514=DIRECTION('',(-9.89994752842448E-10,-1.,0.));
#1515=DIRECTION('center_axis',(-4.21474719294722E-16,-1.,2.53478446565758E-10));
#1516=DIRECTION('ref_axis',(1.,-4.21474719294723E-16,-3.08677743909324E-26));
#1517=DIRECTION('',(-9.89994752842444E-10,1.,0.));
#1518=DIRECTION('',(-1.50453962495281E-10,1.,-2.11636891159404E-25));
#1519=DIRECTION('center_axis',(0.,-1.,0.));
#1520=DIRECTION('ref_axis',(1.,0.,-1.37702530307784E-25));
#1521=DIRECTION('',(1.50454531771395E-10,1.,-2.01711774437314E-17));
#1522=DIRECTION('center_axis',(3.94582285733381E-16,1.,-2.5347844372641E-10));
#1523=DIRECTION('ref_axis',(1.,-3.94582285733381E-16,-3.76844265980771E-26));
#1524=DIRECTION('',(5.68242666648879E-11,-1.,6.93881330595072E-17));
#1525=DIRECTION('center_axis',(0.,-1.,0.));
#1526=DIRECTION('ref_axis',(1.,0.,-1.37702530307784E-25));
#1527=DIRECTION('',(5.68249952402851E-11,1.,-6.93881330595072E-17));
#1528=DIRECTION('center_axis',(0.,0.,1.));
#1529=DIRECTION('ref_axis',(1.,0.,0.));
#1530=DIRECTION('',(1.,0.,0.));
#1531=DIRECTION('',(1.,0.,0.));
#1532=DIRECTION('',(-1.,0.,0.));
#1533=DIRECTION('',(0.,-1.,0.));
#1534=DIRECTION('',(-1.,0.,0.));
#1535=DIRECTION('',(0.,-1.,0.));
#1536=DIRECTION('center_axis',(0.,0.,-1.));
#1537=DIRECTION('ref_axis',(1.,0.,0.));
#1538=DIRECTION('center_axis',(0.,0.,-1.));
#1539=DIRECTION('ref_axis',(1.,0.,0.));
#1540=DIRECTION('center_axis',(0.,0.,1.));
#1541=DIRECTION('ref_axis',(1.,0.,0.));
#1542=DIRECTION('',(-1.,0.,0.));
#1543=DIRECTION('',(0.,1.,0.));
#1544=DIRECTION('',(1.,0.,0.));
#1545=DIRECTION('',(0.,-1.,0.));
#1546=DIRECTION('',(1.,0.,0.));
#1547=DIRECTION('',(-1.,0.,0.));
#1548=DIRECTION('center_axis',(0.,0.,-1.));
#1549=DIRECTION('ref_axis',(1.,0.,0.));
#1550=DIRECTION('center_axis',(0.,0.,-1.));
#1551=DIRECTION('ref_axis',(1.,0.,0.));
#1552=DIRECTION('center_axis',(0.,-1.,0.));
#1553=DIRECTION('ref_axis',(0.,0.,-1.));
#1554=DIRECTION('',(0.,0.,1.));
#1555=DIRECTION('center_axis',(2.2204460494347E-16,-1.,0.));
#1556=DIRECTION('ref_axis',(-1.,-2.2204460494347E-16,-7.27420601018367E-17));
#1557=DIRECTION('',(1.,0.,0.));
#1558=DIRECTION('center_axis',(0.,0.,-1.));
#1559=DIRECTION('ref_axis',(-1.,0.,0.));
#1560=DIRECTION('',(-1.,4.21474719294722E-16,0.));
#1561=DIRECTION('',(-1.,4.21474719294722E-16,0.));
#1562=DIRECTION('center_axis',(-4.21474719294722E-16,-1.,2.53478446565758E-10));
#1563=DIRECTION('ref_axis',(1.,-4.21474719294722E-16,-3.08677743909324E-26));
#1564=DIRECTION('center_axis',(-4.21474719294722E-16,-1.,2.53478446565758E-10));
#1565=DIRECTION('ref_axis',(1.,-4.21474719294722E-16,-3.08677743909324E-26));
#1566=DIRECTION('center_axis',(0.,1.,0.));
#1567=DIRECTION('ref_axis',(-1.,0.,0.));
#1568=DIRECTION('center_axis',(0.,1.,0.));
#1569=DIRECTION('ref_axis',(-1.,0.,0.));
#1570=DIRECTION('center_axis',(0.,1.,0.));
#1571=DIRECTION('ref_axis',(-1.,0.,0.));
#1572=DIRECTION('center_axis',(-4.21474719294722E-16,-1.,2.53478446565758E-10));
#1573=DIRECTION('ref_axis',(1.,-4.21474719294722E-16,-3.08677743909324E-26));
#1574=DIRECTION('',(1.,0.,0.));
#1575=DIRECTION('center_axis',(0.,0.,1.));
#1576=DIRECTION('ref_axis',(1.,0.,0.));
#1577=DIRECTION('',(-5.26109714311175E-16,-1.,2.53478446565758E-10));
#1578=DIRECTION('',(1.,0.,0.));
#1579=DIRECTION('',(5.26109714311175E-16,1.,-2.53478446565758E-10));
#1580=DIRECTION('center_axis',(0.,1.,0.));
#1581=DIRECTION('ref_axis',(-1.,0.,0.));
#1582=DIRECTION('center_axis',(-4.21474719294722E-16,-1.,2.53478446565758E-10));
#1583=DIRECTION('ref_axis',(1.,-4.21474719294722E-16,-3.08677743909324E-26));
#1584=DIRECTION('',(1.,0.,0.));
#1585=DIRECTION('center_axis',(0.,0.,1.));
#1586=DIRECTION('ref_axis',(1.,0.,0.));
#1587=DIRECTION('',(-3.94582285733381E-16,-1.,2.5347844372641E-10));
#1588=DIRECTION('',(1.,0.,0.));
#1589=DIRECTION('',(3.94582285733381E-16,1.,-2.5347844372641E-10));
#1590=DIRECTION('center_axis',(0.,1.,0.));
#1591=DIRECTION('ref_axis',(-1.,0.,0.));
#1592=DIRECTION('center_axis',(0.,1.,0.));
#1593=DIRECTION('ref_axis',(-1.,0.,0.));
#1594=DIRECTION('center_axis',(0.,1.,0.));
#1595=DIRECTION('ref_axis',(-1.,0.,0.));
#1596=DIRECTION('center_axis',(-4.21474719294722E-16,-1.,2.53478446565758E-10));
#1597=DIRECTION('ref_axis',(1.,-4.21474719294722E-16,-3.08677743909324E-26));
#1598=DIRECTION('',(-1.,0.,0.));
#1599=DIRECTION('center_axis',(0.,0.,1.));
#1600=DIRECTION('ref_axis',(1.,0.,0.));
#1601=DIRECTION('',(-5.26109714311175E-16,-1.,2.53478446565758E-10));
#1602=DIRECTION('',(-1.,0.,0.));
#1603=DIRECTION('',(5.26109714311175E-16,1.,-2.53478446565758E-10));
#1604=DIRECTION('center_axis',(0.,1.,0.));
#1605=DIRECTION('ref_axis',(-1.,0.,0.));
#1606=DIRECTION('center_axis',(-4.21474719294722E-16,-1.,2.53478446565758E-10));
#1607=DIRECTION('ref_axis',(1.,-4.21474719294722E-16,-3.08677743909324E-26));
#1608=DIRECTION('',(-1.,0.,0.));
#1609=DIRECTION('center_axis',(0.,0.,1.));
#1610=DIRECTION('ref_axis',(1.,0.,0.));
#1611=DIRECTION('',(-3.94582285733381E-16,-1.,2.5347844372641E-10));
#1612=DIRECTION('',(-1.,0.,0.));
#1613=DIRECTION('',(3.94582285733381E-16,1.,-2.5347844372641E-10));
#1614=DIRECTION('center_axis',(0.,-1.38777878078144E-16,-1.));
#1615=DIRECTION('ref_axis',(0.,1.,-1.38777878078144E-16));
#1616=DIRECTION('',(5.26109714311175E-16,1.,-2.53478446565758E-10));
#1617=DIRECTION('',(1.,0.,0.));
#1618=DIRECTION('',(0.,-1.,1.38777878078144E-16));
#1619=DIRECTION('',(-1.,0.,0.));
#1620=DIRECTION('center_axis',(0.,-1.38777878078144E-16,-1.));
#1621=DIRECTION('ref_axis',(0.,1.,-1.38777878078144E-16));
#1622=DIRECTION('',(-3.94582285733381E-16,-1.,2.5347844372641E-10));
#1623=DIRECTION('',(-1.,0.,0.));
#1624=DIRECTION('',(-1.11022302462516E-15,1.,-1.38777878078144E-16));
#1625=DIRECTION('',(1.,0.,0.));
#1626=DIRECTION('center_axis',(0.,-1.,0.));
#1627=DIRECTION('ref_axis',(0.,0.,-1.));
#1628=DIRECTION('center_axis',(0.,1.,0.));
#1629=DIRECTION('ref_axis',(1.,0.,-1.37702531504498E-25));
#1630=DIRECTION('',(-1.,0.,0.));
#1631=DIRECTION('',(0.,0.,1.));
#1632=DIRECTION('center_axis',(0.,-1.,0.));
#1633=DIRECTION('ref_axis',(0.,0.,-1.));
#1634=DIRECTION('center_axis',(0.,1.,0.));
#1635=DIRECTION('ref_axis',(1.,0.,-1.37702530307784E-25));
#1636=DIRECTION('',(0.,0.,-1.));
#1637=DIRECTION('',(-1.,0.,0.));
#1638=DIRECTION('center_axis',(0.,1.,0.));
#1639=DIRECTION('ref_axis',(0.,0.,1.));
#1640=DIRECTION('center_axis',(0.,-1.,0.));
#1641=DIRECTION('ref_axis',(1.,0.,-1.37702531504498E-25));
#1642=DIRECTION('',(0.,0.,-1.));
#1643=DIRECTION('',(-1.,0.,0.));
#1644=DIRECTION('center_axis',(0.,0.,1.));
#1645=DIRECTION('ref_axis',(0.,-1.,0.));
#1646=DIRECTION('',(-5.26109714311175E-16,-1.,2.53478446565758E-10));
#1647=DIRECTION('',(0.,1.,0.));
#1648=DIRECTION('center_axis',(0.,0.,1.));
#1649=DIRECTION('ref_axis',(0.,-1.,0.));
#1650=DIRECTION('',(3.94582285733381E-16,1.,-2.5347844372641E-10));
#1651=DIRECTION('',(1.11022302462516E-15,-1.,0.));
#1652=DIRECTION('',(-1.,0.,0.));
#1653=DIRECTION('center_axis',(0.,1.,0.));
#1654=DIRECTION('ref_axis',(0.,0.,1.));
#1655=DIRECTION('center_axis',(0.,-1.,0.));
#1656=DIRECTION('ref_axis',(1.,0.,-1.37702530307784E-25));
#1657=DIRECTION('',(0.,0.,1.));
#1658=DIRECTION('center_axis',(3.94582285733381E-16,1.,-2.5347844372641E-10));
#1659=DIRECTION('ref_axis',(1.,-3.94582285733381E-16,-3.76844265980771E-26));
#1660=DIRECTION('center_axis',(0.,-1.,0.));
#1661=DIRECTION('ref_axis',(1.,0.,-1.37702530307784E-25));
#1662=DIRECTION('',(-3.94582285733381E-16,-1.,2.5347844372641E-10));
#1663=DIRECTION('center_axis',(0.,-1.,0.));
#1664=DIRECTION('ref_axis',(1.,0.,-1.37702530307784E-25));
#1665=DIRECTION('center_axis',(0.,-1.,0.));
#1666=DIRECTION('ref_axis',(1.,0.,-1.37702530307784E-25));
#1667=DIRECTION('center_axis',(0.,-1.,0.));
#1668=DIRECTION('ref_axis',(0.,0.,-1.));
#1669=DIRECTION('center_axis',(5.26109714311175E-16,1.,-2.53478446565758E-10));
#1670=DIRECTION('ref_axis',(1.,-5.26109714311175E-16,-4.34505839774623E-27));
#1671=DIRECTION('center_axis',(0.,-1.,0.));
#1672=DIRECTION('ref_axis',(1.,0.,-1.37702531504498E-25));
#1673=DIRECTION('',(-5.26109714311175E-16,-1.,2.53478446565758E-10));
#1674=DIRECTION('center_axis',(0.,-1.,0.));
#1675=DIRECTION('ref_axis',(1.,0.,-1.37702531504498E-25));
#1676=DIRECTION('center_axis',(0.,-1.,0.));
#1677=DIRECTION('ref_axis',(1.,0.,-1.37702531504498E-25));
#1678=DIRECTION('center_axis',(0.,-1.,0.));
#1679=DIRECTION('ref_axis',(0.,0.,-1.));
#1680=DIRECTION('center_axis',(1.,0.,0.));
#1681=DIRECTION('ref_axis',(0.,-1.,0.));
#1682=DIRECTION('',(0.,0.,1.));
#1683=DIRECTION('',(-5.9211894646675E-16,0.,1.));
#1684=DIRECTION('center_axis',(2.77555756156289E-16,-1.,0.));
#1685=DIRECTION('ref_axis',(-1.,-2.77555756156289E-16,0.));
#1686=DIRECTION('',(0.,0.,1.));
#1687=DIRECTION('center_axis',(-1.,-1.11022302462516E-15,0.));
#1688=DIRECTION('ref_axis',(-1.11022302462516E-15,1.,0.));
#1689=DIRECTION('',(0.,0.,1.));
#1690=DIRECTION('center_axis',(0.,1.,0.));
#1691=DIRECTION('ref_axis',(1.,0.,0.));
#1692=DIRECTION('center_axis',(0.,0.,1.));
#1693=DIRECTION('ref_axis',(1.,0.,0.));
#1694=DIRECTION('',(0.,0.,-1.));
#1695=DIRECTION('center_axis',(0.,0.,1.));
#1696=DIRECTION('ref_axis',(1.,0.,0.));
#1697=DIRECTION('',(0.,0.,-1.));
#1698=DIRECTION('center_axis',(-1.,0.,0.));
#1699=DIRECTION('ref_axis',(0.,-1.,0.));
#1700=DIRECTION('',(0.,0.,1.));
#1701=DIRECTION('center_axis',(0.,1.,0.));
#1702=DIRECTION('ref_axis',(-1.,0.,0.));
#1703=DIRECTION('',(0.,0.,1.));
#1704=DIRECTION('center_axis',(1.,0.,0.));
#1705=DIRECTION('ref_axis',(0.,1.,0.));
#1706=DIRECTION('',(0.,0.,1.));
#1707=DIRECTION('',(1.,0.,0.));
#1708=DIRECTION('',(-1.69099564715126E-15,-2.53479866668314E-10,1.));
#1709=DIRECTION('',(1.,-2.22044604925034E-16,1.61825363607017E-15));
#1710=CARTESIAN_POINT('',(0.,0.,0.));
#1711=CARTESIAN_POINT('',(0.,0.,0.));
#1712=CARTESIAN_POINT('',(0.,0.,0.));
#1713=CARTESIAN_POINT('Origin',(-29.5565273411286,-24.4230849339807,7.25000000000001));
#1714=CARTESIAN_POINT('',(-1.53312183526236,-24.4230849358497,7.24999999999996));
#1715=CARTESIAN_POINT('',(-29.5565273411286,-24.4230849358497,7.25000000000001));
#1716=CARTESIAN_POINT('',(-17.9448245881955,-24.4230849339807,7.24999999999999));
#1717=CARTESIAN_POINT('',(-1.53312183526236,-24.4230849358497,7.29999999999996));
#1718=CARTESIAN_POINT('',(-1.53312183526236,-24.4230849358497,7.24999999999996));
#1719=CARTESIAN_POINT('',(-29.5565273411286,-24.4230849358497,7.30000000000001));
#1720=CARTESIAN_POINT('',(-17.9448245881955,-24.4230849339807,7.29999999999999));
#1721=CARTESIAN_POINT('',(-29.5565273411286,-24.4230849358497,7.25000000000001));
#1722=CARTESIAN_POINT('Origin',(-29.5565273411286,-24.4230849358497,7.29999999999996));
#1723=CARTESIAN_POINT('',(-1.53312183526236,-15.9820849358497,7.29999999999996));
#1724=CARTESIAN_POINT('',(-1.53312183526236,-24.4230849358497,7.29999999999996));
#1725=CARTESIAN_POINT('',(-29.5565273411286,-15.9820849358497,7.30000000000001));
#1726=CARTESIAN_POINT('',(-29.5565273411286,-15.9820849358497,7.30000000000001));
#1727=CARTESIAN_POINT('',(-29.5565273411286,-24.4230849358497,7.30000000000001));
#1728=CARTESIAN_POINT('',(-16.5448245881955,-18.9821778581774,7.3));
#1729=CARTESIAN_POINT('',(-14.5448245881955,-18.9821778581774,7.3));
#1730=CARTESIAN_POINT('',(-22.050675964662,-18.9821778581774,7.29999999999999));
#1731=CARTESIAN_POINT('',(-14.5448245881955,-20.9821778581774,7.3));
#1732=CARTESIAN_POINT('',(-14.5448245881955,-22.7026313970136,7.29999999999998));
#1733=CARTESIAN_POINT('',(-16.5448245881955,-20.9821778581774,7.3));
#1734=CARTESIAN_POINT('',(-23.050675964662,-20.9821778581774,7.3));
#1735=CARTESIAN_POINT('',(-16.5448245881955,-21.7026313970136,7.29999999999999));
#1736=CARTESIAN_POINT('Origin',(-21.5448245881955,-33.9821778581609,-0.7));
#1737=CARTESIAN_POINT('',(-20.5448245881955,-33.9821778581609,-0.7));
#1738=CARTESIAN_POINT('Origin',(-21.5448245881955,-33.9821778581609,-0.7));
#1739=CARTESIAN_POINT('',(-20.5448245881955,-33.9821778581609,-2.2));
#1740=CARTESIAN_POINT('',(-20.5448245881955,-33.9821778581609,-0.7));
#1741=CARTESIAN_POINT('Origin',(-21.5448245881955,-33.9821778581609,-2.2));
#1742=CARTESIAN_POINT('Origin',(-15.5448245881954,-33.9821778581792,-0.7));
#1743=CARTESIAN_POINT('',(-14.5448245881954,-33.9821778581792,-0.7));
#1744=CARTESIAN_POINT('Origin',(-15.5448245881954,-33.9821778581792,-0.7));
#1745=CARTESIAN_POINT('',(-14.5448245881954,-33.9821778581792,-2.2));
#1746=CARTESIAN_POINT('',(-14.5448245881954,-33.9821778581792,-0.7));
#1747=CARTESIAN_POINT('Origin',(-15.5448245881954,-33.9821778581792,-2.2));
#1748=CARTESIAN_POINT('Origin',(-9.54482458819545,-33.982177858185,-0.699999999999999));
#1749=CARTESIAN_POINT('',(-8.54482458819545,-33.9821778581849,-0.699999999999999));
#1750=CARTESIAN_POINT('Origin',(-9.54482458819545,-33.982177858185,-0.7));
#1751=CARTESIAN_POINT('',(-8.54482458819545,-33.9821778581849,-2.2));
#1752=CARTESIAN_POINT('',(-8.54482458819545,-33.982177858185,-0.699999999999999));
#1753=CARTESIAN_POINT('Origin',(-9.54482458819545,-33.982177858185,-2.2));
#1754=CARTESIAN_POINT('Origin',(-28.3783362814235,-24.4230849358497,-0.699999999999953));
#1755=CARTESIAN_POINT('',(-29.5562758394477,-15.9820849358185,-0.7));
#1756=CARTESIAN_POINT('',(-29.5562758394477,-24.4230849359959,-0.7));
#1757=CARTESIAN_POINT('',(-29.5562758394477,-23.9230849358341,-0.699999999999952));
#1758=CARTESIAN_POINT('',(-29.5565273411286,-24.4230849358497,-0.699999999999952));
#1759=CARTESIAN_POINT('',(-17.3557290583429,-24.4230849359959,-0.699999999999972));
#1760=CARTESIAN_POINT('',(-29.5565273411286,-15.9820849358497,-0.699999999999952));
#1761=CARTESIAN_POINT('',(-29.5565273411286,-24.4230849358497,-0.699999999999952));
#1762=CARTESIAN_POINT('',(-1.53312183526238,-15.9820849358497,-0.699999999999997));
#1763=CARTESIAN_POINT('Origin',(-20.6288766774651,-23.4230849358184,0.));
#1764=CARTESIAN_POINT('',(-16.5448245881955,-18.9821778581774,0.));
#1765=CARTESIAN_POINT('',(-16.5448245881955,-20.9821778581774,0.));
#1766=CARTESIAN_POINT('',(-16.5448245881955,-20.9821778581774,0.));
#1767=CARTESIAN_POINT('',(-14.5448245881955,-20.9821778581774,0.));
#1768=CARTESIAN_POINT('',(-19.5448245881955,-20.9821778581774,0.));
#1769=CARTESIAN_POINT('',(-14.5448245881955,-18.9821778581774,0.));
#1770=CARTESIAN_POINT('',(-14.5448245881955,-18.9821778581774,0.));
#1771=CARTESIAN_POINT('',(-19.5448245881955,-18.9821778581774,0.));
#1772=CARTESIAN_POINT('Origin',(-29.4402758394477,-15.9820849358185,3.5));
#1773=CARTESIAN_POINT('',(-7.52370992524144,-15.9820849358185,-2.2));
#1774=CARTESIAN_POINT('',(-10.4607724989259,-15.9820849358184,0.));
#1775=CARTESIAN_POINT('Origin',(-6.33312183526237,-15.9820849358185,2.44999999786039));
#1776=CARTESIAN_POINT('',(-23.5659392511495,-15.9820849358185,-2.2));
#1777=CARTESIAN_POINT('',(-1.64937333694322,-15.9820849358185,-2.2));
#1778=CARTESIAN_POINT('',(-20.6288766774651,-15.9820849358184,2.77555756156289E-16));
#1779=CARTESIAN_POINT('Origin',(-24.7565273411286,-15.9820849358185,2.44999999786039));
#1780=CARTESIAN_POINT('',(-22.4925502138216,-15.9820849358185,0.));
#1781=CARTESIAN_POINT('Origin',(-24.7565273411286,-24.4230849351974,2.45));
#1782=CARTESIAN_POINT('',(-25.9471154311077,-15.9820849358185,-2.2));
#1783=CARTESIAN_POINT('',(-28.8841780046417,-15.9820849358497,0.));
#1784=CARTESIAN_POINT('Origin',(-24.7565273411286,-15.9820849358185,2.44999999786039));
#1785=CARTESIAN_POINT('',(-28.8841780059117,-14.9820849358185,3.45351007668186E-19));
#1786=CARTESIAN_POINT('',(-28.8841780053098,-19.9821313960791,6.76104099907098E-17));
#1787=CARTESIAN_POINT('',(-20.6288766763455,-14.9820849358185,1.6656798879454E-15));
#1788=CARTESIAN_POINT('Origin',(-24.7565273411286,-14.9820849358185,2.44999999760691));
#1789=CARTESIAN_POINT('',(-20.6288766769473,-19.9821313960791,6.76104110569973E-17));
#1790=CARTESIAN_POINT('',(-23.5659392511495,-24.4230849358185,-2.2));
#1791=CARTESIAN_POINT('',(-23.5659392506545,-23.9230849358185,-2.2));
#1792=CARTESIAN_POINT('',(-25.9471154311077,-24.4230849358185,-2.2));
#1793=CARTESIAN_POINT('Origin',(-24.7565273411286,-24.4230849351974,2.45));
#1794=CARTESIAN_POINT('',(-25.9471154316027,-23.9230849358185,-2.2));
#1795=CARTESIAN_POINT('Origin',(-29.5562758394477,-35.9821778581774,3.5));
#1796=CARTESIAN_POINT('',(-29.5562758394477,-35.9821778581774,-0.699999999999999));
#1797=CARTESIAN_POINT('',(-29.5562758394477,-24.4230849358185,-0.7));
#1798=CARTESIAN_POINT('',(-29.5562758394477,-15.9820849358185,-2.2));
#1799=CARTESIAN_POINT('',(-29.5562758394477,-15.9820849358185,3.5));
#1800=CARTESIAN_POINT('',(-29.5562758394477,-35.9821778581774,-2.2));
#1801=CARTESIAN_POINT('',(-29.5562758394477,-23.4230849358185,-2.2));
#1802=CARTESIAN_POINT('',(-29.5562758394477,-35.9821778581774,3.5));
#1803=CARTESIAN_POINT('Origin',(-1.53337333694322,-24.4230849358185,3.5));
#1804=CARTESIAN_POINT('',(-1.53337333694322,-24.4230849359959,-0.7));
#1805=CARTESIAN_POINT('',(-1.53337333694322,-15.9820849358185,-0.699999999999998));
#1806=CARTESIAN_POINT('',(-1.53337333694322,-23.9230849358341,-0.699999999999997));
#1807=CARTESIAN_POINT('',(-1.53337333694321,-35.9821778581774,-0.699999999999997));
#1808=CARTESIAN_POINT('',(-1.53337333694322,-27.3128581664082,-0.7));
#1809=CARTESIAN_POINT('',(-1.53337333694321,-35.9821778581774,-2.2));
#1810=CARTESIAN_POINT('',(-1.53337333694321,-35.9821778581774,3.5));
#1811=CARTESIAN_POINT('',(-1.53337333694322,-15.9820849358185,-2.2));
#1812=CARTESIAN_POINT('',(-1.53337333694322,-24.4230849358185,-2.2));
#1813=CARTESIAN_POINT('',(-1.53337333694322,-15.9820849358185,3.5));
#1814=CARTESIAN_POINT('Origin',(-29.5565273411286,-24.4230849358497,-0.699999999999952));
#1815=CARTESIAN_POINT('',(-29.5565273411286,-24.4230849358497,-0.699999999999952));
#1816=CARTESIAN_POINT('',(-29.5565273411286,-15.9820849358497,3.5));
#1817=CARTESIAN_POINT('',(-29.5565273411286,-15.9820849358497,-0.699999999999952));
#1818=CARTESIAN_POINT('',(-29.5565273411286,-15.9821778581774,3.5));
#1819=CARTESIAN_POINT('',(-29.5565273411286,-12.4526313970136,3.5));
#1820=CARTESIAN_POINT('',(-29.5565273411286,-15.9821778581774,0.));
#1821=CARTESIAN_POINT('',(-29.5565273411286,-15.9821778581774,-0.349999999999981));
#1822=CARTESIAN_POINT('',(-29.5565273411286,-15.9820849358497,0.));
#1823=CARTESIAN_POINT('',(-29.5565273411286,-12.4526313970136,0.));
#1824=CARTESIAN_POINT('',(-29.5565273411286,-15.9820849358497,-0.699999999999952));
#1825=CARTESIAN_POINT('Origin',(-15.5448245881955,-30.2026313969979,-0.7));
#1826=CARTESIAN_POINT('',(-17.3557290583429,-24.4230849359959,-0.699999999999972));
#1827=CARTESIAN_POINT('',(-29.4402758394477,-35.9821778581774,-0.699999999999999));
#1828=CARTESIAN_POINT('Origin',(-1.53312183526238,-24.4230849358497,-0.699999999999997));
#1829=CARTESIAN_POINT('',(-1.53312183526238,-15.9820849358497,-0.699999999999997));
#1830=CARTESIAN_POINT('',(-1.53312183526238,-15.9820849358497,-0.699999999999997));
#1831=CARTESIAN_POINT('',(-1.53312183526238,-24.4230849358497,-0.699999999999997));
#1832=CARTESIAN_POINT('',(-1.53312183526238,-24.4230849358497,-0.699999999999997));
#1833=CARTESIAN_POINT('',(-3.93312183526238,-24.4230849359959,-0.699999999999993));
#1834=CARTESIAN_POINT('Origin',(-6.33312183526237,-24.4230849351975,2.45));
#1835=CARTESIAN_POINT('',(-1.53312183526236,-24.4230849358497,7.24999999999996));
#1836=CARTESIAN_POINT('',(-9.13312183526237,-24.4230849351974,2.45));
#1837=CARTESIAN_POINT('Origin',(-6.33312183526237,-24.4230849351975,2.45));
#1838=CARTESIAN_POINT('',(-27.5565273411286,-24.4230849351974,2.45));
#1839=CARTESIAN_POINT('Origin',(-24.7565273411286,-24.4230849351974,2.45));
#1840=CARTESIAN_POINT('Origin',(-1.53312183526237,-24.4230849358497,2.45000000000025));
#1841=CARTESIAN_POINT('',(-1.53312183526238,-15.9820849358497,0.));
#1842=CARTESIAN_POINT('',(-1.53312183526236,-15.9820849358497,7.24999999999996));
#1843=CARTESIAN_POINT('',(-1.53312183526238,-15.9821778581774,0.));
#1844=CARTESIAN_POINT('',(-1.53312183526238,-12.4526313970136,0.));
#1845=CARTESIAN_POINT('',(-1.53312183526237,-15.9821778581774,3.5));
#1846=CARTESIAN_POINT('',(-1.53312183526237,-15.9821778581774,1.2250000000001));
#1847=CARTESIAN_POINT('',(-1.53312183526237,-15.9820849358497,3.5));
#1848=CARTESIAN_POINT('',(-1.53312183526237,-12.4526313970136,3.5));
#1849=CARTESIAN_POINT('',(-1.53312183526236,-15.9820849358497,7.24999999999996));
#1850=CARTESIAN_POINT('Origin',(-28.967431811276,-15.9820849358497,0.875000000153266));
#1851=CARTESIAN_POINT('',(-22.2561281997358,-15.9820849358497,0.));
#1852=CARTESIAN_POINT('',(-1.64937333694322,-15.9820849358185,-2.2));
#1853=CARTESIAN_POINT('Origin',(-3.93312196689382,-15.9820849358497,4.85000000000012));
#1854=CARTESIAN_POINT('',(-1.64937333646357,-15.9820849358497,3.5));
#1855=CARTESIAN_POINT('',(-9.73897327754465,-15.9820849358497,3.5));
#1856=CARTESIAN_POINT('',(-11.0168703340612,-15.9820849358497,3.50000000000001));
#1857=CARTESIAN_POINT('Origin',(-6.33312183526237,-15.9820849358497,2.44999999786039));
#1858=CARTESIAN_POINT('',(-20.0727788423298,-15.9820849358497,3.5));
#1859=CARTESIAN_POINT('',(-15.5448246540112,-15.9820849358497,3.5));
#1860=CARTESIAN_POINT('',(-29.4402758399274,-15.9820849358497,3.5));
#1861=CARTESIAN_POINT('Origin',(-24.7565273411286,-15.9820849358497,2.44999999786039));
#1862=CARTESIAN_POINT('',(-21.350675964662,-15.9820849358497,3.5));
#1863=CARTESIAN_POINT('Origin',(-2.12221736511493,-15.9820849358497,0.875000000000125));
#1864=CARTESIAN_POINT('',(-2.20547117174929,-15.9820849358497,0.));
#1865=CARTESIAN_POINT('',(-8.8335209766552,-15.9820849358497,0.));
#1866=CARTESIAN_POINT('',(-5.1425337452833,-15.9820849358185,-2.2));
#1867=CARTESIAN_POINT('',(-1.64937333694322,-15.9820849358185,-2.2));
#1868=CARTESIAN_POINT('Origin',(-6.33312183526237,-15.9820849358185,2.44999999786039));
#1869=CARTESIAN_POINT('Origin',(-35.5448245881955,-15.9821778581774,0.));
#1870=CARTESIAN_POINT('',(-35.5448245881955,-15.9821778581774,3.5));
#1871=CARTESIAN_POINT('',(4.45517541180452,-15.9821778581774,3.5));
#1872=CARTESIAN_POINT('',(-35.5448245881955,-15.9821778581774,0.));
#1873=CARTESIAN_POINT('',(-35.5448245881955,-15.9821778581774,0.));
#1874=CARTESIAN_POINT('',(4.45517541180452,-15.9821778581774,0.));
#1875=CARTESIAN_POINT('Origin',(-24.7565273411286,-24.4230849351974,2.45));
#1876=CARTESIAN_POINT('',(-20.0727788428095,-13.9820849358185,3.5));
#1877=CARTESIAN_POINT('',(-20.0727788425696,-20.2025849358185,3.5));
#1878=CARTESIAN_POINT('',(-29.4402758394477,-13.9820849358185,3.5));
#1879=CARTESIAN_POINT('Origin',(-24.7565273411286,-13.9820849358185,2.44999999735343));
#1880=CARTESIAN_POINT('',(-29.440275839675,-19.9821313960791,3.5));
#1881=CARTESIAN_POINT('Origin',(-6.33312183526237,-24.4230849351975,2.45));
#1882=CARTESIAN_POINT('',(-5.1425337452833,-24.4230849358185,-2.2));
#1883=CARTESIAN_POINT('',(-5.1425337447883,-23.9230849358185,-2.2));
#1884=CARTESIAN_POINT('',(-7.52370992524144,-24.4230849358185,-2.2));
#1885=CARTESIAN_POINT('Origin',(-6.33312183526237,-24.4230849351975,2.45));
#1886=CARTESIAN_POINT('',(-7.52370992573644,-23.9230849358185,-2.2));
#1887=CARTESIAN_POINT('',(-10.4607725000454,-14.9820849358185,5.22512079366935E-16));
#1888=CARTESIAN_POINT('',(-10.4607724994104,-20.2025849358185,1.15170744056109E-24));
#1889=CARTESIAN_POINT('',(-2.2054711704793,-14.9820849358185,6.94360059578867E-16));
#1890=CARTESIAN_POINT('Origin',(-6.33312183526237,-14.9820849358185,2.44999999760691));
#1891=CARTESIAN_POINT('',(-2.20547117108113,-19.9821313960791,8.02198240856049E-17));
#1892=CARTESIAN_POINT('Origin',(-6.33312183526237,-24.4230849351975,2.45));
#1893=CARTESIAN_POINT('',(-1.64937333694323,-13.9820849358185,3.5));
#1894=CARTESIAN_POINT('',(-1.64937333671593,-19.9821313960791,3.5));
#1895=CARTESIAN_POINT('',(-11.0168703335815,-13.9820849358185,3.5));
#1896=CARTESIAN_POINT('Origin',(-6.33312183526237,-13.9820849358185,2.44999999735343));
#1897=CARTESIAN_POINT('',(-11.0168703338088,-19.9821313960791,3.5));
#1898=CARTESIAN_POINT('Origin',(-15.5448245881955,-0.482177858177391,3.5));
#1899=CARTESIAN_POINT('',(-20.150675964662,-13.9820849358185,3.5));
#1900=CARTESIAN_POINT('',(-10.9389732117289,-13.9820849358185,3.5));
#1901=CARTESIAN_POINT('',(4.45517541180452,-15.9821778581774,3.5));
#1902=CARTESIAN_POINT('',(4.45517541180452,-15.9821778581774,3.5));
#1903=CARTESIAN_POINT('',(4.45517541180452,10.0178221418226,3.5));
#1904=CARTESIAN_POINT('',(4.45517541180452,-10.9821778581774,3.5));
#1905=CARTESIAN_POINT('',(-35.5448245881955,10.0178221418226,3.5));
#1906=CARTESIAN_POINT('',(-35.5448245881955,10.0178221418226,3.5));
#1907=CARTESIAN_POINT('',(-35.5448245881955,-10.9821778581774,3.5));
#1908=CARTESIAN_POINT('',(-7.79482458819548,-0.482177858177393,3.5));
#1909=CARTESIAN_POINT('Origin',(-4.99482458819548,-0.482177858177392,3.5));
#1910=CARTESIAN_POINT('',(-28.8948245881955,-0.482177858177393,3.5));
#1911=CARTESIAN_POINT('Origin',(-26.0948245881955,-0.482177858177392,3.5));
#1912=CARTESIAN_POINT('Origin',(-15.5448245881955,-0.482177858177391,0.));
#1913=CARTESIAN_POINT('',(-20.150675964662,-14.9820849358185,0.));
#1914=CARTESIAN_POINT('',(-35.5448245881955,10.0178221418226,0.));
#1915=CARTESIAN_POINT('',(-35.5448245881955,-10.9821778581774,0.));
#1916=CARTESIAN_POINT('',(4.45517541180452,10.0178221418226,0.));
#1917=CARTESIAN_POINT('',(-35.5448245881955,10.0178221418226,0.));
#1918=CARTESIAN_POINT('',(4.45517541180452,-15.9821778581774,0.));
#1919=CARTESIAN_POINT('',(4.45517541180452,-10.9821778581774,0.));
#1920=CARTESIAN_POINT('',(4.45517541180452,-15.9821778581774,0.));
#1921=CARTESIAN_POINT('',(-10.9389732117289,-14.9820849358185,0.));
#1922=CARTESIAN_POINT('',(-28.8948245881955,-0.482177858177393,0.));
#1923=CARTESIAN_POINT('Origin',(-26.0948245881955,-0.482177858177392,0.));
#1924=CARTESIAN_POINT('',(-7.79482458819548,-0.482177858177393,0.));
#1925=CARTESIAN_POINT('Origin',(-4.99482458819548,-0.482177858177392,0.));
#1926=CARTESIAN_POINT('Origin',(-35.5448245881955,-15.9821778581774,0.));
#1927=CARTESIAN_POINT('',(4.45517541180452,-15.9821778581774,0.));
#1928=CARTESIAN_POINT('Origin',(-1.64937333694322,-35.9821778581774,3.5));
#1929=CARTESIAN_POINT('',(-1.64937333694321,-35.9821778581774,-2.2));
#1930=CARTESIAN_POINT('Origin',(-15.5448245881955,-30.2026313969979,-2.2));
#1931=CARTESIAN_POINT('',(-10.9389732117289,-24.4230849363761,-2.2));
#1932=CARTESIAN_POINT('',(-10.9389732117289,-24.4230849363761,-2.2));
#1933=CARTESIAN_POINT('Origin',(-6.33312183526237,-24.4230849351975,2.45));
#1934=CARTESIAN_POINT('Origin',(-6.33312183526237,-24.4230849351975,2.45));
#1935=CARTESIAN_POINT('Origin',(-24.7565273411286,-14.9820849358185,-1.1750000010698));
#1936=CARTESIAN_POINT('Origin',(-6.33312183526237,-14.9820849358185,-1.17500000106981));
#1937=CARTESIAN_POINT('Origin',(-24.7565273411286,-15.9820849358185,-1.1750000010698));
#1938=CARTESIAN_POINT('',(-26.1120715161683,-15.9820849358185,0.));
#1939=CARTESIAN_POINT('',(-23.400983169956,-15.9820849358185,-2.13961281646247E-9));
#1940=CARTESIAN_POINT('Origin',(-24.7565273411286,-15.9820849351974,2.44999999786039));
#1941=CARTESIAN_POINT('',(-20.150675964662,-15.9820849358185,0.));
#1942=CARTESIAN_POINT('Origin',(-15.5448245881955,-0.482177858177391,0.));
#1943=CARTESIAN_POINT('',(-23.4009831660889,-15.9821778581774,-6.23910215591588E-17));
#1944=CARTESIAN_POINT('',(-23.400983169956,-24.4230849358185,0.));
#1945=CARTESIAN_POINT('',(-26.1120715161683,-15.9821778581774,-6.23910220761466E-17));
#1946=CARTESIAN_POINT('',(4.45517541180452,-15.9821778581774,0.));
#1947=CARTESIAN_POINT('',(-26.1120715123012,-24.4230849358185,0.));
#1948=CARTESIAN_POINT('Origin',(-6.33312183526237,-15.9820849358185,-1.17500000106981));
#1949=CARTESIAN_POINT('',(-7.68866601030208,-15.9820849358185,0.));
#1950=CARTESIAN_POINT('',(-4.97757766022266,-15.9820849358185,0.));
#1951=CARTESIAN_POINT('Origin',(-6.33312183526237,-15.9820849351975,2.44999999786039));
#1952=CARTESIAN_POINT('',(-10.9389732117289,-15.9820849358185,0.));
#1953=CARTESIAN_POINT('Origin',(-15.5448245881955,-0.482177858177391,0.));
#1954=CARTESIAN_POINT('',(-4.9775776602227,-15.9821778581774,-3.84243489106781E-17));
#1955=CARTESIAN_POINT('',(-4.97757766408978,-24.4230849358185,0.));
#1956=CARTESIAN_POINT('',(-7.68866601030203,-15.9821778581774,-3.8424349427666E-17));
#1957=CARTESIAN_POINT('',(4.45517541180452,-15.9821778581774,0.));
#1958=CARTESIAN_POINT('',(-7.68866600643496,-24.4230849358185,0.));
#1959=CARTESIAN_POINT('Origin',(-24.7565273411286,-13.9820849358185,5.3749999989302));
#1960=CARTESIAN_POINT('Origin',(-6.33312183526237,-13.9820849358185,5.37499999893019));
#1961=CARTESIAN_POINT('Origin',(-24.7565273411286,-15.9820849358185,5.3749999989302));
#1962=CARTESIAN_POINT('',(-22.1608578715106,-15.9820849349313,3.5));
#1963=CARTESIAN_POINT('',(-27.3521968107466,-15.9820849349313,3.5));
#1964=CARTESIAN_POINT('Origin',(-24.7565273411286,-15.9820849351974,2.44999999786039));
#1965=CARTESIAN_POINT('',(-20.150675964662,-15.9820849358185,3.5));
#1966=CARTESIAN_POINT('Origin',(-15.5448245881955,-0.482177858177391,3.5));
#1967=CARTESIAN_POINT('',(-27.3521968107466,-15.9821778581774,3.5));
#1968=CARTESIAN_POINT('',(-27.3521968116121,-24.4230849349313,3.5));
#1969=CARTESIAN_POINT('',(-22.1608578715106,-15.9821778581774,3.5));
#1970=CARTESIAN_POINT('',(4.45517541180452,-15.9821778581774,3.5));
#1971=CARTESIAN_POINT('',(-22.1608578706451,-24.4230849349313,3.5));
#1972=CARTESIAN_POINT('Origin',(-6.33312183526237,-15.9820849358185,5.37499999893019));
#1973=CARTESIAN_POINT('',(-3.7374523656444,-15.9820849349313,3.5));
#1974=CARTESIAN_POINT('',(-8.92879130488033,-15.9820849349313,3.5));
#1975=CARTESIAN_POINT('Origin',(-6.33312183526237,-15.9820849351975,2.44999999786039));
#1976=CARTESIAN_POINT('',(-10.9389732117289,-15.9820849358185,3.5));
#1977=CARTESIAN_POINT('Origin',(-15.5448245881955,-0.482177858177391,3.5));
#1978=CARTESIAN_POINT('',(-8.92879130488034,-15.9821778581774,3.5));
#1979=CARTESIAN_POINT('',(-8.92879130574585,-24.4230849349313,3.5));
#1980=CARTESIAN_POINT('',(-3.73745236564439,-15.9821778581774,3.5));
#1981=CARTESIAN_POINT('',(4.45517541180452,-15.9821778581774,3.5));
#1982=CARTESIAN_POINT('',(-3.73745236477889,-24.4230849349313,3.5));
#1983=CARTESIAN_POINT('Origin',(-14.5448245881955,-20.4821778581774,1.15));
#1984=CARTESIAN_POINT('',(-22.2766079870775,-20.4821778581774,1.15));
#1985=CARTESIAN_POINT('',(-22.2766079869446,-19.4821778581774,1.15));
#1986=CARTESIAN_POINT('',(-22.2766079876011,-24.423084935527,1.15));
#1987=CARTESIAN_POINT('',(-16.5448245881955,-20.4821778581774,1.15));
#1988=CARTESIAN_POINT('',(-14.5448245881955,-20.4821778581774,1.15));
#1989=CARTESIAN_POINT('',(-16.5448245881955,-19.4821778581774,1.15));
#1990=CARTESIAN_POINT('',(-16.5448245881955,-19.7321778581774,1.15));
#1991=CARTESIAN_POINT('',(-14.5448245881955,-19.4821778581774,1.15));
#1992=CARTESIAN_POINT('Origin',(-14.5448245881955,-20.4821778581774,1.15));
#1993=CARTESIAN_POINT('',(-8.81304118944634,-19.4821778581774,1.15));
#1994=CARTESIAN_POINT('',(-8.81304118931347,-20.4821778581774,1.15));
#1995=CARTESIAN_POINT('',(-8.81304118878982,-24.423084935527,1.15));
#1996=CARTESIAN_POINT('',(-14.5448245881955,-19.4821778581774,1.15));
#1997=CARTESIAN_POINT('',(-14.5448245881955,-19.4821778581774,1.15));
#1998=CARTESIAN_POINT('',(-14.5448245881955,-20.4821778581774,1.15));
#1999=CARTESIAN_POINT('',(-14.5448245881955,-20.7321778581774,1.15));
#2000=CARTESIAN_POINT('',(-14.5448245881955,-20.4821778581774,1.15));
#2001=CARTESIAN_POINT('Origin',(-14.5448245881955,-20.4821778581774,2.35));
#2002=CARTESIAN_POINT('',(-21.9583136251663,-20.4821778581774,2.35));
#2003=CARTESIAN_POINT('Origin',(-24.7565273411286,-20.4821778581774,2.44999999900106));
#2004=CARTESIAN_POINT('',(-16.5448245881955,-20.4821778581774,2.35));
#2005=CARTESIAN_POINT('',(-14.5448245881955,-20.4821778581774,2.35));
#2006=CARTESIAN_POINT('',(-16.5448245881955,-20.4821778581774,2.925));
#2007=CARTESIAN_POINT('Origin',(-14.5448245881955,-20.4821778581774,2.35));
#2008=CARTESIAN_POINT('',(-9.13133555122471,-20.4821778581774,2.35));
#2009=CARTESIAN_POINT('Origin',(-6.33312183526237,-20.4821778581774,2.44999999900106));
#2010=CARTESIAN_POINT('',(-14.5448245881955,-20.4821778581774,2.35));
#2011=CARTESIAN_POINT('',(-14.5448245881955,-20.4821778581774,2.925));
#2012=CARTESIAN_POINT('',(-14.5448245881955,-20.4821778581774,2.35));
#2013=CARTESIAN_POINT('Origin',(-14.5448245881955,-19.4821778581774,1.15));
#2014=CARTESIAN_POINT('',(-21.9583136251572,-19.4821778581774,2.35));
#2015=CARTESIAN_POINT('Origin',(-24.7565273411286,-19.4821778581774,2.44999999874758));
#2016=CARTESIAN_POINT('',(-16.5448245881955,-19.4821778581774,2.35));
#2017=CARTESIAN_POINT('',(-16.5448245881955,-19.4821778581774,2.325));
#2018=CARTESIAN_POINT('',(-14.5448245881955,-19.4821778581774,2.35));
#2019=CARTESIAN_POINT('Origin',(-14.5448245881955,-19.4821778581774,2.35));
#2020=CARTESIAN_POINT('',(-21.958313625202,-24.4230849352228,2.35));
#2021=CARTESIAN_POINT('',(-16.5448245881955,-19.2321778581774,2.35));
#2022=CARTESIAN_POINT('Origin',(-14.5448245881955,-19.4821778581774,2.35));
#2023=CARTESIAN_POINT('',(-9.13133555123377,-19.4821778581774,2.35));
#2024=CARTESIAN_POINT('',(-9.13133555118901,-24.4230849352228,2.35));
#2025=CARTESIAN_POINT('',(-14.5448245881955,-19.4821778581774,2.35));
#2026=CARTESIAN_POINT('',(-14.5448245881955,-20.2321778581774,2.35));
#2027=CARTESIAN_POINT('',(-14.5448245881955,-19.4821778581774,2.35));
#2028=CARTESIAN_POINT('Origin',(-14.5448245881955,-19.4821778581774,1.15));
#2029=CARTESIAN_POINT('Origin',(-6.33312183526237,-19.4821778581774,2.44999999874758));
#2030=CARTESIAN_POINT('',(-14.5448245881955,-19.4821778581774,2.325));
#2031=CARTESIAN_POINT('Origin',(-6.33312183526237,-24.4230849351975,2.45));
#2032=CARTESIAN_POINT('',(-9.13312183526236,-15.9821778581774,2.44999999786041));
#2033=CARTESIAN_POINT('Origin',(-6.33312183526237,-15.9821778581774,2.44999999786041));
#2034=CARTESIAN_POINT('',(-9.13312183526237,-24.4230849351975,2.45));
#2035=CARTESIAN_POINT('Origin',(-6.33312183526237,-15.9821778581774,2.44999999786041));
#2036=CARTESIAN_POINT('Origin',(-6.33312183526237,-15.9821778581774,2.44999999786041));
#2037=CARTESIAN_POINT('Origin',(-35.5448245881955,-15.9821778581774,0.));
#2038=CARTESIAN_POINT('Origin',(-24.7565273411286,-24.4230849351974,2.45));
#2039=CARTESIAN_POINT('',(-27.5565273411286,-15.9821778581774,2.44999999786041));
#2040=CARTESIAN_POINT('Origin',(-24.7565273411286,-15.9821778581774,2.44999999786041));
#2041=CARTESIAN_POINT('',(-27.5565273411286,-24.4230849351974,2.45));
#2042=CARTESIAN_POINT('Origin',(-24.7565273411286,-15.9821778581774,2.44999999786041));
#2043=CARTESIAN_POINT('Origin',(-24.7565273411286,-15.9821778581774,2.44999999786041));
#2044=CARTESIAN_POINT('Origin',(-35.5448245881955,-15.9821778581774,0.));
#2045=CARTESIAN_POINT('Origin',(-16.5448245881955,-18.9821778581774,3.5));
#2046=CARTESIAN_POINT('',(-16.5448245881955,-20.9821778581774,7.25));
#2047=CARTESIAN_POINT('',(-16.5448245881955,-18.9821778581774,3.5));
#2048=CARTESIAN_POINT('Origin',(-14.5448245881955,-18.9821778581774,3.5));
#2049=CARTESIAN_POINT('',(-14.5448245881955,-18.9821778581774,7.25));
#2050=CARTESIAN_POINT('Origin',(-14.5448245881955,-20.9821778581774,3.5));
#2051=CARTESIAN_POINT('',(-14.5448245881955,-20.9821778581774,7.25));
#2052=CARTESIAN_POINT('Origin',(-16.5448245881955,-20.9821778581774,3.5));
#2053=CARTESIAN_POINT('Origin',(-26.0948245881955,-0.482177858177392,0.));
#2054=CARTESIAN_POINT('',(-28.8948245881955,-0.482177858177393,0.));
#2055=CARTESIAN_POINT('Origin',(-4.99482458819548,-0.482177858177392,0.));
#2056=CARTESIAN_POINT('',(-7.79482458819548,-0.482177858177393,0.));
#2057=CARTESIAN_POINT('Origin',(-35.5448245881955,10.0178221418226,0.));
#2058=CARTESIAN_POINT('',(-35.5448245881955,10.0178221418226,0.));
#2059=CARTESIAN_POINT('Origin',(4.45517541180452,10.0178221418226,0.));
#2060=CARTESIAN_POINT('',(4.45517541180452,10.0178221418226,0.));
#2061=CARTESIAN_POINT('Origin',(4.45517541180452,-10.9821778581774,0.));
#2062=CARTESIAN_POINT('',(0.,0.,0.));
#2063=CARTESIAN_POINT('',(-1.32267678704595,4.65803733270333,0.123396896636834));
#2064=UNCERTAINTY_MEASURE_WITH_UNIT(LENGTH_MEASURE(0.01),#2072,
'DISTANCE_ACCURACY_VALUE',
'Maximum model space distance between geometric entities at asserted c
onnectivities');
#2065=UNCERTAINTY_MEASURE_WITH_UNIT(LENGTH_MEASURE(0.01),#2072,
'DISTANCE_ACCURACY_VALUE',
'Maximum model space distance between geometric entities at asserted c
onnectivities');
#2066=UNCERTAINTY_MEASURE_WITH_UNIT(LENGTH_MEASURE(0.01),#2072,
'DISTANCE_ACCURACY_VALUE',
'Maximum model space distance between geometric entities at asserted c
onnectivities');
#2067=UNCERTAINTY_MEASURE_WITH_UNIT(LENGTH_MEASURE(0.01),#2072,
'DISTANCE_ACCURACY_VALUE',
'Maximum model space distance between geometric entities at asserted c
onnectivities');
#2068=(
GEOMETRIC_REPRESENTATION_CONTEXT(3)
GLOBAL_UNCERTAINTY_ASSIGNED_CONTEXT((#2064))
GLOBAL_UNIT_ASSIGNED_CONTEXT((#2072,#2074,#2075))
REPRESENTATION_CONTEXT('','3D')
);
#2069=(
GEOMETRIC_REPRESENTATION_CONTEXT(3)
GLOBAL_UNCERTAINTY_ASSIGNED_CONTEXT((#2065))
GLOBAL_UNIT_ASSIGNED_CONTEXT((#2072,#2074,#2075))
REPRESENTATION_CONTEXT('','3D')
);
#2070=(
GEOMETRIC_REPRESENTATION_CONTEXT(3)
GLOBAL_UNCERTAINTY_ASSIGNED_CONTEXT((#2066))
GLOBAL_UNIT_ASSIGNED_CONTEXT((#2072,#2074,#2075))
REPRESENTATION_CONTEXT('','3D')
);
#2071=(
GEOMETRIC_REPRESENTATION_CONTEXT(3)
GLOBAL_UNCERTAINTY_ASSIGNED_CONTEXT((#2067))
GLOBAL_UNIT_ASSIGNED_CONTEXT((#2072,#2074,#2075))
REPRESENTATION_CONTEXT('','3D')
);
#2072=(
LENGTH_UNIT()
NAMED_UNIT(*)
SI_UNIT(.MILLI.,.METRE.)
);
#2073=(
LENGTH_UNIT()
NAMED_UNIT(*)
SI_UNIT($,.METRE.)
);
#2074=(
NAMED_UNIT(*)
PLANE_ANGLE_UNIT()
SI_UNIT($,.RADIAN.)
);
#2075=(
NAMED_UNIT(*)
SI_UNIT($,.STERADIAN.)
SOLID_ANGLE_UNIT()
);
#2076=SHAPE_DEFINITION_REPRESENTATION(#2079,#2084);
#2077=SHAPE_DEFINITION_REPRESENTATION(#2080,#2085);
#2078=SHAPE_DEFINITION_REPRESENTATION(#2081,#2086);
#2079=PRODUCT_DEFINITION_SHAPE('',$,#2088);
#2080=PRODUCT_DEFINITION_SHAPE('',$,#2089);
#2081=PRODUCT_DEFINITION_SHAPE('',$,#2090);
#2082=PRODUCT_DEFINITION_SHAPE($,$,#17);
#2083=PRODUCT_DEFINITION_SHAPE($,$,#18);
#2084=SHAPE_REPRESENTATION('',(#1258,#1363),#2068);
#2085=SHAPE_REPRESENTATION('',(#1259,#1362),#2069);
#2086=SHAPE_REPRESENTATION('',(#1260),#2070);
#2087=PRODUCT_DEFINITION_CONTEXT('part definition',#2098,'design');
#2088=PRODUCT_DEFINITION('filament cut-out sensor',
'filament cut-out sensor v1',#2091,#2087);
#2089=PRODUCT_DEFINITION('holder','holder',#2092,#2087);
#2090=PRODUCT_DEFINITION('main','main',#2093,#2087);
#2091=PRODUCT_DEFINITION_FORMATION('',$,#2100);
#2092=PRODUCT_DEFINITION_FORMATION('',$,#2101);
#2093=PRODUCT_DEFINITION_FORMATION('',$,#2102);
#2094=PRODUCT_RELATED_PRODUCT_CATEGORY('filament cut-out sensor v1',
'filament cut-out sensor v1',(#2100));
#2095=PRODUCT_RELATED_PRODUCT_CATEGORY('holder','holder',(#2101));
#2096=PRODUCT_RELATED_PRODUCT_CATEGORY('main','main',(#2102));
#2097=APPLICATION_PROTOCOL_DEFINITION('international standard',
'automotive_design',2009,#2098);
#2098=APPLICATION_CONTEXT(
'Core Data for Automotive Mechanical Design Process');
#2099=PRODUCT_CONTEXT('part definition',#2098,'mechanical');
#2100=PRODUCT('filament cut-out sensor','filament cut-out sensor v1',$,
(#2099));
#2101=PRODUCT('holder','holder',$,(#2099));
#2102=PRODUCT('main','main',$,(#2099));
#2103=PRESENTATION_STYLE_ASSIGNMENT((#2104));
#2104=SURFACE_STYLE_USAGE(.BOTH.,#2105);
#2105=SURFACE_SIDE_STYLE('',(#2106));
#2106=SURFACE_STYLE_FILL_AREA(#2107);
#2107=FILL_AREA_STYLE('Steel - Satin',(#2108));
#2108=FILL_AREA_STYLE_COLOUR('Steel - Satin',#2109);
#2109=COLOUR_RGB('Steel - Satin',0.627450980392157,0.627450980392157,0.627450980392157);
ENDSEC;
END-ISO-10303-21;
